G04 MADE WITH FRITZING*
G04 WWW.FRITZING.ORG*
G04 DOUBLE SIDED*
G04 HOLES PLATED*
G04 CONTOUR ON CENTER OF CONTOUR VECTOR*
%ASAXBY*%
%FSLAX23Y23*%
%MOIN*%
%OFA0B0*%
%SFA1.0B1.0*%
%ADD10C,0.078000*%
%ADD11C,0.075433*%
%ADD12C,0.048000*%
%LNCOPPER1*%
G90*
G70*
G54D10*
X608Y921D03*
X708Y921D03*
X808Y921D03*
X1608Y921D03*
X1708Y921D03*
X1808Y921D03*
X1608Y721D03*
X1708Y721D03*
X1808Y721D03*
X608Y721D03*
X708Y721D03*
X808Y721D03*
G54D11*
X408Y821D03*
G54D10*
X1908Y521D03*
X1808Y521D03*
X1708Y521D03*
X1608Y521D03*
X1508Y521D03*
X1408Y521D03*
X1308Y521D03*
X1208Y521D03*
X1108Y521D03*
X1008Y521D03*
X908Y521D03*
X808Y521D03*
X708Y521D03*
X608Y521D03*
X508Y521D03*
X1908Y421D03*
X1808Y421D03*
X1708Y421D03*
X1608Y421D03*
X1508Y421D03*
X1408Y421D03*
X1308Y421D03*
X1208Y421D03*
X1108Y421D03*
X1008Y421D03*
X908Y421D03*
X808Y421D03*
X708Y421D03*
X608Y421D03*
X508Y421D03*
X608Y2021D03*
X708Y2021D03*
X808Y2021D03*
X1608Y2021D03*
X1708Y2021D03*
X1808Y2021D03*
X1608Y1821D03*
X1708Y1821D03*
X1808Y1821D03*
X608Y1821D03*
X708Y1821D03*
X808Y1821D03*
G54D11*
X408Y1921D03*
G54D10*
X1908Y1621D03*
X1808Y1621D03*
X1708Y1621D03*
X1608Y1621D03*
X1508Y1621D03*
X1408Y1621D03*
X1308Y1621D03*
X1208Y1621D03*
X1108Y1621D03*
X1008Y1621D03*
X908Y1621D03*
X808Y1621D03*
X708Y1621D03*
X608Y1621D03*
X508Y1621D03*
X1908Y1521D03*
X1808Y1521D03*
X1708Y1521D03*
X1608Y1521D03*
X1508Y1521D03*
X1408Y1521D03*
X1308Y1521D03*
X1208Y1521D03*
X1108Y1521D03*
X1008Y1521D03*
X908Y1521D03*
X808Y1521D03*
X708Y1521D03*
X608Y1521D03*
X508Y1521D03*
X608Y3121D03*
X708Y3121D03*
X808Y3121D03*
X1608Y3121D03*
X1708Y3121D03*
X1808Y3121D03*
X1608Y2921D03*
X1708Y2921D03*
X1808Y2921D03*
X608Y2921D03*
X708Y2921D03*
X808Y2921D03*
G54D11*
X408Y3021D03*
G54D10*
X1908Y2721D03*
X1808Y2721D03*
X1708Y2721D03*
X1608Y2721D03*
X1508Y2721D03*
X1408Y2721D03*
X1308Y2721D03*
X1208Y2721D03*
X1108Y2721D03*
X1008Y2721D03*
X908Y2721D03*
X808Y2721D03*
X708Y2721D03*
X608Y2721D03*
X508Y2721D03*
X1908Y2621D03*
X1808Y2621D03*
X1708Y2621D03*
X1608Y2621D03*
X1508Y2621D03*
X1408Y2621D03*
X1308Y2621D03*
X1208Y2621D03*
X1108Y2621D03*
X1008Y2621D03*
X908Y2621D03*
X808Y2621D03*
X708Y2621D03*
X608Y2621D03*
X508Y2621D03*
G54D12*
X908Y1479D02*
X908Y1420D01*
D02*
X908Y2579D02*
X908Y2520D01*
D02*
X908Y379D02*
X908Y320D01*
D02*
X908Y1420D02*
X408Y1420D01*
D02*
X908Y2520D02*
X408Y2520D01*
D02*
X908Y320D02*
X408Y320D01*
D02*
X408Y2520D02*
X408Y2820D01*
D02*
X408Y1420D02*
X408Y1720D01*
D02*
X408Y320D02*
X408Y620D01*
D02*
X408Y620D02*
X808Y620D01*
D02*
X408Y1720D02*
X808Y1720D01*
D02*
X408Y2820D02*
X808Y2820D01*
D02*
X808Y2820D02*
X808Y2879D01*
D02*
X808Y1720D02*
X808Y1779D01*
D02*
X808Y620D02*
X808Y679D01*
D02*
X1608Y1979D02*
X1608Y1862D01*
D02*
X1608Y3079D02*
X1608Y2962D01*
D02*
X1608Y879D02*
X1608Y762D01*
D02*
X1708Y3079D02*
X1708Y2962D01*
D02*
X1708Y1979D02*
X1708Y1862D01*
D02*
X1708Y879D02*
X1708Y762D01*
D02*
X708Y3079D02*
X708Y2962D01*
D02*
X708Y879D02*
X708Y762D01*
D02*
X708Y1979D02*
X708Y1862D01*
D02*
X448Y821D02*
X709Y820D01*
D02*
X709Y820D02*
X708Y879D01*
D02*
X908Y562D02*
X908Y620D01*
D02*
X908Y620D02*
X908Y1021D01*
D02*
X908Y1021D02*
X608Y1021D01*
D02*
X608Y1021D02*
X608Y962D01*
D02*
X1808Y3079D02*
X1808Y2962D01*
D02*
X1808Y879D02*
X1808Y762D01*
D02*
X1808Y1979D02*
X1808Y1862D01*
D02*
X706Y1922D02*
X708Y1991D01*
D02*
X437Y1921D02*
X706Y1922D01*
D02*
X437Y3021D02*
X706Y3021D01*
D02*
X706Y3021D02*
X708Y3091D01*
D02*
X608Y3222D02*
X608Y3151D01*
D02*
X908Y2751D02*
X907Y3222D01*
D02*
X907Y3222D02*
X608Y3222D01*
G04 End of Copper1*
M02*