M48
INCH
T10C0.038000
T11C0.035433
%
T10
X018080Y031206
X017080Y031206
X016080Y031206
X008080Y031206
X007080Y031206
X006080Y031206
X018080Y020206
X017080Y020206
X016080Y020206
X008080Y020206
X007080Y020206
X006080Y020206
X005080Y004206
X006080Y004206
X007080Y004206
X008080Y004206
X009080Y004206
X010080Y004206
X011080Y004206
X012080Y004206
X013080Y004206
X014080Y004206
X015080Y004206
X016080Y004206
X017080Y004206
X018080Y004206
X019080Y004206
X005080Y015206
X006080Y015206
X007080Y015206
X008080Y015206
X009080Y015206
X010080Y015206
X011080Y015206
X012080Y015206
X013080Y015206
X014080Y015206
X015080Y015206
X016080Y015206
X017080Y015206
X018080Y015206
X019080Y015206
X005080Y026206
X006080Y026206
X007080Y026206
X008080Y026206
X009080Y026206
X010080Y026206
X011080Y026206
X012080Y026206
X013080Y026206
X014080Y026206
X015080Y026206
X016080Y026206
X017080Y026206
X018080Y026206
X019080Y026206
X005080Y005206
X006080Y005206
X007080Y005206
X008080Y005206
X009080Y005206
X010080Y005206
X011080Y005206
X012080Y005206
X013080Y005206
X014080Y005206
X015080Y005206
X016080Y005206
X017080Y005206
X018080Y005206
X019080Y005206
X005080Y016206
X006080Y016206
X007080Y016206
X008080Y016206
X009080Y016206
X010080Y016206
X011080Y016206
X012080Y016206
X013080Y016206
X014080Y016206
X015080Y016206
X016080Y016206
X017080Y016206
X018080Y016206
X019080Y016206
X005080Y027206
X006080Y027206
X007080Y027206
X008080Y027206
X009080Y027206
X010080Y027206
X011080Y027206
X012080Y027206
X013080Y027206
X014080Y027206
X015080Y027206
X016080Y027206
X017080Y027206
X018080Y027206
X019080Y027206
X008080Y018206
X007080Y018206
X006080Y018206
X008080Y029206
X007080Y029206
X006080Y029206
X008080Y007206
X007080Y007206
X006080Y007206
X018080Y018206
X017080Y018206
X016080Y018206
X018080Y029206
X017080Y029206
X016080Y029206
X018080Y007206
X017080Y007206
X016080Y007206
X018080Y009206
X017080Y009206
X016080Y009206
X008080Y009206
X007080Y009206
X006080Y009206
T11
X004080Y008206
X004080Y030206
X004080Y019206
T00
M30
