G04 MADE WITH FRITZING*
G04 WWW.FRITZING.ORG*
G04 DOUBLE SIDED*
G04 HOLES PLATED*
G04 CONTOUR ON CENTER OF CONTOUR VECTOR*
%ASAXBY*%
%FSLAX23Y23*%
%MOIN*%
%OFA0B0*%
%SFA1.0B1.0*%
%ADD10R,2.755910X3.937010X2.739910X3.921010*%
%ADD11C,0.008000*%
%ADD12C,0.010000*%
%ADD13C,0.005000*%
%LNSILK0*%
G90*
G70*
G54D11*
X4Y3933D02*
X2752Y3933D01*
X2752Y4D01*
X4Y4D01*
X4Y3933D01*
D02*
G54D12*
X1958Y471D02*
X458Y471D01*
D02*
X458Y471D02*
X458Y571D01*
D02*
X458Y571D02*
X1958Y571D01*
D02*
X1958Y571D02*
X1958Y471D01*
G54D13*
D02*
X1923Y471D02*
X1958Y506D01*
G54D12*
D02*
X1958Y371D02*
X458Y371D01*
D02*
X458Y371D02*
X458Y471D01*
D02*
X458Y471D02*
X1958Y471D01*
D02*
X1958Y471D02*
X1958Y371D01*
G54D13*
D02*
X1923Y371D02*
X1958Y406D01*
G54D12*
D02*
X1958Y1571D02*
X458Y1571D01*
D02*
X458Y1571D02*
X458Y1671D01*
D02*
X458Y1671D02*
X1958Y1671D01*
D02*
X1958Y1671D02*
X1958Y1571D01*
G54D13*
D02*
X1923Y1571D02*
X1958Y1606D01*
G54D12*
D02*
X1958Y1471D02*
X458Y1471D01*
D02*
X458Y1471D02*
X458Y1571D01*
D02*
X458Y1571D02*
X1958Y1571D01*
D02*
X1958Y1571D02*
X1958Y1471D01*
G54D13*
D02*
X1923Y1471D02*
X1958Y1506D01*
G54D12*
D02*
X1958Y2671D02*
X458Y2671D01*
D02*
X458Y2671D02*
X458Y2771D01*
D02*
X458Y2771D02*
X1958Y2771D01*
D02*
X1958Y2771D02*
X1958Y2671D01*
G54D13*
D02*
X1923Y2671D02*
X1958Y2706D01*
G54D12*
D02*
X1958Y2571D02*
X458Y2571D01*
D02*
X458Y2571D02*
X458Y2671D01*
D02*
X458Y2671D02*
X1958Y2671D01*
D02*
X1958Y2671D02*
X1958Y2571D01*
G54D13*
D02*
X1923Y2571D02*
X1958Y2606D01*
G04 End of Silk0*
M02*