M48
INCH
T10C0.038000
T11C0.035433
%
T10
X002236Y003495
X003236Y003495
X004236Y003495
X005236Y003495
X006236Y003495
X007236Y003495
X008236Y003495
X009236Y003495
X010236Y003495
X011236Y003495
X012236Y003495
X013236Y003495
X014236Y003495
X015236Y003495
X016236Y003495
X002236Y004495
X003236Y004495
X004236Y004495
X005236Y004495
X006236Y004495
X007236Y004495
X008236Y004495
X009236Y004495
X010236Y004495
X011236Y004495
X012236Y004495
X013236Y004495
X014236Y004495
X015236Y004495
X016236Y004495
X005236Y006495
X004236Y006495
X003236Y006495
X015236Y006495
X014236Y006495
X013236Y006495
X015236Y008495
X014236Y008495
X013236Y008495
X005236Y008495
X004236Y008495
X003236Y008495
T11
X001236Y007495
T00
M30
