G04 MADE WITH FRITZING*
G04 WWW.FRITZING.ORG*
G04 DOUBLE SIDED*
G04 HOLES PLATED*
G04 CONTOUR ON CENTER OF CONTOUR VECTOR*
%ASAXBY*%
%FSLAX23Y23*%
%MOIN*%
%OFA0B0*%
%SFA1.0B1.0*%
%ADD10R,2.755910X3.937010X2.739910X3.921010*%
%ADD11C,0.008000*%
%ADD12C,0.010000*%
%ADD13C,0.005000*%
%ADD14R,0.001000X0.001000*%
%LNSILK1*%
G90*
G70*
G54D11*
X4Y3933D02*
X2752Y3933D01*
X2752Y4D01*
X4Y4D01*
X4Y3933D01*
D02*
G54D12*
X558Y871D02*
X858Y871D01*
D02*
X858Y871D02*
X858Y971D01*
D02*
X858Y971D02*
X558Y971D01*
D02*
X558Y971D02*
X558Y871D01*
G54D13*
D02*
X593Y871D02*
X558Y906D01*
G54D12*
D02*
X1558Y871D02*
X1858Y871D01*
D02*
X1858Y871D02*
X1858Y971D01*
D02*
X1858Y971D02*
X1558Y971D01*
D02*
X1558Y971D02*
X1558Y871D01*
G54D13*
D02*
X1593Y871D02*
X1558Y906D01*
G54D12*
D02*
X1558Y671D02*
X1858Y671D01*
D02*
X1858Y671D02*
X1858Y771D01*
D02*
X1858Y771D02*
X1558Y771D01*
D02*
X1558Y771D02*
X1558Y671D01*
G54D13*
D02*
X1593Y671D02*
X1558Y706D01*
G54D12*
D02*
X558Y671D02*
X858Y671D01*
D02*
X858Y671D02*
X858Y771D01*
D02*
X858Y771D02*
X558Y771D01*
D02*
X558Y771D02*
X558Y671D01*
G54D13*
D02*
X593Y671D02*
X558Y706D01*
G54D12*
D02*
X558Y1971D02*
X858Y1971D01*
D02*
X858Y1971D02*
X858Y2071D01*
D02*
X858Y2071D02*
X558Y2071D01*
D02*
X558Y2071D02*
X558Y1971D01*
G54D13*
D02*
X593Y1971D02*
X558Y2006D01*
G54D12*
D02*
X1558Y1971D02*
X1858Y1971D01*
D02*
X1858Y1971D02*
X1858Y2071D01*
D02*
X1858Y2071D02*
X1558Y2071D01*
D02*
X1558Y2071D02*
X1558Y1971D01*
G54D13*
D02*
X1593Y1971D02*
X1558Y2006D01*
G54D12*
D02*
X1558Y1771D02*
X1858Y1771D01*
D02*
X1858Y1771D02*
X1858Y1871D01*
D02*
X1858Y1871D02*
X1558Y1871D01*
D02*
X1558Y1871D02*
X1558Y1771D01*
G54D13*
D02*
X1593Y1771D02*
X1558Y1806D01*
G54D12*
D02*
X558Y1771D02*
X858Y1771D01*
D02*
X858Y1771D02*
X858Y1871D01*
D02*
X858Y1871D02*
X558Y1871D01*
D02*
X558Y1871D02*
X558Y1771D01*
G54D13*
D02*
X593Y1771D02*
X558Y1806D01*
G54D12*
D02*
X558Y3071D02*
X858Y3071D01*
D02*
X858Y3071D02*
X858Y3171D01*
D02*
X858Y3171D02*
X558Y3171D01*
D02*
X558Y3171D02*
X558Y3071D01*
G54D13*
D02*
X593Y3071D02*
X558Y3106D01*
G54D12*
D02*
X1558Y3071D02*
X1858Y3071D01*
D02*
X1858Y3071D02*
X1858Y3171D01*
D02*
X1858Y3171D02*
X1558Y3171D01*
D02*
X1558Y3171D02*
X1558Y3071D01*
G54D13*
D02*
X1593Y3071D02*
X1558Y3106D01*
G54D12*
D02*
X1558Y2871D02*
X1858Y2871D01*
D02*
X1858Y2871D02*
X1858Y2971D01*
D02*
X1858Y2971D02*
X1558Y2971D01*
D02*
X1558Y2971D02*
X1558Y2871D01*
G54D13*
D02*
X1593Y2871D02*
X1558Y2906D01*
G54D12*
D02*
X558Y2871D02*
X858Y2871D01*
D02*
X858Y2871D02*
X858Y2971D01*
D02*
X858Y2971D02*
X558Y2971D01*
D02*
X558Y2971D02*
X558Y2871D01*
G54D13*
D02*
X593Y2871D02*
X558Y2906D01*
G54D14*
X771Y3266D02*
X774Y3266D01*
X811Y3266D02*
X814Y3266D01*
X843Y3266D02*
X882Y3266D01*
X770Y3265D02*
X776Y3265D01*
X810Y3265D02*
X816Y3265D01*
X842Y3265D02*
X884Y3265D01*
X769Y3264D02*
X777Y3264D01*
X809Y3264D02*
X816Y3264D01*
X841Y3264D02*
X886Y3264D01*
X1762Y3264D02*
X1767Y3264D01*
X1802Y3264D02*
X1806Y3264D01*
X568Y3263D02*
X568Y3263D01*
X607Y3263D02*
X608Y3263D01*
X639Y3263D02*
X664Y3263D01*
X769Y3263D02*
X777Y3263D01*
X808Y3263D02*
X817Y3263D01*
X841Y3263D02*
X887Y3263D01*
X1761Y3263D02*
X1768Y3263D01*
X1801Y3263D02*
X1807Y3263D01*
X565Y3262D02*
X570Y3262D01*
X605Y3262D02*
X610Y3262D01*
X637Y3262D02*
X664Y3262D01*
X769Y3262D02*
X778Y3262D01*
X808Y3262D02*
X817Y3262D01*
X840Y3262D02*
X887Y3262D01*
X1761Y3262D02*
X1768Y3262D01*
X1800Y3262D02*
X1808Y3262D01*
X564Y3261D02*
X571Y3261D01*
X604Y3261D02*
X611Y3261D01*
X636Y3261D02*
X664Y3261D01*
X768Y3261D02*
X778Y3261D01*
X808Y3261D02*
X817Y3261D01*
X840Y3261D02*
X888Y3261D01*
X1760Y3261D02*
X1769Y3261D01*
X1800Y3261D02*
X1809Y3261D01*
X564Y3260D02*
X572Y3260D01*
X603Y3260D02*
X612Y3260D01*
X636Y3260D02*
X664Y3260D01*
X768Y3260D02*
X778Y3260D01*
X808Y3260D02*
X817Y3260D01*
X841Y3260D02*
X889Y3260D01*
X1760Y3260D02*
X1769Y3260D01*
X1800Y3260D02*
X1809Y3260D01*
X563Y3259D02*
X572Y3259D01*
X603Y3259D02*
X612Y3259D01*
X635Y3259D02*
X664Y3259D01*
X768Y3259D02*
X778Y3259D01*
X808Y3259D02*
X817Y3259D01*
X841Y3259D02*
X889Y3259D01*
X1760Y3259D02*
X1769Y3259D01*
X1800Y3259D02*
X1809Y3259D01*
X563Y3258D02*
X572Y3258D01*
X603Y3258D02*
X612Y3258D01*
X635Y3258D02*
X664Y3258D01*
X768Y3258D02*
X778Y3258D01*
X808Y3258D02*
X817Y3258D01*
X842Y3258D02*
X889Y3258D01*
X1760Y3258D02*
X1769Y3258D01*
X1800Y3258D02*
X1809Y3258D01*
X563Y3257D02*
X572Y3257D01*
X603Y3257D02*
X612Y3257D01*
X635Y3257D02*
X664Y3257D01*
X768Y3257D02*
X778Y3257D01*
X808Y3257D02*
X817Y3257D01*
X843Y3257D02*
X889Y3257D01*
X1760Y3257D02*
X1769Y3257D01*
X1800Y3257D02*
X1809Y3257D01*
X563Y3256D02*
X572Y3256D01*
X603Y3256D02*
X612Y3256D01*
X636Y3256D02*
X664Y3256D01*
X768Y3256D02*
X778Y3256D01*
X808Y3256D02*
X817Y3256D01*
X880Y3256D02*
X889Y3256D01*
X1561Y3256D02*
X1564Y3256D01*
X1601Y3256D02*
X1604Y3256D01*
X1760Y3256D02*
X1769Y3256D01*
X1800Y3256D02*
X1809Y3256D01*
X563Y3255D02*
X572Y3255D01*
X603Y3255D02*
X612Y3255D01*
X636Y3255D02*
X664Y3255D01*
X768Y3255D02*
X778Y3255D01*
X808Y3255D02*
X817Y3255D01*
X880Y3255D02*
X889Y3255D01*
X1560Y3255D02*
X1566Y3255D01*
X1600Y3255D02*
X1605Y3255D01*
X1760Y3255D02*
X1769Y3255D01*
X1800Y3255D02*
X1809Y3255D01*
X563Y3254D02*
X572Y3254D01*
X603Y3254D02*
X612Y3254D01*
X637Y3254D02*
X664Y3254D01*
X768Y3254D02*
X778Y3254D01*
X808Y3254D02*
X817Y3254D01*
X880Y3254D02*
X889Y3254D01*
X1559Y3254D02*
X1567Y3254D01*
X1599Y3254D02*
X1606Y3254D01*
X1760Y3254D02*
X1769Y3254D01*
X1800Y3254D02*
X1809Y3254D01*
X563Y3253D02*
X572Y3253D01*
X603Y3253D02*
X612Y3253D01*
X640Y3253D02*
X664Y3253D01*
X768Y3253D02*
X778Y3253D01*
X808Y3253D02*
X817Y3253D01*
X880Y3253D02*
X889Y3253D01*
X1559Y3253D02*
X1567Y3253D01*
X1598Y3253D02*
X1607Y3253D01*
X1760Y3253D02*
X1769Y3253D01*
X1800Y3253D02*
X1809Y3253D01*
X563Y3252D02*
X572Y3252D01*
X603Y3252D02*
X612Y3252D01*
X655Y3252D02*
X664Y3252D01*
X768Y3252D02*
X778Y3252D01*
X808Y3252D02*
X817Y3252D01*
X880Y3252D02*
X889Y3252D01*
X1558Y3252D02*
X1567Y3252D01*
X1598Y3252D02*
X1607Y3252D01*
X1760Y3252D02*
X1769Y3252D01*
X1800Y3252D02*
X1809Y3252D01*
X563Y3251D02*
X572Y3251D01*
X603Y3251D02*
X612Y3251D01*
X655Y3251D02*
X664Y3251D01*
X768Y3251D02*
X778Y3251D01*
X808Y3251D02*
X817Y3251D01*
X880Y3251D02*
X889Y3251D01*
X1558Y3251D02*
X1567Y3251D01*
X1598Y3251D02*
X1607Y3251D01*
X1760Y3251D02*
X1769Y3251D01*
X1800Y3251D02*
X1809Y3251D01*
X563Y3250D02*
X572Y3250D01*
X603Y3250D02*
X612Y3250D01*
X655Y3250D02*
X664Y3250D01*
X768Y3250D02*
X778Y3250D01*
X808Y3250D02*
X817Y3250D01*
X880Y3250D02*
X889Y3250D01*
X1558Y3250D02*
X1567Y3250D01*
X1598Y3250D02*
X1607Y3250D01*
X1760Y3250D02*
X1769Y3250D01*
X1800Y3250D02*
X1809Y3250D01*
X563Y3249D02*
X572Y3249D01*
X603Y3249D02*
X612Y3249D01*
X655Y3249D02*
X664Y3249D01*
X768Y3249D02*
X778Y3249D01*
X808Y3249D02*
X817Y3249D01*
X880Y3249D02*
X889Y3249D01*
X1558Y3249D02*
X1567Y3249D01*
X1598Y3249D02*
X1607Y3249D01*
X1760Y3249D02*
X1769Y3249D01*
X1800Y3249D02*
X1809Y3249D01*
X563Y3248D02*
X572Y3248D01*
X603Y3248D02*
X612Y3248D01*
X655Y3248D02*
X664Y3248D01*
X768Y3248D02*
X778Y3248D01*
X808Y3248D02*
X817Y3248D01*
X880Y3248D02*
X889Y3248D01*
X1558Y3248D02*
X1567Y3248D01*
X1598Y3248D02*
X1607Y3248D01*
X1760Y3248D02*
X1769Y3248D01*
X1800Y3248D02*
X1809Y3248D01*
X563Y3247D02*
X572Y3247D01*
X603Y3247D02*
X612Y3247D01*
X655Y3247D02*
X664Y3247D01*
X768Y3247D02*
X778Y3247D01*
X808Y3247D02*
X817Y3247D01*
X880Y3247D02*
X889Y3247D01*
X1558Y3247D02*
X1567Y3247D01*
X1598Y3247D02*
X1607Y3247D01*
X1760Y3247D02*
X1769Y3247D01*
X1800Y3247D02*
X1809Y3247D01*
X563Y3246D02*
X572Y3246D01*
X603Y3246D02*
X612Y3246D01*
X655Y3246D02*
X664Y3246D01*
X768Y3246D02*
X778Y3246D01*
X808Y3246D02*
X817Y3246D01*
X880Y3246D02*
X889Y3246D01*
X1558Y3246D02*
X1567Y3246D01*
X1598Y3246D02*
X1607Y3246D01*
X1760Y3246D02*
X1769Y3246D01*
X1800Y3246D02*
X1809Y3246D01*
X563Y3245D02*
X572Y3245D01*
X603Y3245D02*
X612Y3245D01*
X655Y3245D02*
X664Y3245D01*
X768Y3245D02*
X778Y3245D01*
X808Y3245D02*
X817Y3245D01*
X880Y3245D02*
X889Y3245D01*
X1558Y3245D02*
X1567Y3245D01*
X1598Y3245D02*
X1607Y3245D01*
X1760Y3245D02*
X1769Y3245D01*
X1800Y3245D02*
X1809Y3245D01*
X563Y3244D02*
X572Y3244D01*
X603Y3244D02*
X612Y3244D01*
X655Y3244D02*
X664Y3244D01*
X768Y3244D02*
X778Y3244D01*
X808Y3244D02*
X817Y3244D01*
X880Y3244D02*
X889Y3244D01*
X1558Y3244D02*
X1567Y3244D01*
X1598Y3244D02*
X1607Y3244D01*
X1760Y3244D02*
X1769Y3244D01*
X1800Y3244D02*
X1809Y3244D01*
X563Y3243D02*
X572Y3243D01*
X603Y3243D02*
X612Y3243D01*
X655Y3243D02*
X664Y3243D01*
X768Y3243D02*
X778Y3243D01*
X808Y3243D02*
X817Y3243D01*
X880Y3243D02*
X889Y3243D01*
X1558Y3243D02*
X1567Y3243D01*
X1598Y3243D02*
X1607Y3243D01*
X1760Y3243D02*
X1769Y3243D01*
X1799Y3243D02*
X1809Y3243D01*
X563Y3242D02*
X572Y3242D01*
X603Y3242D02*
X612Y3242D01*
X655Y3242D02*
X664Y3242D01*
X768Y3242D02*
X778Y3242D01*
X808Y3242D02*
X817Y3242D01*
X880Y3242D02*
X889Y3242D01*
X1558Y3242D02*
X1567Y3242D01*
X1598Y3242D02*
X1607Y3242D01*
X1654Y3242D02*
X1656Y3242D01*
X1760Y3242D02*
X1770Y3242D01*
X1799Y3242D02*
X1809Y3242D01*
X563Y3241D02*
X572Y3241D01*
X603Y3241D02*
X612Y3241D01*
X655Y3241D02*
X664Y3241D01*
X768Y3241D02*
X778Y3241D01*
X808Y3241D02*
X817Y3241D01*
X880Y3241D02*
X889Y3241D01*
X1558Y3241D02*
X1567Y3241D01*
X1598Y3241D02*
X1607Y3241D01*
X1652Y3241D02*
X1657Y3241D01*
X1760Y3241D02*
X1770Y3241D01*
X1799Y3241D02*
X1808Y3241D01*
X563Y3240D02*
X572Y3240D01*
X603Y3240D02*
X612Y3240D01*
X655Y3240D02*
X664Y3240D01*
X768Y3240D02*
X778Y3240D01*
X790Y3240D02*
X795Y3240D01*
X808Y3240D02*
X817Y3240D01*
X880Y3240D02*
X889Y3240D01*
X1558Y3240D02*
X1567Y3240D01*
X1598Y3240D02*
X1607Y3240D01*
X1651Y3240D02*
X1658Y3240D01*
X1761Y3240D02*
X1770Y3240D01*
X1798Y3240D02*
X1808Y3240D01*
X563Y3239D02*
X572Y3239D01*
X603Y3239D02*
X612Y3239D01*
X655Y3239D02*
X664Y3239D01*
X768Y3239D02*
X778Y3239D01*
X789Y3239D02*
X796Y3239D01*
X808Y3239D02*
X817Y3239D01*
X880Y3239D02*
X889Y3239D01*
X1558Y3239D02*
X1567Y3239D01*
X1598Y3239D02*
X1607Y3239D01*
X1650Y3239D02*
X1659Y3239D01*
X1761Y3239D02*
X1771Y3239D01*
X1798Y3239D02*
X1808Y3239D01*
X563Y3238D02*
X572Y3238D01*
X603Y3238D02*
X612Y3238D01*
X655Y3238D02*
X664Y3238D01*
X768Y3238D02*
X778Y3238D01*
X789Y3238D02*
X797Y3238D01*
X808Y3238D02*
X817Y3238D01*
X880Y3238D02*
X889Y3238D01*
X1558Y3238D02*
X1567Y3238D01*
X1598Y3238D02*
X1607Y3238D01*
X1650Y3238D02*
X1659Y3238D01*
X1761Y3238D02*
X1771Y3238D01*
X1797Y3238D02*
X1807Y3238D01*
X563Y3237D02*
X572Y3237D01*
X586Y3237D02*
X590Y3237D01*
X603Y3237D02*
X612Y3237D01*
X655Y3237D02*
X664Y3237D01*
X768Y3237D02*
X778Y3237D01*
X788Y3237D02*
X797Y3237D01*
X808Y3237D02*
X817Y3237D01*
X880Y3237D02*
X889Y3237D01*
X1558Y3237D02*
X1567Y3237D01*
X1598Y3237D02*
X1607Y3237D01*
X1650Y3237D02*
X1659Y3237D01*
X1762Y3237D02*
X1772Y3237D01*
X1797Y3237D02*
X1807Y3237D01*
X563Y3236D02*
X572Y3236D01*
X585Y3236D02*
X591Y3236D01*
X603Y3236D02*
X612Y3236D01*
X655Y3236D02*
X664Y3236D01*
X768Y3236D02*
X778Y3236D01*
X788Y3236D02*
X797Y3236D01*
X808Y3236D02*
X817Y3236D01*
X880Y3236D02*
X889Y3236D01*
X1558Y3236D02*
X1567Y3236D01*
X1598Y3236D02*
X1607Y3236D01*
X1650Y3236D02*
X1659Y3236D01*
X1762Y3236D02*
X1772Y3236D01*
X1797Y3236D02*
X1807Y3236D01*
X563Y3235D02*
X572Y3235D01*
X584Y3235D02*
X592Y3235D01*
X603Y3235D02*
X612Y3235D01*
X655Y3235D02*
X664Y3235D01*
X768Y3235D02*
X778Y3235D01*
X788Y3235D02*
X797Y3235D01*
X808Y3235D02*
X817Y3235D01*
X880Y3235D02*
X889Y3235D01*
X1558Y3235D02*
X1567Y3235D01*
X1598Y3235D02*
X1607Y3235D01*
X1650Y3235D02*
X1659Y3235D01*
X1763Y3235D02*
X1772Y3235D01*
X1796Y3235D02*
X1806Y3235D01*
X563Y3234D02*
X572Y3234D01*
X583Y3234D02*
X592Y3234D01*
X603Y3234D02*
X612Y3234D01*
X655Y3234D02*
X664Y3234D01*
X768Y3234D02*
X778Y3234D01*
X788Y3234D02*
X797Y3234D01*
X808Y3234D02*
X817Y3234D01*
X880Y3234D02*
X889Y3234D01*
X1558Y3234D02*
X1568Y3234D01*
X1597Y3234D02*
X1607Y3234D01*
X1650Y3234D02*
X1659Y3234D01*
X1763Y3234D02*
X1773Y3234D01*
X1796Y3234D02*
X1806Y3234D01*
X563Y3233D02*
X572Y3233D01*
X583Y3233D02*
X592Y3233D01*
X603Y3233D02*
X612Y3233D01*
X655Y3233D02*
X664Y3233D01*
X768Y3233D02*
X778Y3233D01*
X788Y3233D02*
X797Y3233D01*
X808Y3233D02*
X817Y3233D01*
X880Y3233D02*
X889Y3233D01*
X1558Y3233D02*
X1568Y3233D01*
X1597Y3233D02*
X1607Y3233D01*
X1650Y3233D02*
X1659Y3233D01*
X1763Y3233D02*
X1773Y3233D01*
X1795Y3233D02*
X1805Y3233D01*
X563Y3232D02*
X572Y3232D01*
X583Y3232D02*
X592Y3232D01*
X603Y3232D02*
X612Y3232D01*
X655Y3232D02*
X664Y3232D01*
X768Y3232D02*
X778Y3232D01*
X788Y3232D02*
X797Y3232D01*
X808Y3232D02*
X817Y3232D01*
X848Y3232D02*
X889Y3232D01*
X1559Y3232D02*
X1569Y3232D01*
X1597Y3232D02*
X1607Y3232D01*
X1650Y3232D02*
X1659Y3232D01*
X1764Y3232D02*
X1774Y3232D01*
X1795Y3232D02*
X1805Y3232D01*
X563Y3231D02*
X572Y3231D01*
X583Y3231D02*
X592Y3231D01*
X603Y3231D02*
X612Y3231D01*
X655Y3231D02*
X664Y3231D01*
X768Y3231D02*
X778Y3231D01*
X788Y3231D02*
X797Y3231D01*
X808Y3231D02*
X817Y3231D01*
X845Y3231D02*
X889Y3231D01*
X1559Y3231D02*
X1569Y3231D01*
X1596Y3231D02*
X1606Y3231D01*
X1650Y3231D02*
X1659Y3231D01*
X1764Y3231D02*
X1774Y3231D01*
X1795Y3231D02*
X1805Y3231D01*
X563Y3230D02*
X572Y3230D01*
X583Y3230D02*
X592Y3230D01*
X603Y3230D02*
X612Y3230D01*
X655Y3230D02*
X664Y3230D01*
X768Y3230D02*
X778Y3230D01*
X788Y3230D02*
X797Y3230D01*
X808Y3230D02*
X817Y3230D01*
X844Y3230D02*
X889Y3230D01*
X1560Y3230D02*
X1569Y3230D01*
X1596Y3230D02*
X1606Y3230D01*
X1650Y3230D02*
X1659Y3230D01*
X1764Y3230D02*
X1774Y3230D01*
X1794Y3230D02*
X1804Y3230D01*
X1834Y3230D02*
X1878Y3230D01*
X563Y3229D02*
X572Y3229D01*
X583Y3229D02*
X592Y3229D01*
X603Y3229D02*
X612Y3229D01*
X655Y3229D02*
X664Y3229D01*
X768Y3229D02*
X778Y3229D01*
X788Y3229D02*
X797Y3229D01*
X808Y3229D02*
X817Y3229D01*
X843Y3229D02*
X889Y3229D01*
X1560Y3229D02*
X1570Y3229D01*
X1596Y3229D02*
X1605Y3229D01*
X1650Y3229D02*
X1659Y3229D01*
X1765Y3229D02*
X1775Y3229D01*
X1794Y3229D02*
X1804Y3229D01*
X1833Y3229D02*
X1880Y3229D01*
X563Y3228D02*
X572Y3228D01*
X583Y3228D02*
X592Y3228D01*
X603Y3228D02*
X612Y3228D01*
X655Y3228D02*
X664Y3228D01*
X768Y3228D02*
X778Y3228D01*
X788Y3228D02*
X797Y3228D01*
X808Y3228D02*
X817Y3228D01*
X842Y3228D02*
X888Y3228D01*
X1560Y3228D02*
X1570Y3228D01*
X1595Y3228D02*
X1605Y3228D01*
X1650Y3228D02*
X1659Y3228D01*
X1765Y3228D02*
X1775Y3228D01*
X1794Y3228D02*
X1803Y3228D01*
X1832Y3228D02*
X1880Y3228D01*
X563Y3227D02*
X572Y3227D01*
X583Y3227D02*
X592Y3227D01*
X603Y3227D02*
X612Y3227D01*
X655Y3227D02*
X664Y3227D01*
X768Y3227D02*
X778Y3227D01*
X788Y3227D02*
X797Y3227D01*
X808Y3227D02*
X817Y3227D01*
X842Y3227D02*
X888Y3227D01*
X1561Y3227D02*
X1571Y3227D01*
X1595Y3227D02*
X1605Y3227D01*
X1650Y3227D02*
X1659Y3227D01*
X1766Y3227D02*
X1776Y3227D01*
X1793Y3227D02*
X1803Y3227D01*
X1832Y3227D02*
X1881Y3227D01*
X563Y3226D02*
X572Y3226D01*
X583Y3226D02*
X592Y3226D01*
X603Y3226D02*
X612Y3226D01*
X655Y3226D02*
X664Y3226D01*
X768Y3226D02*
X778Y3226D01*
X788Y3226D02*
X797Y3226D01*
X808Y3226D02*
X817Y3226D01*
X841Y3226D02*
X887Y3226D01*
X1561Y3226D02*
X1571Y3226D01*
X1594Y3226D02*
X1604Y3226D01*
X1650Y3226D02*
X1659Y3226D01*
X1766Y3226D02*
X1776Y3226D01*
X1793Y3226D02*
X1803Y3226D01*
X1832Y3226D02*
X1881Y3226D01*
X563Y3225D02*
X572Y3225D01*
X583Y3225D02*
X592Y3225D01*
X603Y3225D02*
X612Y3225D01*
X655Y3225D02*
X664Y3225D01*
X768Y3225D02*
X778Y3225D01*
X788Y3225D02*
X797Y3225D01*
X808Y3225D02*
X817Y3225D01*
X841Y3225D02*
X886Y3225D01*
X1561Y3225D02*
X1571Y3225D01*
X1594Y3225D02*
X1604Y3225D01*
X1650Y3225D02*
X1659Y3225D01*
X1766Y3225D02*
X1776Y3225D01*
X1792Y3225D02*
X1802Y3225D01*
X1832Y3225D02*
X1881Y3225D01*
X563Y3224D02*
X572Y3224D01*
X583Y3224D02*
X592Y3224D01*
X603Y3224D02*
X612Y3224D01*
X655Y3224D02*
X664Y3224D01*
X768Y3224D02*
X778Y3224D01*
X788Y3224D02*
X797Y3224D01*
X808Y3224D02*
X817Y3224D01*
X841Y3224D02*
X885Y3224D01*
X1562Y3224D02*
X1572Y3224D01*
X1594Y3224D02*
X1603Y3224D01*
X1650Y3224D02*
X1659Y3224D01*
X1767Y3224D02*
X1777Y3224D01*
X1792Y3224D02*
X1802Y3224D01*
X1832Y3224D02*
X1881Y3224D01*
X563Y3223D02*
X572Y3223D01*
X583Y3223D02*
X592Y3223D01*
X603Y3223D02*
X612Y3223D01*
X655Y3223D02*
X664Y3223D01*
X768Y3223D02*
X778Y3223D01*
X788Y3223D02*
X797Y3223D01*
X808Y3223D02*
X817Y3223D01*
X840Y3223D02*
X883Y3223D01*
X1562Y3223D02*
X1572Y3223D01*
X1593Y3223D02*
X1603Y3223D01*
X1650Y3223D02*
X1659Y3223D01*
X1767Y3223D02*
X1777Y3223D01*
X1792Y3223D02*
X1801Y3223D01*
X1832Y3223D02*
X1881Y3223D01*
X563Y3222D02*
X572Y3222D01*
X583Y3222D02*
X592Y3222D01*
X603Y3222D02*
X612Y3222D01*
X655Y3222D02*
X664Y3222D01*
X768Y3222D02*
X778Y3222D01*
X788Y3222D02*
X797Y3222D01*
X808Y3222D02*
X817Y3222D01*
X840Y3222D02*
X850Y3222D01*
X1563Y3222D02*
X1573Y3222D01*
X1593Y3222D02*
X1603Y3222D01*
X1633Y3222D02*
X1676Y3222D01*
X1768Y3222D02*
X1778Y3222D01*
X1791Y3222D02*
X1801Y3222D01*
X1832Y3222D02*
X1881Y3222D01*
X563Y3221D02*
X572Y3221D01*
X583Y3221D02*
X592Y3221D01*
X603Y3221D02*
X612Y3221D01*
X655Y3221D02*
X664Y3221D01*
X768Y3221D02*
X778Y3221D01*
X788Y3221D02*
X797Y3221D01*
X808Y3221D02*
X817Y3221D01*
X840Y3221D02*
X850Y3221D01*
X1563Y3221D02*
X1573Y3221D01*
X1592Y3221D02*
X1602Y3221D01*
X1632Y3221D02*
X1677Y3221D01*
X1768Y3221D02*
X1778Y3221D01*
X1791Y3221D02*
X1801Y3221D01*
X1832Y3221D02*
X1881Y3221D01*
X563Y3220D02*
X572Y3220D01*
X583Y3220D02*
X592Y3220D01*
X603Y3220D02*
X612Y3220D01*
X655Y3220D02*
X664Y3220D01*
X678Y3220D02*
X681Y3220D01*
X768Y3220D02*
X778Y3220D01*
X788Y3220D02*
X797Y3220D01*
X808Y3220D02*
X817Y3220D01*
X840Y3220D02*
X850Y3220D01*
X1563Y3220D02*
X1573Y3220D01*
X1592Y3220D02*
X1602Y3220D01*
X1631Y3220D02*
X1678Y3220D01*
X1768Y3220D02*
X1778Y3220D01*
X1790Y3220D02*
X1800Y3220D01*
X1832Y3220D02*
X1880Y3220D01*
X563Y3219D02*
X572Y3219D01*
X583Y3219D02*
X592Y3219D01*
X603Y3219D02*
X612Y3219D01*
X655Y3219D02*
X664Y3219D01*
X676Y3219D02*
X683Y3219D01*
X768Y3219D02*
X778Y3219D01*
X788Y3219D02*
X797Y3219D01*
X808Y3219D02*
X817Y3219D01*
X840Y3219D02*
X850Y3219D01*
X1564Y3219D02*
X1574Y3219D01*
X1592Y3219D02*
X1601Y3219D01*
X1631Y3219D02*
X1679Y3219D01*
X1769Y3219D02*
X1779Y3219D01*
X1790Y3219D02*
X1800Y3219D01*
X1833Y3219D02*
X1880Y3219D01*
X563Y3218D02*
X572Y3218D01*
X583Y3218D02*
X592Y3218D01*
X603Y3218D02*
X612Y3218D01*
X655Y3218D02*
X664Y3218D01*
X676Y3218D02*
X683Y3218D01*
X768Y3218D02*
X778Y3218D01*
X788Y3218D02*
X797Y3218D01*
X808Y3218D02*
X817Y3218D01*
X840Y3218D02*
X850Y3218D01*
X1564Y3218D02*
X1574Y3218D01*
X1591Y3218D02*
X1601Y3218D01*
X1630Y3218D02*
X1679Y3218D01*
X1769Y3218D02*
X1779Y3218D01*
X1790Y3218D02*
X1800Y3218D01*
X1833Y3218D02*
X1879Y3218D01*
X563Y3217D02*
X572Y3217D01*
X583Y3217D02*
X592Y3217D01*
X603Y3217D02*
X612Y3217D01*
X655Y3217D02*
X664Y3217D01*
X675Y3217D02*
X684Y3217D01*
X768Y3217D02*
X778Y3217D01*
X788Y3217D02*
X797Y3217D01*
X808Y3217D02*
X817Y3217D01*
X840Y3217D02*
X850Y3217D01*
X1565Y3217D02*
X1575Y3217D01*
X1591Y3217D02*
X1601Y3217D01*
X1630Y3217D02*
X1679Y3217D01*
X1770Y3217D02*
X1779Y3217D01*
X1789Y3217D02*
X1799Y3217D01*
X1835Y3217D02*
X1878Y3217D01*
X563Y3216D02*
X572Y3216D01*
X583Y3216D02*
X592Y3216D01*
X603Y3216D02*
X612Y3216D01*
X655Y3216D02*
X664Y3216D01*
X675Y3216D02*
X684Y3216D01*
X768Y3216D02*
X778Y3216D01*
X788Y3216D02*
X797Y3216D01*
X808Y3216D02*
X817Y3216D01*
X840Y3216D02*
X850Y3216D01*
X1565Y3216D02*
X1575Y3216D01*
X1590Y3216D02*
X1600Y3216D01*
X1630Y3216D02*
X1679Y3216D01*
X1770Y3216D02*
X1780Y3216D01*
X1789Y3216D02*
X1799Y3216D01*
X563Y3215D02*
X572Y3215D01*
X583Y3215D02*
X592Y3215D01*
X603Y3215D02*
X612Y3215D01*
X655Y3215D02*
X664Y3215D01*
X675Y3215D02*
X684Y3215D01*
X768Y3215D02*
X778Y3215D01*
X788Y3215D02*
X797Y3215D01*
X808Y3215D02*
X817Y3215D01*
X840Y3215D02*
X850Y3215D01*
X1565Y3215D02*
X1575Y3215D01*
X1590Y3215D02*
X1600Y3215D01*
X1631Y3215D02*
X1678Y3215D01*
X1770Y3215D02*
X1780Y3215D01*
X1788Y3215D02*
X1798Y3215D01*
X563Y3214D02*
X572Y3214D01*
X583Y3214D02*
X592Y3214D01*
X603Y3214D02*
X612Y3214D01*
X655Y3214D02*
X664Y3214D01*
X675Y3214D02*
X684Y3214D01*
X768Y3214D02*
X778Y3214D01*
X788Y3214D02*
X797Y3214D01*
X808Y3214D02*
X817Y3214D01*
X840Y3214D02*
X850Y3214D01*
X1566Y3214D02*
X1576Y3214D01*
X1590Y3214D02*
X1600Y3214D01*
X1632Y3214D02*
X1678Y3214D01*
X1771Y3214D02*
X1781Y3214D01*
X1788Y3214D02*
X1798Y3214D01*
X563Y3213D02*
X572Y3213D01*
X583Y3213D02*
X592Y3213D01*
X603Y3213D02*
X612Y3213D01*
X655Y3213D02*
X664Y3213D01*
X675Y3213D02*
X684Y3213D01*
X768Y3213D02*
X778Y3213D01*
X788Y3213D02*
X797Y3213D01*
X808Y3213D02*
X817Y3213D01*
X840Y3213D02*
X850Y3213D01*
X1566Y3213D02*
X1576Y3213D01*
X1589Y3213D02*
X1599Y3213D01*
X1633Y3213D02*
X1676Y3213D01*
X1771Y3213D02*
X1781Y3213D01*
X1788Y3213D02*
X1798Y3213D01*
X563Y3212D02*
X572Y3212D01*
X583Y3212D02*
X592Y3212D01*
X603Y3212D02*
X612Y3212D01*
X655Y3212D02*
X664Y3212D01*
X675Y3212D02*
X684Y3212D01*
X768Y3212D02*
X778Y3212D01*
X788Y3212D02*
X797Y3212D01*
X808Y3212D02*
X817Y3212D01*
X840Y3212D02*
X850Y3212D01*
X1567Y3212D02*
X1576Y3212D01*
X1589Y3212D02*
X1599Y3212D01*
X1650Y3212D02*
X1659Y3212D01*
X1771Y3212D02*
X1781Y3212D01*
X1787Y3212D02*
X1797Y3212D01*
X563Y3211D02*
X572Y3211D01*
X583Y3211D02*
X592Y3211D01*
X603Y3211D02*
X612Y3211D01*
X655Y3211D02*
X664Y3211D01*
X675Y3211D02*
X684Y3211D01*
X768Y3211D02*
X778Y3211D01*
X788Y3211D02*
X797Y3211D01*
X808Y3211D02*
X817Y3211D01*
X840Y3211D02*
X850Y3211D01*
X1567Y3211D02*
X1577Y3211D01*
X1588Y3211D02*
X1598Y3211D01*
X1650Y3211D02*
X1659Y3211D01*
X1772Y3211D02*
X1782Y3211D01*
X1787Y3211D02*
X1797Y3211D01*
X563Y3210D02*
X572Y3210D01*
X583Y3210D02*
X592Y3210D01*
X603Y3210D02*
X612Y3210D01*
X655Y3210D02*
X664Y3210D01*
X675Y3210D02*
X684Y3210D01*
X768Y3210D02*
X778Y3210D01*
X788Y3210D02*
X797Y3210D01*
X808Y3210D02*
X817Y3210D01*
X840Y3210D02*
X850Y3210D01*
X1567Y3210D02*
X1577Y3210D01*
X1588Y3210D02*
X1598Y3210D01*
X1650Y3210D02*
X1659Y3210D01*
X1772Y3210D02*
X1782Y3210D01*
X1786Y3210D02*
X1796Y3210D01*
X563Y3209D02*
X572Y3209D01*
X583Y3209D02*
X592Y3209D01*
X603Y3209D02*
X612Y3209D01*
X655Y3209D02*
X664Y3209D01*
X675Y3209D02*
X684Y3209D01*
X768Y3209D02*
X778Y3209D01*
X788Y3209D02*
X797Y3209D01*
X808Y3209D02*
X817Y3209D01*
X840Y3209D02*
X850Y3209D01*
X1568Y3209D02*
X1578Y3209D01*
X1588Y3209D02*
X1598Y3209D01*
X1650Y3209D02*
X1659Y3209D01*
X1773Y3209D02*
X1783Y3209D01*
X1786Y3209D02*
X1796Y3209D01*
X563Y3208D02*
X572Y3208D01*
X583Y3208D02*
X592Y3208D01*
X603Y3208D02*
X612Y3208D01*
X655Y3208D02*
X664Y3208D01*
X675Y3208D02*
X684Y3208D01*
X768Y3208D02*
X778Y3208D01*
X788Y3208D02*
X797Y3208D01*
X808Y3208D02*
X817Y3208D01*
X840Y3208D02*
X850Y3208D01*
X1568Y3208D02*
X1578Y3208D01*
X1587Y3208D02*
X1597Y3208D01*
X1650Y3208D02*
X1659Y3208D01*
X1773Y3208D02*
X1783Y3208D01*
X1786Y3208D02*
X1796Y3208D01*
X563Y3207D02*
X572Y3207D01*
X583Y3207D02*
X592Y3207D01*
X603Y3207D02*
X612Y3207D01*
X655Y3207D02*
X664Y3207D01*
X675Y3207D02*
X684Y3207D01*
X768Y3207D02*
X778Y3207D01*
X788Y3207D02*
X797Y3207D01*
X808Y3207D02*
X817Y3207D01*
X840Y3207D02*
X850Y3207D01*
X1568Y3207D02*
X1578Y3207D01*
X1587Y3207D02*
X1597Y3207D01*
X1650Y3207D02*
X1659Y3207D01*
X1773Y3207D02*
X1783Y3207D01*
X1785Y3207D02*
X1795Y3207D01*
X563Y3206D02*
X572Y3206D01*
X583Y3206D02*
X592Y3206D01*
X603Y3206D02*
X612Y3206D01*
X655Y3206D02*
X664Y3206D01*
X675Y3206D02*
X684Y3206D01*
X768Y3206D02*
X778Y3206D01*
X788Y3206D02*
X797Y3206D01*
X808Y3206D02*
X817Y3206D01*
X840Y3206D02*
X850Y3206D01*
X1569Y3206D02*
X1579Y3206D01*
X1587Y3206D02*
X1596Y3206D01*
X1650Y3206D02*
X1659Y3206D01*
X1774Y3206D02*
X1795Y3206D01*
X563Y3205D02*
X572Y3205D01*
X583Y3205D02*
X592Y3205D01*
X603Y3205D02*
X612Y3205D01*
X655Y3205D02*
X664Y3205D01*
X675Y3205D02*
X684Y3205D01*
X768Y3205D02*
X778Y3205D01*
X788Y3205D02*
X797Y3205D01*
X808Y3205D02*
X817Y3205D01*
X840Y3205D02*
X850Y3205D01*
X1569Y3205D02*
X1579Y3205D01*
X1586Y3205D02*
X1596Y3205D01*
X1650Y3205D02*
X1659Y3205D01*
X1774Y3205D02*
X1794Y3205D01*
X563Y3204D02*
X572Y3204D01*
X583Y3204D02*
X592Y3204D01*
X603Y3204D02*
X612Y3204D01*
X655Y3204D02*
X664Y3204D01*
X675Y3204D02*
X684Y3204D01*
X768Y3204D02*
X778Y3204D01*
X788Y3204D02*
X797Y3204D01*
X808Y3204D02*
X817Y3204D01*
X840Y3204D02*
X850Y3204D01*
X1570Y3204D02*
X1580Y3204D01*
X1586Y3204D02*
X1596Y3204D01*
X1650Y3204D02*
X1659Y3204D01*
X1775Y3204D02*
X1794Y3204D01*
X563Y3203D02*
X572Y3203D01*
X583Y3203D02*
X592Y3203D01*
X603Y3203D02*
X612Y3203D01*
X655Y3203D02*
X664Y3203D01*
X675Y3203D02*
X684Y3203D01*
X768Y3203D02*
X778Y3203D01*
X788Y3203D02*
X798Y3203D01*
X808Y3203D02*
X817Y3203D01*
X840Y3203D02*
X850Y3203D01*
X1570Y3203D02*
X1580Y3203D01*
X1585Y3203D02*
X1595Y3203D01*
X1650Y3203D02*
X1659Y3203D01*
X1775Y3203D02*
X1794Y3203D01*
X563Y3202D02*
X572Y3202D01*
X583Y3202D02*
X592Y3202D01*
X603Y3202D02*
X612Y3202D01*
X655Y3202D02*
X664Y3202D01*
X675Y3202D02*
X684Y3202D01*
X768Y3202D02*
X778Y3202D01*
X787Y3202D02*
X798Y3202D01*
X807Y3202D02*
X817Y3202D01*
X840Y3202D02*
X850Y3202D01*
X1570Y3202D02*
X1580Y3202D01*
X1585Y3202D02*
X1595Y3202D01*
X1650Y3202D02*
X1659Y3202D01*
X1775Y3202D02*
X1793Y3202D01*
X563Y3201D02*
X572Y3201D01*
X583Y3201D02*
X592Y3201D01*
X603Y3201D02*
X612Y3201D01*
X655Y3201D02*
X664Y3201D01*
X675Y3201D02*
X684Y3201D01*
X768Y3201D02*
X779Y3201D01*
X787Y3201D02*
X799Y3201D01*
X807Y3201D02*
X817Y3201D01*
X840Y3201D02*
X850Y3201D01*
X1571Y3201D02*
X1581Y3201D01*
X1585Y3201D02*
X1594Y3201D01*
X1650Y3201D02*
X1659Y3201D01*
X1776Y3201D02*
X1793Y3201D01*
X563Y3200D02*
X572Y3200D01*
X583Y3200D02*
X592Y3200D01*
X603Y3200D02*
X612Y3200D01*
X655Y3200D02*
X664Y3200D01*
X675Y3200D02*
X684Y3200D01*
X769Y3200D02*
X780Y3200D01*
X786Y3200D02*
X799Y3200D01*
X806Y3200D02*
X817Y3200D01*
X840Y3200D02*
X850Y3200D01*
X1571Y3200D02*
X1581Y3200D01*
X1584Y3200D02*
X1594Y3200D01*
X1650Y3200D02*
X1659Y3200D01*
X1776Y3200D02*
X1792Y3200D01*
X563Y3199D02*
X573Y3199D01*
X582Y3199D02*
X593Y3199D01*
X602Y3199D02*
X612Y3199D01*
X655Y3199D02*
X664Y3199D01*
X675Y3199D02*
X684Y3199D01*
X769Y3199D02*
X780Y3199D01*
X786Y3199D02*
X800Y3199D01*
X806Y3199D02*
X816Y3199D01*
X840Y3199D02*
X850Y3199D01*
X1572Y3199D02*
X1582Y3199D01*
X1584Y3199D02*
X1594Y3199D01*
X1650Y3199D02*
X1659Y3199D01*
X1777Y3199D02*
X1792Y3199D01*
X563Y3198D02*
X574Y3198D01*
X582Y3198D02*
X593Y3198D01*
X602Y3198D02*
X612Y3198D01*
X655Y3198D02*
X664Y3198D01*
X675Y3198D02*
X684Y3198D01*
X770Y3198D02*
X816Y3198D01*
X840Y3198D02*
X886Y3198D01*
X1572Y3198D02*
X1593Y3198D01*
X1650Y3198D02*
X1659Y3198D01*
X1777Y3198D02*
X1792Y3198D01*
X563Y3197D02*
X574Y3197D01*
X581Y3197D02*
X594Y3197D01*
X601Y3197D02*
X612Y3197D01*
X655Y3197D02*
X664Y3197D01*
X675Y3197D02*
X684Y3197D01*
X771Y3197D02*
X815Y3197D01*
X840Y3197D02*
X888Y3197D01*
X1572Y3197D02*
X1593Y3197D01*
X1650Y3197D02*
X1659Y3197D01*
X1777Y3197D02*
X1791Y3197D01*
X564Y3196D02*
X575Y3196D01*
X581Y3196D02*
X595Y3196D01*
X601Y3196D02*
X611Y3196D01*
X655Y3196D02*
X664Y3196D01*
X675Y3196D02*
X684Y3196D01*
X771Y3196D02*
X815Y3196D01*
X840Y3196D02*
X889Y3196D01*
X1573Y3196D02*
X1593Y3196D01*
X1650Y3196D02*
X1659Y3196D01*
X1778Y3196D02*
X1791Y3196D01*
X565Y3195D02*
X611Y3195D01*
X639Y3195D02*
X684Y3195D01*
X772Y3195D02*
X814Y3195D01*
X840Y3195D02*
X889Y3195D01*
X1573Y3195D02*
X1592Y3195D01*
X1651Y3195D02*
X1658Y3195D01*
X1778Y3195D02*
X1791Y3195D01*
X565Y3194D02*
X610Y3194D01*
X637Y3194D02*
X684Y3194D01*
X772Y3194D02*
X813Y3194D01*
X840Y3194D02*
X889Y3194D01*
X1574Y3194D02*
X1592Y3194D01*
X1651Y3194D02*
X1658Y3194D01*
X1778Y3194D02*
X1790Y3194D01*
X566Y3193D02*
X610Y3193D01*
X636Y3193D02*
X684Y3193D01*
X773Y3193D02*
X813Y3193D01*
X840Y3193D02*
X889Y3193D01*
X1574Y3193D02*
X1591Y3193D01*
X1653Y3193D02*
X1656Y3193D01*
X1779Y3193D02*
X1790Y3193D01*
X566Y3192D02*
X609Y3192D01*
X636Y3192D02*
X684Y3192D01*
X773Y3192D02*
X812Y3192D01*
X840Y3192D02*
X889Y3192D01*
X1574Y3192D02*
X1591Y3192D01*
X1779Y3192D02*
X1789Y3192D01*
X567Y3191D02*
X608Y3191D01*
X635Y3191D02*
X684Y3191D01*
X774Y3191D02*
X792Y3191D01*
X794Y3191D02*
X812Y3191D01*
X840Y3191D02*
X889Y3191D01*
X1575Y3191D02*
X1591Y3191D01*
X1780Y3191D02*
X1789Y3191D01*
X568Y3190D02*
X608Y3190D01*
X635Y3190D02*
X684Y3190D01*
X775Y3190D02*
X791Y3190D01*
X795Y3190D02*
X811Y3190D01*
X840Y3190D02*
X888Y3190D01*
X1575Y3190D02*
X1590Y3190D01*
X1780Y3190D02*
X1789Y3190D01*
X568Y3189D02*
X607Y3189D01*
X635Y3189D02*
X684Y3189D01*
X776Y3189D02*
X790Y3189D01*
X796Y3189D02*
X810Y3189D01*
X840Y3189D02*
X887Y3189D01*
X1575Y3189D02*
X1590Y3189D01*
X1781Y3189D02*
X1788Y3189D01*
X569Y3188D02*
X587Y3188D01*
X589Y3188D02*
X607Y3188D01*
X636Y3188D02*
X684Y3188D01*
X1576Y3188D02*
X1589Y3188D01*
X1781Y3188D02*
X1787Y3188D01*
X569Y3187D02*
X586Y3187D01*
X589Y3187D02*
X606Y3187D01*
X636Y3187D02*
X683Y3187D01*
X1576Y3187D02*
X1589Y3187D01*
X1783Y3187D02*
X1786Y3187D01*
X570Y3186D02*
X585Y3186D01*
X590Y3186D02*
X605Y3186D01*
X637Y3186D02*
X682Y3186D01*
X1577Y3186D02*
X1589Y3186D01*
X1577Y3185D02*
X1588Y3185D01*
X1577Y3184D02*
X1588Y3184D01*
X1578Y3183D02*
X1587Y3183D01*
X1578Y3182D02*
X1587Y3182D01*
X1579Y3181D02*
X1587Y3181D01*
X1579Y3180D02*
X1586Y3180D01*
X1580Y3179D02*
X1585Y3179D01*
X1325Y2955D02*
X1329Y2955D01*
X1324Y2954D02*
X1330Y2954D01*
X1323Y2953D02*
X1330Y2953D01*
X1323Y2952D02*
X1330Y2952D01*
X1323Y2951D02*
X1330Y2951D01*
X900Y2950D02*
X901Y2950D01*
X1323Y2950D02*
X1330Y2950D01*
X898Y2949D02*
X903Y2949D01*
X1323Y2949D02*
X1330Y2949D01*
X897Y2948D02*
X903Y2948D01*
X1323Y2948D02*
X1330Y2948D01*
X897Y2947D02*
X904Y2947D01*
X1323Y2947D02*
X1330Y2947D01*
X897Y2946D02*
X904Y2946D01*
X1323Y2946D02*
X1330Y2946D01*
X897Y2945D02*
X904Y2945D01*
X1323Y2945D02*
X1330Y2945D01*
X897Y2944D02*
X904Y2944D01*
X1323Y2944D02*
X1330Y2944D01*
X897Y2943D02*
X904Y2943D01*
X1323Y2943D02*
X1330Y2943D01*
X897Y2942D02*
X904Y2942D01*
X1323Y2942D02*
X1330Y2942D01*
X897Y2941D02*
X904Y2941D01*
X1323Y2941D02*
X1330Y2941D01*
X897Y2940D02*
X904Y2940D01*
X1323Y2940D02*
X1330Y2940D01*
X1468Y2940D02*
X1471Y2940D01*
X1481Y2940D02*
X1490Y2940D01*
X897Y2939D02*
X904Y2939D01*
X1323Y2939D02*
X1330Y2939D01*
X1355Y2939D02*
X1357Y2939D01*
X1387Y2939D02*
X1388Y2939D01*
X1411Y2939D02*
X1413Y2939D01*
X1421Y2939D02*
X1424Y2939D01*
X1467Y2939D02*
X1472Y2939D01*
X1479Y2939D02*
X1492Y2939D01*
X897Y2938D02*
X904Y2938D01*
X1323Y2938D02*
X1330Y2938D01*
X1354Y2938D02*
X1358Y2938D01*
X1385Y2938D02*
X1390Y2938D01*
X1410Y2938D02*
X1414Y2938D01*
X1419Y2938D02*
X1427Y2938D01*
X1434Y2938D02*
X1442Y2938D01*
X1466Y2938D02*
X1473Y2938D01*
X1477Y2938D02*
X1493Y2938D01*
X897Y2937D02*
X904Y2937D01*
X1323Y2937D02*
X1330Y2937D01*
X1353Y2937D02*
X1359Y2937D01*
X1384Y2937D02*
X1390Y2937D01*
X1409Y2937D02*
X1415Y2937D01*
X1417Y2937D02*
X1428Y2937D01*
X1433Y2937D02*
X1443Y2937D01*
X1466Y2937D02*
X1473Y2937D01*
X1476Y2937D02*
X1495Y2937D01*
X897Y2936D02*
X904Y2936D01*
X1323Y2936D02*
X1330Y2936D01*
X1353Y2936D02*
X1359Y2936D01*
X1384Y2936D02*
X1391Y2936D01*
X1409Y2936D02*
X1429Y2936D01*
X1432Y2936D02*
X1444Y2936D01*
X1466Y2936D02*
X1473Y2936D01*
X1475Y2936D02*
X1496Y2936D01*
X897Y2935D02*
X904Y2935D01*
X1043Y2935D02*
X1043Y2935D01*
X1057Y2935D02*
X1060Y2935D01*
X1323Y2935D02*
X1330Y2935D01*
X1353Y2935D02*
X1360Y2935D01*
X1384Y2935D02*
X1391Y2935D01*
X1409Y2935D02*
X1445Y2935D01*
X1466Y2935D02*
X1497Y2935D01*
X897Y2934D02*
X904Y2934D01*
X1041Y2934D02*
X1045Y2934D01*
X1053Y2934D02*
X1064Y2934D01*
X1323Y2934D02*
X1330Y2934D01*
X1353Y2934D02*
X1360Y2934D01*
X1384Y2934D02*
X1391Y2934D01*
X1409Y2934D02*
X1446Y2934D01*
X1466Y2934D02*
X1498Y2934D01*
X897Y2933D02*
X904Y2933D01*
X928Y2933D02*
X931Y2933D01*
X960Y2933D02*
X962Y2933D01*
X984Y2933D02*
X987Y2933D01*
X994Y2933D02*
X999Y2933D01*
X1010Y2933D02*
X1013Y2933D01*
X1040Y2933D02*
X1046Y2933D01*
X1052Y2933D02*
X1066Y2933D01*
X1323Y2933D02*
X1330Y2933D01*
X1353Y2933D02*
X1360Y2933D01*
X1384Y2933D02*
X1391Y2933D01*
X1409Y2933D02*
X1446Y2933D01*
X1466Y2933D02*
X1499Y2933D01*
X897Y2932D02*
X904Y2932D01*
X927Y2932D02*
X932Y2932D01*
X958Y2932D02*
X963Y2932D01*
X983Y2932D02*
X988Y2932D01*
X992Y2932D02*
X1001Y2932D01*
X1008Y2932D02*
X1016Y2932D01*
X1040Y2932D02*
X1046Y2932D01*
X1051Y2932D02*
X1067Y2932D01*
X1323Y2932D02*
X1330Y2932D01*
X1353Y2932D02*
X1360Y2932D01*
X1384Y2932D02*
X1391Y2932D01*
X1409Y2932D02*
X1447Y2932D01*
X1466Y2932D02*
X1481Y2932D01*
X1489Y2932D02*
X1500Y2932D01*
X897Y2931D02*
X904Y2931D01*
X927Y2931D02*
X933Y2931D01*
X958Y2931D02*
X964Y2931D01*
X983Y2931D02*
X1002Y2931D01*
X1006Y2931D02*
X1017Y2931D01*
X1040Y2931D02*
X1047Y2931D01*
X1050Y2931D02*
X1068Y2931D01*
X1323Y2931D02*
X1330Y2931D01*
X1353Y2931D02*
X1360Y2931D01*
X1384Y2931D02*
X1391Y2931D01*
X1409Y2931D02*
X1421Y2931D01*
X1424Y2931D02*
X1437Y2931D01*
X1439Y2931D02*
X1447Y2931D01*
X1466Y2931D02*
X1480Y2931D01*
X1490Y2931D02*
X1501Y2931D01*
X897Y2930D02*
X904Y2930D01*
X926Y2930D02*
X933Y2930D01*
X958Y2930D02*
X964Y2930D01*
X982Y2930D02*
X1003Y2930D01*
X1005Y2930D02*
X1018Y2930D01*
X1040Y2930D02*
X1070Y2930D01*
X1323Y2930D02*
X1330Y2930D01*
X1353Y2930D02*
X1360Y2930D01*
X1384Y2930D02*
X1391Y2930D01*
X1409Y2930D02*
X1420Y2930D01*
X1425Y2930D02*
X1436Y2930D01*
X1440Y2930D02*
X1447Y2930D01*
X1466Y2930D02*
X1479Y2930D01*
X1491Y2930D02*
X1502Y2930D01*
X897Y2929D02*
X904Y2929D01*
X926Y2929D02*
X933Y2929D01*
X958Y2929D02*
X964Y2929D01*
X982Y2929D02*
X1019Y2929D01*
X1040Y2929D02*
X1071Y2929D01*
X1323Y2929D02*
X1330Y2929D01*
X1353Y2929D02*
X1360Y2929D01*
X1384Y2929D02*
X1391Y2929D01*
X1409Y2929D02*
X1419Y2929D01*
X1425Y2929D02*
X1435Y2929D01*
X1440Y2929D02*
X1447Y2929D01*
X1466Y2929D02*
X1478Y2929D01*
X1492Y2929D02*
X1503Y2929D01*
X897Y2928D02*
X904Y2928D01*
X926Y2928D02*
X933Y2928D01*
X958Y2928D02*
X964Y2928D01*
X982Y2928D02*
X1020Y2928D01*
X1040Y2928D02*
X1072Y2928D01*
X1323Y2928D02*
X1330Y2928D01*
X1353Y2928D02*
X1360Y2928D01*
X1384Y2928D02*
X1391Y2928D01*
X1409Y2928D02*
X1418Y2928D01*
X1425Y2928D02*
X1433Y2928D01*
X1440Y2928D02*
X1447Y2928D01*
X1466Y2928D02*
X1477Y2928D01*
X1494Y2928D02*
X1503Y2928D01*
X897Y2927D02*
X904Y2927D01*
X926Y2927D02*
X933Y2927D01*
X958Y2927D02*
X964Y2927D01*
X982Y2927D02*
X1020Y2927D01*
X1040Y2927D02*
X1056Y2927D01*
X1061Y2927D02*
X1073Y2927D01*
X1323Y2927D02*
X1330Y2927D01*
X1353Y2927D02*
X1360Y2927D01*
X1384Y2927D02*
X1391Y2927D01*
X1409Y2927D02*
X1417Y2927D01*
X1425Y2927D02*
X1432Y2927D01*
X1440Y2927D02*
X1447Y2927D01*
X1466Y2927D02*
X1476Y2927D01*
X1495Y2927D02*
X1504Y2927D01*
X897Y2926D02*
X904Y2926D01*
X926Y2926D02*
X933Y2926D01*
X958Y2926D02*
X964Y2926D01*
X982Y2926D02*
X1020Y2926D01*
X1040Y2926D02*
X1055Y2926D01*
X1063Y2926D02*
X1074Y2926D01*
X1323Y2926D02*
X1330Y2926D01*
X1353Y2926D02*
X1360Y2926D01*
X1384Y2926D02*
X1391Y2926D01*
X1409Y2926D02*
X1416Y2926D01*
X1425Y2926D02*
X1432Y2926D01*
X1440Y2926D02*
X1447Y2926D01*
X1466Y2926D02*
X1475Y2926D01*
X1496Y2926D02*
X1504Y2926D01*
X897Y2925D02*
X904Y2925D01*
X926Y2925D02*
X933Y2925D01*
X958Y2925D02*
X964Y2925D01*
X982Y2925D02*
X995Y2925D01*
X998Y2925D02*
X1010Y2925D01*
X1013Y2925D02*
X1020Y2925D01*
X1040Y2925D02*
X1054Y2925D01*
X1064Y2925D02*
X1075Y2925D01*
X1323Y2925D02*
X1330Y2925D01*
X1353Y2925D02*
X1360Y2925D01*
X1384Y2925D02*
X1391Y2925D01*
X1409Y2925D02*
X1416Y2925D01*
X1425Y2925D02*
X1432Y2925D01*
X1440Y2925D02*
X1447Y2925D01*
X1466Y2925D02*
X1474Y2925D01*
X1497Y2925D02*
X1504Y2925D01*
X897Y2924D02*
X904Y2924D01*
X926Y2924D02*
X933Y2924D01*
X958Y2924D02*
X964Y2924D01*
X982Y2924D02*
X993Y2924D01*
X998Y2924D02*
X1009Y2924D01*
X1014Y2924D02*
X1021Y2924D01*
X1040Y2924D02*
X1053Y2924D01*
X1065Y2924D02*
X1076Y2924D01*
X1323Y2924D02*
X1330Y2924D01*
X1353Y2924D02*
X1360Y2924D01*
X1384Y2924D02*
X1391Y2924D01*
X1409Y2924D02*
X1416Y2924D01*
X1425Y2924D02*
X1432Y2924D01*
X1440Y2924D02*
X1447Y2924D01*
X1466Y2924D02*
X1474Y2924D01*
X1497Y2924D02*
X1504Y2924D01*
X897Y2923D02*
X904Y2923D01*
X926Y2923D02*
X933Y2923D01*
X958Y2923D02*
X964Y2923D01*
X982Y2923D02*
X992Y2923D01*
X999Y2923D02*
X1008Y2923D01*
X1014Y2923D02*
X1021Y2923D01*
X1040Y2923D02*
X1052Y2923D01*
X1066Y2923D02*
X1076Y2923D01*
X1323Y2923D02*
X1330Y2923D01*
X1353Y2923D02*
X1360Y2923D01*
X1384Y2923D02*
X1391Y2923D01*
X1409Y2923D02*
X1416Y2923D01*
X1425Y2923D02*
X1432Y2923D01*
X1440Y2923D02*
X1447Y2923D01*
X1466Y2923D02*
X1473Y2923D01*
X1497Y2923D02*
X1504Y2923D01*
X897Y2922D02*
X904Y2922D01*
X927Y2922D02*
X933Y2922D01*
X958Y2922D02*
X964Y2922D01*
X982Y2922D02*
X991Y2922D01*
X999Y2922D02*
X1007Y2922D01*
X1014Y2922D02*
X1021Y2922D01*
X1040Y2922D02*
X1051Y2922D01*
X1068Y2922D02*
X1077Y2922D01*
X1302Y2922D02*
X1305Y2922D01*
X1323Y2922D02*
X1330Y2922D01*
X1353Y2922D02*
X1360Y2922D01*
X1384Y2922D02*
X1391Y2922D01*
X1409Y2922D02*
X1416Y2922D01*
X1425Y2922D02*
X1432Y2922D01*
X1440Y2922D02*
X1447Y2922D01*
X1466Y2922D02*
X1473Y2922D01*
X1497Y2922D02*
X1504Y2922D01*
X897Y2921D02*
X904Y2921D01*
X927Y2921D02*
X933Y2921D01*
X958Y2921D02*
X964Y2921D01*
X982Y2921D02*
X990Y2921D01*
X999Y2921D02*
X1006Y2921D01*
X1014Y2921D02*
X1021Y2921D01*
X1040Y2921D02*
X1050Y2921D01*
X1069Y2921D02*
X1077Y2921D01*
X1301Y2921D02*
X1306Y2921D01*
X1323Y2921D02*
X1330Y2921D01*
X1353Y2921D02*
X1360Y2921D01*
X1384Y2921D02*
X1391Y2921D01*
X1409Y2921D02*
X1416Y2921D01*
X1425Y2921D02*
X1432Y2921D01*
X1440Y2921D02*
X1447Y2921D01*
X1466Y2921D02*
X1473Y2921D01*
X1497Y2921D02*
X1504Y2921D01*
X897Y2920D02*
X904Y2920D01*
X927Y2920D02*
X933Y2920D01*
X958Y2920D02*
X964Y2920D01*
X982Y2920D02*
X989Y2920D01*
X999Y2920D02*
X1005Y2920D01*
X1014Y2920D02*
X1021Y2920D01*
X1040Y2920D02*
X1049Y2920D01*
X1070Y2920D02*
X1078Y2920D01*
X1300Y2920D02*
X1306Y2920D01*
X1323Y2920D02*
X1330Y2920D01*
X1353Y2920D02*
X1360Y2920D01*
X1384Y2920D02*
X1391Y2920D01*
X1409Y2920D02*
X1416Y2920D01*
X1425Y2920D02*
X1432Y2920D01*
X1440Y2920D02*
X1447Y2920D01*
X1466Y2920D02*
X1473Y2920D01*
X1497Y2920D02*
X1504Y2920D01*
X897Y2919D02*
X904Y2919D01*
X927Y2919D02*
X934Y2919D01*
X958Y2919D02*
X964Y2919D01*
X982Y2919D02*
X989Y2919D01*
X999Y2919D02*
X1005Y2919D01*
X1014Y2919D02*
X1021Y2919D01*
X1040Y2919D02*
X1048Y2919D01*
X1071Y2919D02*
X1078Y2919D01*
X1300Y2919D02*
X1307Y2919D01*
X1323Y2919D02*
X1330Y2919D01*
X1353Y2919D02*
X1360Y2919D01*
X1384Y2919D02*
X1391Y2919D01*
X1409Y2919D02*
X1416Y2919D01*
X1425Y2919D02*
X1432Y2919D01*
X1440Y2919D02*
X1447Y2919D01*
X1466Y2919D02*
X1473Y2919D01*
X1497Y2919D02*
X1504Y2919D01*
X897Y2918D02*
X904Y2918D01*
X927Y2918D02*
X934Y2918D01*
X958Y2918D02*
X964Y2918D01*
X982Y2918D02*
X989Y2918D01*
X999Y2918D02*
X1005Y2918D01*
X1014Y2918D02*
X1021Y2918D01*
X1040Y2918D02*
X1047Y2918D01*
X1071Y2918D02*
X1078Y2918D01*
X1300Y2918D02*
X1307Y2918D01*
X1323Y2918D02*
X1330Y2918D01*
X1353Y2918D02*
X1360Y2918D01*
X1384Y2918D02*
X1391Y2918D01*
X1409Y2918D02*
X1416Y2918D01*
X1425Y2918D02*
X1432Y2918D01*
X1440Y2918D02*
X1447Y2918D01*
X1466Y2918D02*
X1473Y2918D01*
X1497Y2918D02*
X1504Y2918D01*
X897Y2917D02*
X904Y2917D01*
X927Y2917D02*
X934Y2917D01*
X958Y2917D02*
X964Y2917D01*
X982Y2917D02*
X989Y2917D01*
X999Y2917D02*
X1005Y2917D01*
X1014Y2917D02*
X1021Y2917D01*
X1040Y2917D02*
X1047Y2917D01*
X1071Y2917D02*
X1078Y2917D01*
X1300Y2917D02*
X1307Y2917D01*
X1323Y2917D02*
X1330Y2917D01*
X1353Y2917D02*
X1360Y2917D01*
X1384Y2917D02*
X1391Y2917D01*
X1409Y2917D02*
X1416Y2917D01*
X1425Y2917D02*
X1432Y2917D01*
X1440Y2917D02*
X1447Y2917D01*
X1466Y2917D02*
X1473Y2917D01*
X1497Y2917D02*
X1504Y2917D01*
X875Y2916D02*
X879Y2916D01*
X897Y2916D02*
X904Y2916D01*
X927Y2916D02*
X934Y2916D01*
X958Y2916D02*
X964Y2916D01*
X982Y2916D02*
X989Y2916D01*
X999Y2916D02*
X1005Y2916D01*
X1014Y2916D02*
X1021Y2916D01*
X1040Y2916D02*
X1047Y2916D01*
X1071Y2916D02*
X1078Y2916D01*
X1300Y2916D02*
X1307Y2916D01*
X1323Y2916D02*
X1330Y2916D01*
X1353Y2916D02*
X1360Y2916D01*
X1384Y2916D02*
X1391Y2916D01*
X1409Y2916D02*
X1416Y2916D01*
X1425Y2916D02*
X1432Y2916D01*
X1440Y2916D02*
X1447Y2916D01*
X1466Y2916D02*
X1473Y2916D01*
X1497Y2916D02*
X1504Y2916D01*
X874Y2915D02*
X880Y2915D01*
X897Y2915D02*
X904Y2915D01*
X927Y2915D02*
X934Y2915D01*
X958Y2915D02*
X964Y2915D01*
X982Y2915D02*
X989Y2915D01*
X999Y2915D02*
X1005Y2915D01*
X1014Y2915D02*
X1021Y2915D01*
X1040Y2915D02*
X1047Y2915D01*
X1071Y2915D02*
X1078Y2915D01*
X1300Y2915D02*
X1307Y2915D01*
X1323Y2915D02*
X1330Y2915D01*
X1353Y2915D02*
X1360Y2915D01*
X1384Y2915D02*
X1391Y2915D01*
X1409Y2915D02*
X1416Y2915D01*
X1425Y2915D02*
X1432Y2915D01*
X1441Y2915D02*
X1447Y2915D01*
X1466Y2915D02*
X1473Y2915D01*
X1497Y2915D02*
X1504Y2915D01*
X874Y2914D02*
X880Y2914D01*
X897Y2914D02*
X904Y2914D01*
X927Y2914D02*
X934Y2914D01*
X958Y2914D02*
X964Y2914D01*
X982Y2914D02*
X989Y2914D01*
X999Y2914D02*
X1005Y2914D01*
X1014Y2914D02*
X1021Y2914D01*
X1040Y2914D02*
X1047Y2914D01*
X1071Y2914D02*
X1078Y2914D01*
X1300Y2914D02*
X1307Y2914D01*
X1323Y2914D02*
X1330Y2914D01*
X1353Y2914D02*
X1360Y2914D01*
X1384Y2914D02*
X1391Y2914D01*
X1409Y2914D02*
X1416Y2914D01*
X1425Y2914D02*
X1432Y2914D01*
X1441Y2914D02*
X1447Y2914D01*
X1466Y2914D02*
X1473Y2914D01*
X1497Y2914D02*
X1504Y2914D01*
X873Y2913D02*
X880Y2913D01*
X897Y2913D02*
X904Y2913D01*
X927Y2913D02*
X934Y2913D01*
X958Y2913D02*
X964Y2913D01*
X982Y2913D02*
X989Y2913D01*
X999Y2913D02*
X1005Y2913D01*
X1014Y2913D02*
X1021Y2913D01*
X1040Y2913D02*
X1047Y2913D01*
X1071Y2913D02*
X1078Y2913D01*
X1300Y2913D02*
X1307Y2913D01*
X1323Y2913D02*
X1330Y2913D01*
X1353Y2913D02*
X1360Y2913D01*
X1384Y2913D02*
X1391Y2913D01*
X1409Y2913D02*
X1416Y2913D01*
X1425Y2913D02*
X1432Y2913D01*
X1441Y2913D02*
X1448Y2913D01*
X1466Y2913D02*
X1473Y2913D01*
X1497Y2913D02*
X1504Y2913D01*
X873Y2912D02*
X880Y2912D01*
X897Y2912D02*
X904Y2912D01*
X927Y2912D02*
X934Y2912D01*
X958Y2912D02*
X964Y2912D01*
X982Y2912D02*
X989Y2912D01*
X999Y2912D02*
X1005Y2912D01*
X1014Y2912D02*
X1021Y2912D01*
X1040Y2912D02*
X1047Y2912D01*
X1071Y2912D02*
X1078Y2912D01*
X1300Y2912D02*
X1307Y2912D01*
X1323Y2912D02*
X1330Y2912D01*
X1353Y2912D02*
X1360Y2912D01*
X1384Y2912D02*
X1391Y2912D01*
X1409Y2912D02*
X1416Y2912D01*
X1425Y2912D02*
X1432Y2912D01*
X1441Y2912D02*
X1448Y2912D01*
X1466Y2912D02*
X1473Y2912D01*
X1497Y2912D02*
X1504Y2912D01*
X873Y2911D02*
X880Y2911D01*
X897Y2911D02*
X904Y2911D01*
X927Y2911D02*
X934Y2911D01*
X958Y2911D02*
X964Y2911D01*
X982Y2911D02*
X989Y2911D01*
X999Y2911D02*
X1005Y2911D01*
X1014Y2911D02*
X1021Y2911D01*
X1040Y2911D02*
X1047Y2911D01*
X1071Y2911D02*
X1078Y2911D01*
X1300Y2911D02*
X1307Y2911D01*
X1323Y2911D02*
X1330Y2911D01*
X1353Y2911D02*
X1360Y2911D01*
X1384Y2911D02*
X1391Y2911D01*
X1409Y2911D02*
X1416Y2911D01*
X1425Y2911D02*
X1432Y2911D01*
X1441Y2911D02*
X1448Y2911D01*
X1466Y2911D02*
X1473Y2911D01*
X1497Y2911D02*
X1504Y2911D01*
X873Y2910D02*
X880Y2910D01*
X897Y2910D02*
X904Y2910D01*
X927Y2910D02*
X934Y2910D01*
X958Y2910D02*
X964Y2910D01*
X982Y2910D02*
X989Y2910D01*
X999Y2910D02*
X1005Y2910D01*
X1014Y2910D02*
X1021Y2910D01*
X1040Y2910D02*
X1047Y2910D01*
X1071Y2910D02*
X1078Y2910D01*
X1300Y2910D02*
X1307Y2910D01*
X1323Y2910D02*
X1330Y2910D01*
X1353Y2910D02*
X1360Y2910D01*
X1383Y2910D02*
X1391Y2910D01*
X1409Y2910D02*
X1416Y2910D01*
X1425Y2910D02*
X1432Y2910D01*
X1441Y2910D02*
X1448Y2910D01*
X1466Y2910D02*
X1473Y2910D01*
X1497Y2910D02*
X1504Y2910D01*
X873Y2909D02*
X880Y2909D01*
X897Y2909D02*
X904Y2909D01*
X927Y2909D02*
X934Y2909D01*
X958Y2909D02*
X964Y2909D01*
X982Y2909D02*
X989Y2909D01*
X999Y2909D02*
X1005Y2909D01*
X1014Y2909D02*
X1021Y2909D01*
X1040Y2909D02*
X1047Y2909D01*
X1071Y2909D02*
X1078Y2909D01*
X1300Y2909D02*
X1307Y2909D01*
X1323Y2909D02*
X1330Y2909D01*
X1353Y2909D02*
X1360Y2909D01*
X1381Y2909D02*
X1391Y2909D01*
X1409Y2909D02*
X1416Y2909D01*
X1425Y2909D02*
X1432Y2909D01*
X1441Y2909D02*
X1448Y2909D01*
X1466Y2909D02*
X1474Y2909D01*
X1497Y2909D02*
X1504Y2909D01*
X873Y2908D02*
X880Y2908D01*
X897Y2908D02*
X904Y2908D01*
X927Y2908D02*
X934Y2908D01*
X958Y2908D02*
X964Y2908D01*
X982Y2908D02*
X989Y2908D01*
X999Y2908D02*
X1005Y2908D01*
X1014Y2908D02*
X1021Y2908D01*
X1040Y2908D02*
X1047Y2908D01*
X1071Y2908D02*
X1078Y2908D01*
X1300Y2908D02*
X1307Y2908D01*
X1323Y2908D02*
X1330Y2908D01*
X1354Y2908D02*
X1360Y2908D01*
X1380Y2908D02*
X1391Y2908D01*
X1409Y2908D02*
X1416Y2908D01*
X1425Y2908D02*
X1432Y2908D01*
X1441Y2908D02*
X1448Y2908D01*
X1466Y2908D02*
X1475Y2908D01*
X1496Y2908D02*
X1504Y2908D01*
X873Y2907D02*
X880Y2907D01*
X897Y2907D02*
X904Y2907D01*
X927Y2907D02*
X934Y2907D01*
X958Y2907D02*
X964Y2907D01*
X982Y2907D02*
X989Y2907D01*
X999Y2907D02*
X1005Y2907D01*
X1014Y2907D02*
X1021Y2907D01*
X1040Y2907D02*
X1047Y2907D01*
X1071Y2907D02*
X1078Y2907D01*
X1300Y2907D02*
X1307Y2907D01*
X1323Y2907D02*
X1330Y2907D01*
X1354Y2907D02*
X1361Y2907D01*
X1378Y2907D02*
X1391Y2907D01*
X1409Y2907D02*
X1416Y2907D01*
X1425Y2907D02*
X1432Y2907D01*
X1441Y2907D02*
X1448Y2907D01*
X1466Y2907D02*
X1476Y2907D01*
X1495Y2907D02*
X1504Y2907D01*
X873Y2906D02*
X880Y2906D01*
X897Y2906D02*
X904Y2906D01*
X927Y2906D02*
X934Y2906D01*
X958Y2906D02*
X964Y2906D01*
X982Y2906D02*
X989Y2906D01*
X999Y2906D02*
X1005Y2906D01*
X1014Y2906D02*
X1021Y2906D01*
X1040Y2906D02*
X1047Y2906D01*
X1071Y2906D02*
X1078Y2906D01*
X1300Y2906D02*
X1307Y2906D01*
X1323Y2906D02*
X1330Y2906D01*
X1354Y2906D02*
X1361Y2906D01*
X1377Y2906D02*
X1391Y2906D01*
X1409Y2906D02*
X1416Y2906D01*
X1425Y2906D02*
X1432Y2906D01*
X1441Y2906D02*
X1448Y2906D01*
X1466Y2906D02*
X1477Y2906D01*
X1494Y2906D02*
X1503Y2906D01*
X873Y2905D02*
X880Y2905D01*
X897Y2905D02*
X904Y2905D01*
X927Y2905D02*
X934Y2905D01*
X957Y2905D02*
X964Y2905D01*
X982Y2905D02*
X989Y2905D01*
X999Y2905D02*
X1005Y2905D01*
X1014Y2905D02*
X1021Y2905D01*
X1040Y2905D02*
X1047Y2905D01*
X1071Y2905D02*
X1078Y2905D01*
X1300Y2905D02*
X1307Y2905D01*
X1323Y2905D02*
X1330Y2905D01*
X1354Y2905D02*
X1361Y2905D01*
X1375Y2905D02*
X1391Y2905D01*
X1409Y2905D02*
X1416Y2905D01*
X1425Y2905D02*
X1432Y2905D01*
X1441Y2905D02*
X1448Y2905D01*
X1466Y2905D02*
X1478Y2905D01*
X1493Y2905D02*
X1503Y2905D01*
X873Y2904D02*
X880Y2904D01*
X897Y2904D02*
X904Y2904D01*
X927Y2904D02*
X934Y2904D01*
X956Y2904D02*
X964Y2904D01*
X982Y2904D02*
X989Y2904D01*
X999Y2904D02*
X1005Y2904D01*
X1014Y2904D02*
X1021Y2904D01*
X1040Y2904D02*
X1047Y2904D01*
X1071Y2904D02*
X1078Y2904D01*
X1300Y2904D02*
X1308Y2904D01*
X1322Y2904D02*
X1330Y2904D01*
X1354Y2904D02*
X1361Y2904D01*
X1374Y2904D02*
X1391Y2904D01*
X1409Y2904D02*
X1416Y2904D01*
X1425Y2904D02*
X1432Y2904D01*
X1441Y2904D02*
X1448Y2904D01*
X1466Y2904D02*
X1479Y2904D01*
X1492Y2904D02*
X1502Y2904D01*
X873Y2903D02*
X880Y2903D01*
X897Y2903D02*
X904Y2903D01*
X927Y2903D02*
X934Y2903D01*
X955Y2903D02*
X964Y2903D01*
X982Y2903D02*
X989Y2903D01*
X999Y2903D02*
X1005Y2903D01*
X1014Y2903D02*
X1021Y2903D01*
X1040Y2903D02*
X1048Y2903D01*
X1071Y2903D02*
X1078Y2903D01*
X1300Y2903D02*
X1309Y2903D01*
X1321Y2903D02*
X1330Y2903D01*
X1354Y2903D02*
X1362Y2903D01*
X1372Y2903D02*
X1391Y2903D01*
X1409Y2903D02*
X1416Y2903D01*
X1425Y2903D02*
X1432Y2903D01*
X1441Y2903D02*
X1448Y2903D01*
X1466Y2903D02*
X1480Y2903D01*
X1491Y2903D02*
X1502Y2903D01*
X873Y2902D02*
X880Y2902D01*
X897Y2902D02*
X904Y2902D01*
X927Y2902D02*
X934Y2902D01*
X953Y2902D02*
X964Y2902D01*
X982Y2902D02*
X989Y2902D01*
X999Y2902D02*
X1005Y2902D01*
X1014Y2902D02*
X1021Y2902D01*
X1040Y2902D02*
X1049Y2902D01*
X1070Y2902D02*
X1078Y2902D01*
X1301Y2902D02*
X1329Y2902D01*
X1354Y2902D02*
X1391Y2902D01*
X1409Y2902D02*
X1416Y2902D01*
X1425Y2902D02*
X1432Y2902D01*
X1441Y2902D02*
X1448Y2902D01*
X1466Y2902D02*
X1481Y2902D01*
X1489Y2902D02*
X1501Y2902D01*
X873Y2901D02*
X880Y2901D01*
X897Y2901D02*
X904Y2901D01*
X927Y2901D02*
X934Y2901D01*
X951Y2901D02*
X964Y2901D01*
X982Y2901D02*
X989Y2901D01*
X999Y2901D02*
X1005Y2901D01*
X1014Y2901D02*
X1021Y2901D01*
X1040Y2901D02*
X1050Y2901D01*
X1069Y2901D02*
X1077Y2901D01*
X1301Y2901D02*
X1329Y2901D01*
X1355Y2901D02*
X1391Y2901D01*
X1409Y2901D02*
X1416Y2901D01*
X1425Y2901D02*
X1432Y2901D01*
X1441Y2901D02*
X1448Y2901D01*
X1466Y2901D02*
X1482Y2901D01*
X1488Y2901D02*
X1500Y2901D01*
X873Y2900D02*
X880Y2900D01*
X897Y2900D02*
X904Y2900D01*
X927Y2900D02*
X934Y2900D01*
X950Y2900D02*
X964Y2900D01*
X982Y2900D02*
X989Y2900D01*
X999Y2900D02*
X1005Y2900D01*
X1014Y2900D02*
X1021Y2900D01*
X1040Y2900D02*
X1051Y2900D01*
X1067Y2900D02*
X1077Y2900D01*
X1302Y2900D02*
X1328Y2900D01*
X1355Y2900D02*
X1381Y2900D01*
X1384Y2900D02*
X1391Y2900D01*
X1409Y2900D02*
X1416Y2900D01*
X1425Y2900D02*
X1432Y2900D01*
X1441Y2900D02*
X1448Y2900D01*
X1466Y2900D02*
X1498Y2900D01*
X874Y2899D02*
X881Y2899D01*
X897Y2899D02*
X904Y2899D01*
X927Y2899D02*
X935Y2899D01*
X948Y2899D02*
X964Y2899D01*
X982Y2899D02*
X989Y2899D01*
X999Y2899D02*
X1005Y2899D01*
X1015Y2899D02*
X1021Y2899D01*
X1040Y2899D02*
X1052Y2899D01*
X1066Y2899D02*
X1076Y2899D01*
X1302Y2899D02*
X1328Y2899D01*
X1356Y2899D02*
X1379Y2899D01*
X1384Y2899D02*
X1391Y2899D01*
X1409Y2899D02*
X1416Y2899D01*
X1425Y2899D02*
X1432Y2899D01*
X1441Y2899D02*
X1448Y2899D01*
X1466Y2899D02*
X1497Y2899D01*
X874Y2898D02*
X881Y2898D01*
X896Y2898D02*
X904Y2898D01*
X927Y2898D02*
X935Y2898D01*
X947Y2898D02*
X964Y2898D01*
X982Y2898D02*
X989Y2898D01*
X999Y2898D02*
X1005Y2898D01*
X1015Y2898D02*
X1021Y2898D01*
X1040Y2898D02*
X1053Y2898D01*
X1065Y2898D02*
X1076Y2898D01*
X1303Y2898D02*
X1327Y2898D01*
X1357Y2898D02*
X1378Y2898D01*
X1384Y2898D02*
X1391Y2898D01*
X1409Y2898D02*
X1416Y2898D01*
X1425Y2898D02*
X1432Y2898D01*
X1441Y2898D02*
X1448Y2898D01*
X1466Y2898D02*
X1473Y2898D01*
X1475Y2898D02*
X1496Y2898D01*
X874Y2897D02*
X883Y2897D01*
X894Y2897D02*
X903Y2897D01*
X928Y2897D02*
X936Y2897D01*
X945Y2897D02*
X964Y2897D01*
X982Y2897D02*
X989Y2897D01*
X999Y2897D02*
X1005Y2897D01*
X1015Y2897D02*
X1022Y2897D01*
X1040Y2897D02*
X1054Y2897D01*
X1064Y2897D02*
X1075Y2897D01*
X1304Y2897D02*
X1326Y2897D01*
X1358Y2897D02*
X1376Y2897D01*
X1384Y2897D02*
X1391Y2897D01*
X1409Y2897D02*
X1415Y2897D01*
X1425Y2897D02*
X1432Y2897D01*
X1441Y2897D02*
X1448Y2897D01*
X1466Y2897D02*
X1473Y2897D01*
X1476Y2897D02*
X1495Y2897D01*
X874Y2896D02*
X903Y2896D01*
X928Y2896D02*
X964Y2896D01*
X982Y2896D02*
X989Y2896D01*
X999Y2896D02*
X1005Y2896D01*
X1015Y2896D02*
X1022Y2896D01*
X1040Y2896D02*
X1055Y2896D01*
X1063Y2896D02*
X1074Y2896D01*
X1306Y2896D02*
X1324Y2896D01*
X1360Y2896D02*
X1375Y2896D01*
X1385Y2896D02*
X1390Y2896D01*
X1410Y2896D02*
X1415Y2896D01*
X1426Y2896D02*
X1431Y2896D01*
X1442Y2896D02*
X1447Y2896D01*
X1466Y2896D02*
X1473Y2896D01*
X1477Y2896D02*
X1494Y2896D01*
X875Y2895D02*
X902Y2895D01*
X929Y2895D02*
X964Y2895D01*
X982Y2895D02*
X989Y2895D01*
X999Y2895D02*
X1005Y2895D01*
X1015Y2895D02*
X1022Y2895D01*
X1040Y2895D02*
X1073Y2895D01*
X1308Y2895D02*
X1322Y2895D01*
X1362Y2895D02*
X1372Y2895D01*
X1386Y2895D02*
X1389Y2895D01*
X1411Y2895D02*
X1414Y2895D01*
X1427Y2895D02*
X1430Y2895D01*
X1443Y2895D02*
X1446Y2895D01*
X1466Y2895D02*
X1473Y2895D01*
X1478Y2895D02*
X1492Y2895D01*
X875Y2894D02*
X902Y2894D01*
X929Y2894D02*
X954Y2894D01*
X958Y2894D02*
X964Y2894D01*
X982Y2894D02*
X989Y2894D01*
X999Y2894D02*
X1005Y2894D01*
X1015Y2894D02*
X1022Y2894D01*
X1040Y2894D02*
X1072Y2894D01*
X1466Y2894D02*
X1473Y2894D01*
X1480Y2894D02*
X1491Y2894D01*
X876Y2893D02*
X901Y2893D01*
X930Y2893D02*
X953Y2893D01*
X958Y2893D02*
X964Y2893D01*
X982Y2893D02*
X989Y2893D01*
X999Y2893D02*
X1005Y2893D01*
X1015Y2893D02*
X1022Y2893D01*
X1040Y2893D02*
X1070Y2893D01*
X1466Y2893D02*
X1473Y2893D01*
X1483Y2893D02*
X1488Y2893D01*
X877Y2892D02*
X900Y2892D01*
X931Y2892D02*
X951Y2892D01*
X958Y2892D02*
X964Y2892D01*
X982Y2892D02*
X989Y2892D01*
X999Y2892D02*
X1005Y2892D01*
X1015Y2892D02*
X1022Y2892D01*
X1040Y2892D02*
X1069Y2892D01*
X1466Y2892D02*
X1473Y2892D01*
X878Y2891D02*
X899Y2891D01*
X932Y2891D02*
X950Y2891D01*
X958Y2891D02*
X964Y2891D01*
X983Y2891D02*
X989Y2891D01*
X999Y2891D02*
X1005Y2891D01*
X1015Y2891D02*
X1021Y2891D01*
X1040Y2891D02*
X1047Y2891D01*
X1049Y2891D02*
X1068Y2891D01*
X1466Y2891D02*
X1473Y2891D01*
X880Y2890D02*
X897Y2890D01*
X934Y2890D02*
X948Y2890D01*
X959Y2890D02*
X963Y2890D01*
X983Y2890D02*
X988Y2890D01*
X1000Y2890D02*
X1004Y2890D01*
X1016Y2890D02*
X1021Y2890D01*
X1040Y2890D02*
X1047Y2890D01*
X1051Y2890D02*
X1067Y2890D01*
X1466Y2890D02*
X1473Y2890D01*
X883Y2889D02*
X895Y2889D01*
X936Y2889D02*
X945Y2889D01*
X960Y2889D02*
X962Y2889D01*
X985Y2889D02*
X987Y2889D01*
X1001Y2889D02*
X1003Y2889D01*
X1017Y2889D02*
X1019Y2889D01*
X1040Y2889D02*
X1047Y2889D01*
X1052Y2889D02*
X1066Y2889D01*
X1466Y2889D02*
X1473Y2889D01*
X1040Y2888D02*
X1047Y2888D01*
X1054Y2888D02*
X1064Y2888D01*
X1466Y2888D02*
X1473Y2888D01*
X1040Y2887D02*
X1047Y2887D01*
X1466Y2887D02*
X1473Y2887D01*
X1040Y2886D02*
X1047Y2886D01*
X1466Y2886D02*
X1473Y2886D01*
X1040Y2885D02*
X1047Y2885D01*
X1466Y2885D02*
X1473Y2885D01*
X1040Y2884D02*
X1047Y2884D01*
X1466Y2884D02*
X1473Y2884D01*
X1040Y2883D02*
X1047Y2883D01*
X1466Y2883D02*
X1473Y2883D01*
X1040Y2882D02*
X1047Y2882D01*
X1466Y2882D02*
X1473Y2882D01*
X1040Y2881D02*
X1047Y2881D01*
X1466Y2881D02*
X1473Y2881D01*
X1040Y2880D02*
X1047Y2880D01*
X1466Y2880D02*
X1473Y2880D01*
X1040Y2879D02*
X1047Y2879D01*
X1467Y2879D02*
X1472Y2879D01*
X1040Y2878D02*
X1047Y2878D01*
X1469Y2878D02*
X1470Y2878D01*
X1040Y2877D02*
X1047Y2877D01*
X1040Y2876D02*
X1047Y2876D01*
X1040Y2875D02*
X1046Y2875D01*
X1040Y2874D02*
X1046Y2874D01*
X1041Y2873D02*
X1045Y2873D01*
X771Y2166D02*
X774Y2166D01*
X811Y2166D02*
X814Y2166D01*
X843Y2166D02*
X882Y2166D01*
X770Y2165D02*
X776Y2165D01*
X810Y2165D02*
X816Y2165D01*
X842Y2165D02*
X884Y2165D01*
X769Y2164D02*
X777Y2164D01*
X809Y2164D02*
X816Y2164D01*
X841Y2164D02*
X886Y2164D01*
X1762Y2164D02*
X1767Y2164D01*
X1802Y2164D02*
X1806Y2164D01*
X568Y2163D02*
X568Y2163D01*
X607Y2163D02*
X608Y2163D01*
X639Y2163D02*
X664Y2163D01*
X769Y2163D02*
X777Y2163D01*
X808Y2163D02*
X817Y2163D01*
X841Y2163D02*
X887Y2163D01*
X1761Y2163D02*
X1768Y2163D01*
X1801Y2163D02*
X1807Y2163D01*
X565Y2162D02*
X570Y2162D01*
X605Y2162D02*
X610Y2162D01*
X637Y2162D02*
X664Y2162D01*
X769Y2162D02*
X778Y2162D01*
X808Y2162D02*
X817Y2162D01*
X840Y2162D02*
X887Y2162D01*
X1761Y2162D02*
X1768Y2162D01*
X1800Y2162D02*
X1808Y2162D01*
X564Y2161D02*
X571Y2161D01*
X604Y2161D02*
X611Y2161D01*
X636Y2161D02*
X664Y2161D01*
X768Y2161D02*
X778Y2161D01*
X808Y2161D02*
X817Y2161D01*
X840Y2161D02*
X888Y2161D01*
X1760Y2161D02*
X1769Y2161D01*
X1800Y2161D02*
X1809Y2161D01*
X564Y2160D02*
X572Y2160D01*
X603Y2160D02*
X612Y2160D01*
X636Y2160D02*
X664Y2160D01*
X768Y2160D02*
X778Y2160D01*
X808Y2160D02*
X817Y2160D01*
X841Y2160D02*
X889Y2160D01*
X1760Y2160D02*
X1769Y2160D01*
X1800Y2160D02*
X1809Y2160D01*
X563Y2159D02*
X572Y2159D01*
X603Y2159D02*
X612Y2159D01*
X635Y2159D02*
X664Y2159D01*
X768Y2159D02*
X778Y2159D01*
X808Y2159D02*
X817Y2159D01*
X841Y2159D02*
X889Y2159D01*
X1760Y2159D02*
X1769Y2159D01*
X1800Y2159D02*
X1809Y2159D01*
X563Y2158D02*
X572Y2158D01*
X603Y2158D02*
X612Y2158D01*
X635Y2158D02*
X664Y2158D01*
X768Y2158D02*
X778Y2158D01*
X808Y2158D02*
X817Y2158D01*
X842Y2158D02*
X889Y2158D01*
X1760Y2158D02*
X1769Y2158D01*
X1800Y2158D02*
X1809Y2158D01*
X563Y2157D02*
X572Y2157D01*
X603Y2157D02*
X612Y2157D01*
X635Y2157D02*
X664Y2157D01*
X768Y2157D02*
X778Y2157D01*
X808Y2157D02*
X817Y2157D01*
X843Y2157D02*
X889Y2157D01*
X1760Y2157D02*
X1769Y2157D01*
X1800Y2157D02*
X1809Y2157D01*
X563Y2156D02*
X572Y2156D01*
X603Y2156D02*
X612Y2156D01*
X636Y2156D02*
X664Y2156D01*
X768Y2156D02*
X778Y2156D01*
X808Y2156D02*
X817Y2156D01*
X880Y2156D02*
X889Y2156D01*
X1561Y2156D02*
X1564Y2156D01*
X1601Y2156D02*
X1604Y2156D01*
X1760Y2156D02*
X1769Y2156D01*
X1800Y2156D02*
X1809Y2156D01*
X563Y2155D02*
X572Y2155D01*
X603Y2155D02*
X612Y2155D01*
X636Y2155D02*
X664Y2155D01*
X768Y2155D02*
X778Y2155D01*
X808Y2155D02*
X817Y2155D01*
X880Y2155D02*
X889Y2155D01*
X1560Y2155D02*
X1566Y2155D01*
X1600Y2155D02*
X1605Y2155D01*
X1760Y2155D02*
X1769Y2155D01*
X1800Y2155D02*
X1809Y2155D01*
X563Y2154D02*
X572Y2154D01*
X603Y2154D02*
X612Y2154D01*
X637Y2154D02*
X664Y2154D01*
X768Y2154D02*
X778Y2154D01*
X808Y2154D02*
X817Y2154D01*
X880Y2154D02*
X889Y2154D01*
X1559Y2154D02*
X1567Y2154D01*
X1599Y2154D02*
X1606Y2154D01*
X1760Y2154D02*
X1769Y2154D01*
X1800Y2154D02*
X1809Y2154D01*
X563Y2153D02*
X572Y2153D01*
X603Y2153D02*
X612Y2153D01*
X640Y2153D02*
X664Y2153D01*
X768Y2153D02*
X778Y2153D01*
X808Y2153D02*
X817Y2153D01*
X880Y2153D02*
X889Y2153D01*
X1559Y2153D02*
X1567Y2153D01*
X1598Y2153D02*
X1607Y2153D01*
X1760Y2153D02*
X1769Y2153D01*
X1800Y2153D02*
X1809Y2153D01*
X563Y2152D02*
X572Y2152D01*
X603Y2152D02*
X612Y2152D01*
X655Y2152D02*
X664Y2152D01*
X768Y2152D02*
X778Y2152D01*
X808Y2152D02*
X817Y2152D01*
X880Y2152D02*
X889Y2152D01*
X1558Y2152D02*
X1567Y2152D01*
X1598Y2152D02*
X1607Y2152D01*
X1760Y2152D02*
X1769Y2152D01*
X1800Y2152D02*
X1809Y2152D01*
X563Y2151D02*
X572Y2151D01*
X603Y2151D02*
X612Y2151D01*
X655Y2151D02*
X664Y2151D01*
X768Y2151D02*
X778Y2151D01*
X808Y2151D02*
X817Y2151D01*
X880Y2151D02*
X889Y2151D01*
X1558Y2151D02*
X1567Y2151D01*
X1598Y2151D02*
X1607Y2151D01*
X1760Y2151D02*
X1769Y2151D01*
X1800Y2151D02*
X1809Y2151D01*
X563Y2150D02*
X572Y2150D01*
X603Y2150D02*
X612Y2150D01*
X655Y2150D02*
X664Y2150D01*
X768Y2150D02*
X778Y2150D01*
X808Y2150D02*
X817Y2150D01*
X880Y2150D02*
X889Y2150D01*
X1558Y2150D02*
X1567Y2150D01*
X1598Y2150D02*
X1607Y2150D01*
X1760Y2150D02*
X1769Y2150D01*
X1800Y2150D02*
X1809Y2150D01*
X563Y2149D02*
X572Y2149D01*
X603Y2149D02*
X612Y2149D01*
X655Y2149D02*
X664Y2149D01*
X768Y2149D02*
X778Y2149D01*
X808Y2149D02*
X817Y2149D01*
X880Y2149D02*
X889Y2149D01*
X1558Y2149D02*
X1567Y2149D01*
X1598Y2149D02*
X1607Y2149D01*
X1760Y2149D02*
X1769Y2149D01*
X1800Y2149D02*
X1809Y2149D01*
X563Y2148D02*
X572Y2148D01*
X603Y2148D02*
X612Y2148D01*
X655Y2148D02*
X664Y2148D01*
X768Y2148D02*
X778Y2148D01*
X808Y2148D02*
X817Y2148D01*
X880Y2148D02*
X889Y2148D01*
X1558Y2148D02*
X1567Y2148D01*
X1598Y2148D02*
X1607Y2148D01*
X1760Y2148D02*
X1769Y2148D01*
X1800Y2148D02*
X1809Y2148D01*
X563Y2147D02*
X572Y2147D01*
X603Y2147D02*
X612Y2147D01*
X655Y2147D02*
X664Y2147D01*
X768Y2147D02*
X778Y2147D01*
X808Y2147D02*
X817Y2147D01*
X880Y2147D02*
X889Y2147D01*
X1558Y2147D02*
X1567Y2147D01*
X1598Y2147D02*
X1607Y2147D01*
X1760Y2147D02*
X1769Y2147D01*
X1800Y2147D02*
X1809Y2147D01*
X563Y2146D02*
X572Y2146D01*
X603Y2146D02*
X612Y2146D01*
X655Y2146D02*
X664Y2146D01*
X768Y2146D02*
X778Y2146D01*
X808Y2146D02*
X817Y2146D01*
X880Y2146D02*
X889Y2146D01*
X1558Y2146D02*
X1567Y2146D01*
X1598Y2146D02*
X1607Y2146D01*
X1760Y2146D02*
X1769Y2146D01*
X1800Y2146D02*
X1809Y2146D01*
X563Y2145D02*
X572Y2145D01*
X603Y2145D02*
X612Y2145D01*
X655Y2145D02*
X664Y2145D01*
X768Y2145D02*
X778Y2145D01*
X808Y2145D02*
X817Y2145D01*
X880Y2145D02*
X889Y2145D01*
X1558Y2145D02*
X1567Y2145D01*
X1598Y2145D02*
X1607Y2145D01*
X1760Y2145D02*
X1769Y2145D01*
X1800Y2145D02*
X1809Y2145D01*
X563Y2144D02*
X572Y2144D01*
X603Y2144D02*
X612Y2144D01*
X655Y2144D02*
X664Y2144D01*
X768Y2144D02*
X778Y2144D01*
X808Y2144D02*
X817Y2144D01*
X880Y2144D02*
X889Y2144D01*
X1558Y2144D02*
X1567Y2144D01*
X1598Y2144D02*
X1607Y2144D01*
X1760Y2144D02*
X1769Y2144D01*
X1800Y2144D02*
X1809Y2144D01*
X563Y2143D02*
X572Y2143D01*
X603Y2143D02*
X612Y2143D01*
X655Y2143D02*
X664Y2143D01*
X768Y2143D02*
X778Y2143D01*
X808Y2143D02*
X817Y2143D01*
X880Y2143D02*
X889Y2143D01*
X1558Y2143D02*
X1567Y2143D01*
X1598Y2143D02*
X1607Y2143D01*
X1760Y2143D02*
X1769Y2143D01*
X1799Y2143D02*
X1809Y2143D01*
X563Y2142D02*
X572Y2142D01*
X603Y2142D02*
X612Y2142D01*
X655Y2142D02*
X664Y2142D01*
X768Y2142D02*
X778Y2142D01*
X808Y2142D02*
X817Y2142D01*
X880Y2142D02*
X889Y2142D01*
X1558Y2142D02*
X1567Y2142D01*
X1598Y2142D02*
X1607Y2142D01*
X1654Y2142D02*
X1656Y2142D01*
X1760Y2142D02*
X1770Y2142D01*
X1799Y2142D02*
X1809Y2142D01*
X563Y2141D02*
X572Y2141D01*
X603Y2141D02*
X612Y2141D01*
X655Y2141D02*
X664Y2141D01*
X768Y2141D02*
X778Y2141D01*
X808Y2141D02*
X817Y2141D01*
X880Y2141D02*
X889Y2141D01*
X1558Y2141D02*
X1567Y2141D01*
X1598Y2141D02*
X1607Y2141D01*
X1652Y2141D02*
X1657Y2141D01*
X1760Y2141D02*
X1770Y2141D01*
X1799Y2141D02*
X1808Y2141D01*
X563Y2140D02*
X572Y2140D01*
X603Y2140D02*
X612Y2140D01*
X655Y2140D02*
X664Y2140D01*
X768Y2140D02*
X778Y2140D01*
X790Y2140D02*
X795Y2140D01*
X808Y2140D02*
X817Y2140D01*
X880Y2140D02*
X889Y2140D01*
X1558Y2140D02*
X1567Y2140D01*
X1598Y2140D02*
X1607Y2140D01*
X1651Y2140D02*
X1658Y2140D01*
X1761Y2140D02*
X1770Y2140D01*
X1798Y2140D02*
X1808Y2140D01*
X563Y2139D02*
X572Y2139D01*
X603Y2139D02*
X612Y2139D01*
X655Y2139D02*
X664Y2139D01*
X768Y2139D02*
X778Y2139D01*
X789Y2139D02*
X796Y2139D01*
X808Y2139D02*
X817Y2139D01*
X880Y2139D02*
X889Y2139D01*
X1558Y2139D02*
X1567Y2139D01*
X1598Y2139D02*
X1607Y2139D01*
X1650Y2139D02*
X1659Y2139D01*
X1761Y2139D02*
X1771Y2139D01*
X1798Y2139D02*
X1808Y2139D01*
X563Y2138D02*
X572Y2138D01*
X603Y2138D02*
X612Y2138D01*
X655Y2138D02*
X664Y2138D01*
X768Y2138D02*
X778Y2138D01*
X789Y2138D02*
X797Y2138D01*
X808Y2138D02*
X817Y2138D01*
X880Y2138D02*
X889Y2138D01*
X1558Y2138D02*
X1567Y2138D01*
X1598Y2138D02*
X1607Y2138D01*
X1650Y2138D02*
X1659Y2138D01*
X1761Y2138D02*
X1771Y2138D01*
X1797Y2138D02*
X1807Y2138D01*
X563Y2137D02*
X572Y2137D01*
X586Y2137D02*
X590Y2137D01*
X603Y2137D02*
X612Y2137D01*
X655Y2137D02*
X664Y2137D01*
X768Y2137D02*
X778Y2137D01*
X788Y2137D02*
X797Y2137D01*
X808Y2137D02*
X817Y2137D01*
X880Y2137D02*
X889Y2137D01*
X1558Y2137D02*
X1567Y2137D01*
X1598Y2137D02*
X1607Y2137D01*
X1650Y2137D02*
X1659Y2137D01*
X1762Y2137D02*
X1772Y2137D01*
X1797Y2137D02*
X1807Y2137D01*
X563Y2136D02*
X572Y2136D01*
X585Y2136D02*
X591Y2136D01*
X603Y2136D02*
X612Y2136D01*
X655Y2136D02*
X664Y2136D01*
X768Y2136D02*
X778Y2136D01*
X788Y2136D02*
X797Y2136D01*
X808Y2136D02*
X817Y2136D01*
X880Y2136D02*
X889Y2136D01*
X1558Y2136D02*
X1567Y2136D01*
X1598Y2136D02*
X1607Y2136D01*
X1650Y2136D02*
X1659Y2136D01*
X1762Y2136D02*
X1772Y2136D01*
X1797Y2136D02*
X1807Y2136D01*
X563Y2135D02*
X572Y2135D01*
X584Y2135D02*
X592Y2135D01*
X603Y2135D02*
X612Y2135D01*
X655Y2135D02*
X664Y2135D01*
X768Y2135D02*
X778Y2135D01*
X788Y2135D02*
X797Y2135D01*
X808Y2135D02*
X817Y2135D01*
X880Y2135D02*
X889Y2135D01*
X1558Y2135D02*
X1567Y2135D01*
X1598Y2135D02*
X1607Y2135D01*
X1650Y2135D02*
X1659Y2135D01*
X1763Y2135D02*
X1772Y2135D01*
X1796Y2135D02*
X1806Y2135D01*
X563Y2134D02*
X572Y2134D01*
X583Y2134D02*
X592Y2134D01*
X603Y2134D02*
X612Y2134D01*
X655Y2134D02*
X664Y2134D01*
X768Y2134D02*
X778Y2134D01*
X788Y2134D02*
X797Y2134D01*
X808Y2134D02*
X817Y2134D01*
X880Y2134D02*
X889Y2134D01*
X1558Y2134D02*
X1568Y2134D01*
X1597Y2134D02*
X1607Y2134D01*
X1650Y2134D02*
X1659Y2134D01*
X1763Y2134D02*
X1773Y2134D01*
X1796Y2134D02*
X1806Y2134D01*
X563Y2133D02*
X572Y2133D01*
X583Y2133D02*
X592Y2133D01*
X603Y2133D02*
X612Y2133D01*
X655Y2133D02*
X664Y2133D01*
X768Y2133D02*
X778Y2133D01*
X788Y2133D02*
X797Y2133D01*
X808Y2133D02*
X817Y2133D01*
X880Y2133D02*
X889Y2133D01*
X1558Y2133D02*
X1568Y2133D01*
X1597Y2133D02*
X1607Y2133D01*
X1650Y2133D02*
X1659Y2133D01*
X1763Y2133D02*
X1773Y2133D01*
X1795Y2133D02*
X1805Y2133D01*
X563Y2132D02*
X572Y2132D01*
X583Y2132D02*
X592Y2132D01*
X603Y2132D02*
X612Y2132D01*
X655Y2132D02*
X664Y2132D01*
X768Y2132D02*
X778Y2132D01*
X788Y2132D02*
X797Y2132D01*
X808Y2132D02*
X817Y2132D01*
X848Y2132D02*
X889Y2132D01*
X1559Y2132D02*
X1569Y2132D01*
X1597Y2132D02*
X1607Y2132D01*
X1650Y2132D02*
X1659Y2132D01*
X1764Y2132D02*
X1774Y2132D01*
X1795Y2132D02*
X1805Y2132D01*
X563Y2131D02*
X572Y2131D01*
X583Y2131D02*
X592Y2131D01*
X603Y2131D02*
X612Y2131D01*
X655Y2131D02*
X664Y2131D01*
X768Y2131D02*
X778Y2131D01*
X788Y2131D02*
X797Y2131D01*
X808Y2131D02*
X817Y2131D01*
X845Y2131D02*
X889Y2131D01*
X1559Y2131D02*
X1569Y2131D01*
X1596Y2131D02*
X1606Y2131D01*
X1650Y2131D02*
X1659Y2131D01*
X1764Y2131D02*
X1774Y2131D01*
X1795Y2131D02*
X1805Y2131D01*
X563Y2130D02*
X572Y2130D01*
X583Y2130D02*
X592Y2130D01*
X603Y2130D02*
X612Y2130D01*
X655Y2130D02*
X664Y2130D01*
X768Y2130D02*
X778Y2130D01*
X788Y2130D02*
X797Y2130D01*
X808Y2130D02*
X817Y2130D01*
X844Y2130D02*
X889Y2130D01*
X1560Y2130D02*
X1569Y2130D01*
X1596Y2130D02*
X1606Y2130D01*
X1650Y2130D02*
X1659Y2130D01*
X1764Y2130D02*
X1774Y2130D01*
X1794Y2130D02*
X1804Y2130D01*
X1834Y2130D02*
X1878Y2130D01*
X563Y2129D02*
X572Y2129D01*
X583Y2129D02*
X592Y2129D01*
X603Y2129D02*
X612Y2129D01*
X655Y2129D02*
X664Y2129D01*
X768Y2129D02*
X778Y2129D01*
X788Y2129D02*
X797Y2129D01*
X808Y2129D02*
X817Y2129D01*
X843Y2129D02*
X889Y2129D01*
X1560Y2129D02*
X1570Y2129D01*
X1596Y2129D02*
X1605Y2129D01*
X1650Y2129D02*
X1659Y2129D01*
X1765Y2129D02*
X1775Y2129D01*
X1794Y2129D02*
X1804Y2129D01*
X1833Y2129D02*
X1880Y2129D01*
X563Y2128D02*
X572Y2128D01*
X583Y2128D02*
X592Y2128D01*
X603Y2128D02*
X612Y2128D01*
X655Y2128D02*
X664Y2128D01*
X768Y2128D02*
X778Y2128D01*
X788Y2128D02*
X797Y2128D01*
X808Y2128D02*
X817Y2128D01*
X842Y2128D02*
X888Y2128D01*
X1560Y2128D02*
X1570Y2128D01*
X1595Y2128D02*
X1605Y2128D01*
X1650Y2128D02*
X1659Y2128D01*
X1765Y2128D02*
X1775Y2128D01*
X1794Y2128D02*
X1803Y2128D01*
X1832Y2128D02*
X1880Y2128D01*
X563Y2127D02*
X572Y2127D01*
X583Y2127D02*
X592Y2127D01*
X603Y2127D02*
X612Y2127D01*
X655Y2127D02*
X664Y2127D01*
X768Y2127D02*
X778Y2127D01*
X788Y2127D02*
X797Y2127D01*
X808Y2127D02*
X817Y2127D01*
X842Y2127D02*
X888Y2127D01*
X1561Y2127D02*
X1571Y2127D01*
X1595Y2127D02*
X1605Y2127D01*
X1650Y2127D02*
X1659Y2127D01*
X1766Y2127D02*
X1776Y2127D01*
X1793Y2127D02*
X1803Y2127D01*
X1832Y2127D02*
X1881Y2127D01*
X563Y2126D02*
X572Y2126D01*
X583Y2126D02*
X592Y2126D01*
X603Y2126D02*
X612Y2126D01*
X655Y2126D02*
X664Y2126D01*
X768Y2126D02*
X778Y2126D01*
X788Y2126D02*
X797Y2126D01*
X808Y2126D02*
X817Y2126D01*
X841Y2126D02*
X887Y2126D01*
X1561Y2126D02*
X1571Y2126D01*
X1594Y2126D02*
X1604Y2126D01*
X1650Y2126D02*
X1659Y2126D01*
X1766Y2126D02*
X1776Y2126D01*
X1793Y2126D02*
X1803Y2126D01*
X1832Y2126D02*
X1881Y2126D01*
X563Y2125D02*
X572Y2125D01*
X583Y2125D02*
X592Y2125D01*
X603Y2125D02*
X612Y2125D01*
X655Y2125D02*
X664Y2125D01*
X768Y2125D02*
X778Y2125D01*
X788Y2125D02*
X797Y2125D01*
X808Y2125D02*
X817Y2125D01*
X841Y2125D02*
X886Y2125D01*
X1561Y2125D02*
X1571Y2125D01*
X1594Y2125D02*
X1604Y2125D01*
X1650Y2125D02*
X1659Y2125D01*
X1766Y2125D02*
X1776Y2125D01*
X1792Y2125D02*
X1802Y2125D01*
X1832Y2125D02*
X1881Y2125D01*
X563Y2124D02*
X572Y2124D01*
X583Y2124D02*
X592Y2124D01*
X603Y2124D02*
X612Y2124D01*
X655Y2124D02*
X664Y2124D01*
X768Y2124D02*
X778Y2124D01*
X788Y2124D02*
X797Y2124D01*
X808Y2124D02*
X817Y2124D01*
X841Y2124D02*
X885Y2124D01*
X1562Y2124D02*
X1572Y2124D01*
X1594Y2124D02*
X1603Y2124D01*
X1650Y2124D02*
X1659Y2124D01*
X1767Y2124D02*
X1777Y2124D01*
X1792Y2124D02*
X1802Y2124D01*
X1832Y2124D02*
X1881Y2124D01*
X563Y2123D02*
X572Y2123D01*
X583Y2123D02*
X592Y2123D01*
X603Y2123D02*
X612Y2123D01*
X655Y2123D02*
X664Y2123D01*
X768Y2123D02*
X778Y2123D01*
X788Y2123D02*
X797Y2123D01*
X808Y2123D02*
X817Y2123D01*
X840Y2123D02*
X883Y2123D01*
X1562Y2123D02*
X1572Y2123D01*
X1593Y2123D02*
X1603Y2123D01*
X1650Y2123D02*
X1659Y2123D01*
X1767Y2123D02*
X1777Y2123D01*
X1792Y2123D02*
X1801Y2123D01*
X1832Y2123D02*
X1881Y2123D01*
X563Y2122D02*
X572Y2122D01*
X583Y2122D02*
X592Y2122D01*
X603Y2122D02*
X612Y2122D01*
X655Y2122D02*
X664Y2122D01*
X768Y2122D02*
X778Y2122D01*
X788Y2122D02*
X797Y2122D01*
X808Y2122D02*
X817Y2122D01*
X840Y2122D02*
X850Y2122D01*
X1563Y2122D02*
X1573Y2122D01*
X1593Y2122D02*
X1603Y2122D01*
X1633Y2122D02*
X1676Y2122D01*
X1768Y2122D02*
X1778Y2122D01*
X1791Y2122D02*
X1801Y2122D01*
X1832Y2122D02*
X1881Y2122D01*
X563Y2121D02*
X572Y2121D01*
X583Y2121D02*
X592Y2121D01*
X603Y2121D02*
X612Y2121D01*
X655Y2121D02*
X664Y2121D01*
X768Y2121D02*
X778Y2121D01*
X788Y2121D02*
X797Y2121D01*
X808Y2121D02*
X817Y2121D01*
X840Y2121D02*
X850Y2121D01*
X1563Y2121D02*
X1573Y2121D01*
X1592Y2121D02*
X1602Y2121D01*
X1632Y2121D02*
X1677Y2121D01*
X1768Y2121D02*
X1778Y2121D01*
X1791Y2121D02*
X1801Y2121D01*
X1832Y2121D02*
X1881Y2121D01*
X563Y2120D02*
X572Y2120D01*
X583Y2120D02*
X592Y2120D01*
X603Y2120D02*
X612Y2120D01*
X655Y2120D02*
X664Y2120D01*
X678Y2120D02*
X681Y2120D01*
X768Y2120D02*
X778Y2120D01*
X788Y2120D02*
X797Y2120D01*
X808Y2120D02*
X817Y2120D01*
X840Y2120D02*
X850Y2120D01*
X1563Y2120D02*
X1573Y2120D01*
X1592Y2120D02*
X1602Y2120D01*
X1631Y2120D02*
X1678Y2120D01*
X1768Y2120D02*
X1778Y2120D01*
X1790Y2120D02*
X1800Y2120D01*
X1832Y2120D02*
X1881Y2120D01*
X563Y2119D02*
X572Y2119D01*
X583Y2119D02*
X592Y2119D01*
X603Y2119D02*
X612Y2119D01*
X655Y2119D02*
X664Y2119D01*
X676Y2119D02*
X683Y2119D01*
X768Y2119D02*
X778Y2119D01*
X788Y2119D02*
X797Y2119D01*
X808Y2119D02*
X817Y2119D01*
X840Y2119D02*
X850Y2119D01*
X1564Y2119D02*
X1574Y2119D01*
X1592Y2119D02*
X1601Y2119D01*
X1631Y2119D02*
X1679Y2119D01*
X1769Y2119D02*
X1779Y2119D01*
X1790Y2119D02*
X1800Y2119D01*
X1833Y2119D02*
X1880Y2119D01*
X563Y2118D02*
X572Y2118D01*
X583Y2118D02*
X592Y2118D01*
X603Y2118D02*
X612Y2118D01*
X655Y2118D02*
X664Y2118D01*
X676Y2118D02*
X683Y2118D01*
X768Y2118D02*
X778Y2118D01*
X788Y2118D02*
X797Y2118D01*
X808Y2118D02*
X817Y2118D01*
X840Y2118D02*
X850Y2118D01*
X1564Y2118D02*
X1574Y2118D01*
X1591Y2118D02*
X1601Y2118D01*
X1630Y2118D02*
X1679Y2118D01*
X1769Y2118D02*
X1779Y2118D01*
X1790Y2118D02*
X1800Y2118D01*
X1833Y2118D02*
X1879Y2118D01*
X563Y2117D02*
X572Y2117D01*
X583Y2117D02*
X592Y2117D01*
X603Y2117D02*
X612Y2117D01*
X655Y2117D02*
X664Y2117D01*
X675Y2117D02*
X684Y2117D01*
X768Y2117D02*
X778Y2117D01*
X788Y2117D02*
X797Y2117D01*
X808Y2117D02*
X817Y2117D01*
X840Y2117D02*
X850Y2117D01*
X1565Y2117D02*
X1575Y2117D01*
X1591Y2117D02*
X1601Y2117D01*
X1630Y2117D02*
X1679Y2117D01*
X1770Y2117D02*
X1779Y2117D01*
X1789Y2117D02*
X1799Y2117D01*
X1835Y2117D02*
X1878Y2117D01*
X563Y2116D02*
X572Y2116D01*
X583Y2116D02*
X592Y2116D01*
X603Y2116D02*
X612Y2116D01*
X655Y2116D02*
X664Y2116D01*
X675Y2116D02*
X684Y2116D01*
X768Y2116D02*
X778Y2116D01*
X788Y2116D02*
X797Y2116D01*
X808Y2116D02*
X817Y2116D01*
X840Y2116D02*
X850Y2116D01*
X1565Y2116D02*
X1575Y2116D01*
X1590Y2116D02*
X1600Y2116D01*
X1630Y2116D02*
X1679Y2116D01*
X1770Y2116D02*
X1780Y2116D01*
X1789Y2116D02*
X1799Y2116D01*
X563Y2115D02*
X572Y2115D01*
X583Y2115D02*
X592Y2115D01*
X603Y2115D02*
X612Y2115D01*
X655Y2115D02*
X664Y2115D01*
X675Y2115D02*
X684Y2115D01*
X768Y2115D02*
X778Y2115D01*
X788Y2115D02*
X797Y2115D01*
X808Y2115D02*
X817Y2115D01*
X840Y2115D02*
X850Y2115D01*
X1565Y2115D02*
X1575Y2115D01*
X1590Y2115D02*
X1600Y2115D01*
X1631Y2115D02*
X1678Y2115D01*
X1770Y2115D02*
X1780Y2115D01*
X1788Y2115D02*
X1798Y2115D01*
X563Y2114D02*
X572Y2114D01*
X583Y2114D02*
X592Y2114D01*
X603Y2114D02*
X612Y2114D01*
X655Y2114D02*
X664Y2114D01*
X675Y2114D02*
X684Y2114D01*
X768Y2114D02*
X778Y2114D01*
X788Y2114D02*
X797Y2114D01*
X808Y2114D02*
X817Y2114D01*
X840Y2114D02*
X850Y2114D01*
X1566Y2114D02*
X1576Y2114D01*
X1590Y2114D02*
X1600Y2114D01*
X1631Y2114D02*
X1678Y2114D01*
X1771Y2114D02*
X1781Y2114D01*
X1788Y2114D02*
X1798Y2114D01*
X563Y2113D02*
X572Y2113D01*
X583Y2113D02*
X592Y2113D01*
X603Y2113D02*
X612Y2113D01*
X655Y2113D02*
X664Y2113D01*
X675Y2113D02*
X684Y2113D01*
X768Y2113D02*
X778Y2113D01*
X788Y2113D02*
X797Y2113D01*
X808Y2113D02*
X817Y2113D01*
X840Y2113D02*
X850Y2113D01*
X1566Y2113D02*
X1576Y2113D01*
X1589Y2113D02*
X1599Y2113D01*
X1633Y2113D02*
X1676Y2113D01*
X1771Y2113D02*
X1781Y2113D01*
X1788Y2113D02*
X1798Y2113D01*
X563Y2112D02*
X572Y2112D01*
X583Y2112D02*
X592Y2112D01*
X603Y2112D02*
X612Y2112D01*
X655Y2112D02*
X664Y2112D01*
X675Y2112D02*
X684Y2112D01*
X768Y2112D02*
X778Y2112D01*
X788Y2112D02*
X797Y2112D01*
X808Y2112D02*
X817Y2112D01*
X840Y2112D02*
X850Y2112D01*
X1567Y2112D02*
X1576Y2112D01*
X1589Y2112D02*
X1599Y2112D01*
X1650Y2112D02*
X1659Y2112D01*
X1771Y2112D02*
X1781Y2112D01*
X1787Y2112D02*
X1797Y2112D01*
X563Y2111D02*
X572Y2111D01*
X583Y2111D02*
X592Y2111D01*
X603Y2111D02*
X612Y2111D01*
X655Y2111D02*
X664Y2111D01*
X675Y2111D02*
X684Y2111D01*
X768Y2111D02*
X778Y2111D01*
X788Y2111D02*
X797Y2111D01*
X808Y2111D02*
X817Y2111D01*
X840Y2111D02*
X850Y2111D01*
X1567Y2111D02*
X1577Y2111D01*
X1588Y2111D02*
X1598Y2111D01*
X1650Y2111D02*
X1659Y2111D01*
X1772Y2111D02*
X1782Y2111D01*
X1787Y2111D02*
X1797Y2111D01*
X563Y2110D02*
X572Y2110D01*
X583Y2110D02*
X592Y2110D01*
X603Y2110D02*
X612Y2110D01*
X655Y2110D02*
X664Y2110D01*
X675Y2110D02*
X684Y2110D01*
X768Y2110D02*
X778Y2110D01*
X788Y2110D02*
X797Y2110D01*
X808Y2110D02*
X817Y2110D01*
X840Y2110D02*
X850Y2110D01*
X1567Y2110D02*
X1577Y2110D01*
X1588Y2110D02*
X1598Y2110D01*
X1650Y2110D02*
X1659Y2110D01*
X1772Y2110D02*
X1782Y2110D01*
X1786Y2110D02*
X1796Y2110D01*
X563Y2109D02*
X572Y2109D01*
X583Y2109D02*
X592Y2109D01*
X603Y2109D02*
X612Y2109D01*
X655Y2109D02*
X664Y2109D01*
X675Y2109D02*
X684Y2109D01*
X768Y2109D02*
X778Y2109D01*
X788Y2109D02*
X797Y2109D01*
X808Y2109D02*
X817Y2109D01*
X840Y2109D02*
X850Y2109D01*
X1568Y2109D02*
X1578Y2109D01*
X1588Y2109D02*
X1598Y2109D01*
X1650Y2109D02*
X1659Y2109D01*
X1773Y2109D02*
X1783Y2109D01*
X1786Y2109D02*
X1796Y2109D01*
X563Y2108D02*
X572Y2108D01*
X583Y2108D02*
X592Y2108D01*
X603Y2108D02*
X612Y2108D01*
X655Y2108D02*
X664Y2108D01*
X675Y2108D02*
X684Y2108D01*
X768Y2108D02*
X778Y2108D01*
X788Y2108D02*
X797Y2108D01*
X808Y2108D02*
X817Y2108D01*
X840Y2108D02*
X850Y2108D01*
X1568Y2108D02*
X1578Y2108D01*
X1587Y2108D02*
X1597Y2108D01*
X1650Y2108D02*
X1659Y2108D01*
X1773Y2108D02*
X1783Y2108D01*
X1786Y2108D02*
X1796Y2108D01*
X563Y2107D02*
X572Y2107D01*
X583Y2107D02*
X592Y2107D01*
X603Y2107D02*
X612Y2107D01*
X655Y2107D02*
X664Y2107D01*
X675Y2107D02*
X684Y2107D01*
X768Y2107D02*
X778Y2107D01*
X788Y2107D02*
X797Y2107D01*
X808Y2107D02*
X817Y2107D01*
X840Y2107D02*
X850Y2107D01*
X1568Y2107D02*
X1578Y2107D01*
X1587Y2107D02*
X1597Y2107D01*
X1650Y2107D02*
X1659Y2107D01*
X1773Y2107D02*
X1783Y2107D01*
X1785Y2107D02*
X1795Y2107D01*
X563Y2106D02*
X572Y2106D01*
X583Y2106D02*
X592Y2106D01*
X603Y2106D02*
X612Y2106D01*
X655Y2106D02*
X664Y2106D01*
X675Y2106D02*
X684Y2106D01*
X768Y2106D02*
X778Y2106D01*
X788Y2106D02*
X797Y2106D01*
X808Y2106D02*
X817Y2106D01*
X840Y2106D02*
X850Y2106D01*
X1569Y2106D02*
X1579Y2106D01*
X1587Y2106D02*
X1596Y2106D01*
X1650Y2106D02*
X1659Y2106D01*
X1774Y2106D02*
X1795Y2106D01*
X563Y2105D02*
X572Y2105D01*
X583Y2105D02*
X592Y2105D01*
X603Y2105D02*
X612Y2105D01*
X655Y2105D02*
X664Y2105D01*
X675Y2105D02*
X684Y2105D01*
X768Y2105D02*
X778Y2105D01*
X788Y2105D02*
X797Y2105D01*
X808Y2105D02*
X817Y2105D01*
X840Y2105D02*
X850Y2105D01*
X1569Y2105D02*
X1579Y2105D01*
X1586Y2105D02*
X1596Y2105D01*
X1650Y2105D02*
X1659Y2105D01*
X1774Y2105D02*
X1794Y2105D01*
X563Y2104D02*
X572Y2104D01*
X583Y2104D02*
X592Y2104D01*
X603Y2104D02*
X612Y2104D01*
X655Y2104D02*
X664Y2104D01*
X675Y2104D02*
X684Y2104D01*
X768Y2104D02*
X778Y2104D01*
X788Y2104D02*
X797Y2104D01*
X808Y2104D02*
X817Y2104D01*
X840Y2104D02*
X850Y2104D01*
X1570Y2104D02*
X1580Y2104D01*
X1586Y2104D02*
X1596Y2104D01*
X1650Y2104D02*
X1659Y2104D01*
X1775Y2104D02*
X1794Y2104D01*
X563Y2103D02*
X572Y2103D01*
X583Y2103D02*
X592Y2103D01*
X603Y2103D02*
X612Y2103D01*
X655Y2103D02*
X664Y2103D01*
X675Y2103D02*
X684Y2103D01*
X768Y2103D02*
X778Y2103D01*
X788Y2103D02*
X798Y2103D01*
X808Y2103D02*
X817Y2103D01*
X840Y2103D02*
X850Y2103D01*
X1570Y2103D02*
X1580Y2103D01*
X1585Y2103D02*
X1595Y2103D01*
X1650Y2103D02*
X1659Y2103D01*
X1775Y2103D02*
X1794Y2103D01*
X563Y2102D02*
X572Y2102D01*
X583Y2102D02*
X592Y2102D01*
X603Y2102D02*
X612Y2102D01*
X655Y2102D02*
X664Y2102D01*
X675Y2102D02*
X684Y2102D01*
X768Y2102D02*
X778Y2102D01*
X787Y2102D02*
X798Y2102D01*
X807Y2102D02*
X817Y2102D01*
X840Y2102D02*
X850Y2102D01*
X1570Y2102D02*
X1580Y2102D01*
X1585Y2102D02*
X1595Y2102D01*
X1650Y2102D02*
X1659Y2102D01*
X1775Y2102D02*
X1793Y2102D01*
X563Y2101D02*
X572Y2101D01*
X583Y2101D02*
X592Y2101D01*
X603Y2101D02*
X612Y2101D01*
X655Y2101D02*
X664Y2101D01*
X675Y2101D02*
X684Y2101D01*
X768Y2101D02*
X779Y2101D01*
X787Y2101D02*
X799Y2101D01*
X807Y2101D02*
X817Y2101D01*
X840Y2101D02*
X850Y2101D01*
X1571Y2101D02*
X1581Y2101D01*
X1585Y2101D02*
X1594Y2101D01*
X1650Y2101D02*
X1659Y2101D01*
X1776Y2101D02*
X1793Y2101D01*
X563Y2100D02*
X572Y2100D01*
X583Y2100D02*
X592Y2100D01*
X603Y2100D02*
X612Y2100D01*
X655Y2100D02*
X664Y2100D01*
X675Y2100D02*
X684Y2100D01*
X769Y2100D02*
X780Y2100D01*
X786Y2100D02*
X799Y2100D01*
X806Y2100D02*
X817Y2100D01*
X840Y2100D02*
X850Y2100D01*
X1571Y2100D02*
X1581Y2100D01*
X1584Y2100D02*
X1594Y2100D01*
X1650Y2100D02*
X1659Y2100D01*
X1776Y2100D02*
X1792Y2100D01*
X563Y2099D02*
X573Y2099D01*
X582Y2099D02*
X593Y2099D01*
X602Y2099D02*
X612Y2099D01*
X655Y2099D02*
X664Y2099D01*
X675Y2099D02*
X684Y2099D01*
X769Y2099D02*
X780Y2099D01*
X786Y2099D02*
X800Y2099D01*
X806Y2099D02*
X816Y2099D01*
X840Y2099D02*
X850Y2099D01*
X1572Y2099D02*
X1582Y2099D01*
X1584Y2099D02*
X1594Y2099D01*
X1650Y2099D02*
X1659Y2099D01*
X1777Y2099D02*
X1792Y2099D01*
X563Y2098D02*
X574Y2098D01*
X582Y2098D02*
X593Y2098D01*
X602Y2098D02*
X612Y2098D01*
X655Y2098D02*
X664Y2098D01*
X675Y2098D02*
X684Y2098D01*
X770Y2098D02*
X816Y2098D01*
X840Y2098D02*
X886Y2098D01*
X1572Y2098D02*
X1593Y2098D01*
X1650Y2098D02*
X1659Y2098D01*
X1777Y2098D02*
X1792Y2098D01*
X563Y2097D02*
X574Y2097D01*
X581Y2097D02*
X594Y2097D01*
X601Y2097D02*
X612Y2097D01*
X655Y2097D02*
X664Y2097D01*
X675Y2097D02*
X684Y2097D01*
X771Y2097D02*
X815Y2097D01*
X840Y2097D02*
X888Y2097D01*
X1572Y2097D02*
X1593Y2097D01*
X1650Y2097D02*
X1659Y2097D01*
X1777Y2097D02*
X1791Y2097D01*
X564Y2096D02*
X575Y2096D01*
X581Y2096D02*
X595Y2096D01*
X601Y2096D02*
X611Y2096D01*
X655Y2096D02*
X664Y2096D01*
X675Y2096D02*
X684Y2096D01*
X771Y2096D02*
X815Y2096D01*
X840Y2096D02*
X889Y2096D01*
X1573Y2096D02*
X1593Y2096D01*
X1650Y2096D02*
X1659Y2096D01*
X1778Y2096D02*
X1791Y2096D01*
X565Y2095D02*
X611Y2095D01*
X639Y2095D02*
X684Y2095D01*
X772Y2095D02*
X814Y2095D01*
X840Y2095D02*
X889Y2095D01*
X1573Y2095D02*
X1592Y2095D01*
X1651Y2095D02*
X1658Y2095D01*
X1778Y2095D02*
X1791Y2095D01*
X565Y2094D02*
X610Y2094D01*
X637Y2094D02*
X684Y2094D01*
X772Y2094D02*
X813Y2094D01*
X840Y2094D02*
X889Y2094D01*
X1574Y2094D02*
X1592Y2094D01*
X1651Y2094D02*
X1658Y2094D01*
X1778Y2094D02*
X1790Y2094D01*
X566Y2093D02*
X610Y2093D01*
X636Y2093D02*
X684Y2093D01*
X773Y2093D02*
X813Y2093D01*
X840Y2093D02*
X889Y2093D01*
X1574Y2093D02*
X1591Y2093D01*
X1653Y2093D02*
X1656Y2093D01*
X1779Y2093D02*
X1790Y2093D01*
X566Y2092D02*
X609Y2092D01*
X636Y2092D02*
X684Y2092D01*
X773Y2092D02*
X812Y2092D01*
X840Y2092D02*
X889Y2092D01*
X1574Y2092D02*
X1591Y2092D01*
X1779Y2092D02*
X1789Y2092D01*
X567Y2091D02*
X608Y2091D01*
X635Y2091D02*
X684Y2091D01*
X774Y2091D02*
X792Y2091D01*
X794Y2091D02*
X812Y2091D01*
X840Y2091D02*
X889Y2091D01*
X1575Y2091D02*
X1591Y2091D01*
X1780Y2091D02*
X1789Y2091D01*
X568Y2090D02*
X608Y2090D01*
X635Y2090D02*
X684Y2090D01*
X775Y2090D02*
X791Y2090D01*
X795Y2090D02*
X811Y2090D01*
X840Y2090D02*
X888Y2090D01*
X1575Y2090D02*
X1590Y2090D01*
X1780Y2090D02*
X1789Y2090D01*
X568Y2089D02*
X607Y2089D01*
X635Y2089D02*
X684Y2089D01*
X776Y2089D02*
X790Y2089D01*
X796Y2089D02*
X810Y2089D01*
X840Y2089D02*
X887Y2089D01*
X1575Y2089D02*
X1590Y2089D01*
X1781Y2089D02*
X1788Y2089D01*
X569Y2088D02*
X587Y2088D01*
X589Y2088D02*
X607Y2088D01*
X636Y2088D02*
X684Y2088D01*
X1576Y2088D02*
X1589Y2088D01*
X1781Y2088D02*
X1787Y2088D01*
X569Y2087D02*
X586Y2087D01*
X589Y2087D02*
X606Y2087D01*
X636Y2087D02*
X683Y2087D01*
X1576Y2087D02*
X1589Y2087D01*
X1783Y2087D02*
X1786Y2087D01*
X570Y2086D02*
X585Y2086D01*
X590Y2086D02*
X605Y2086D01*
X637Y2086D02*
X682Y2086D01*
X1577Y2086D02*
X1589Y2086D01*
X1577Y2085D02*
X1588Y2085D01*
X1577Y2084D02*
X1588Y2084D01*
X1578Y2083D02*
X1587Y2083D01*
X1578Y2082D02*
X1587Y2082D01*
X1579Y2081D02*
X1587Y2081D01*
X1579Y2080D02*
X1586Y2080D01*
X1580Y2079D02*
X1585Y2079D01*
X1325Y1855D02*
X1329Y1855D01*
X1324Y1854D02*
X1330Y1854D01*
X1323Y1853D02*
X1330Y1853D01*
X1323Y1852D02*
X1330Y1852D01*
X1323Y1851D02*
X1330Y1851D01*
X900Y1850D02*
X901Y1850D01*
X1323Y1850D02*
X1330Y1850D01*
X898Y1849D02*
X903Y1849D01*
X1323Y1849D02*
X1330Y1849D01*
X897Y1848D02*
X903Y1848D01*
X1323Y1848D02*
X1330Y1848D01*
X897Y1847D02*
X904Y1847D01*
X1323Y1847D02*
X1330Y1847D01*
X897Y1846D02*
X904Y1846D01*
X1323Y1846D02*
X1330Y1846D01*
X897Y1845D02*
X904Y1845D01*
X1323Y1845D02*
X1330Y1845D01*
X897Y1844D02*
X904Y1844D01*
X1323Y1844D02*
X1330Y1844D01*
X897Y1843D02*
X904Y1843D01*
X1323Y1843D02*
X1330Y1843D01*
X897Y1842D02*
X904Y1842D01*
X1323Y1842D02*
X1330Y1842D01*
X897Y1841D02*
X904Y1841D01*
X1323Y1841D02*
X1330Y1841D01*
X897Y1840D02*
X904Y1840D01*
X1323Y1840D02*
X1330Y1840D01*
X1468Y1840D02*
X1471Y1840D01*
X1480Y1840D02*
X1490Y1840D01*
X897Y1839D02*
X904Y1839D01*
X1323Y1839D02*
X1330Y1839D01*
X1355Y1839D02*
X1357Y1839D01*
X1387Y1839D02*
X1388Y1839D01*
X1411Y1839D02*
X1413Y1839D01*
X1421Y1839D02*
X1424Y1839D01*
X1467Y1839D02*
X1472Y1839D01*
X1479Y1839D02*
X1492Y1839D01*
X897Y1838D02*
X904Y1838D01*
X1323Y1838D02*
X1330Y1838D01*
X1354Y1838D02*
X1358Y1838D01*
X1385Y1838D02*
X1390Y1838D01*
X1410Y1838D02*
X1414Y1838D01*
X1419Y1838D02*
X1427Y1838D01*
X1434Y1838D02*
X1442Y1838D01*
X1466Y1838D02*
X1473Y1838D01*
X1477Y1838D02*
X1493Y1838D01*
X897Y1837D02*
X904Y1837D01*
X1323Y1837D02*
X1330Y1837D01*
X1353Y1837D02*
X1359Y1837D01*
X1384Y1837D02*
X1390Y1837D01*
X1409Y1837D02*
X1415Y1837D01*
X1417Y1837D02*
X1428Y1837D01*
X1433Y1837D02*
X1443Y1837D01*
X1466Y1837D02*
X1473Y1837D01*
X1476Y1837D02*
X1495Y1837D01*
X897Y1836D02*
X904Y1836D01*
X1323Y1836D02*
X1330Y1836D01*
X1353Y1836D02*
X1359Y1836D01*
X1384Y1836D02*
X1391Y1836D01*
X1409Y1836D02*
X1429Y1836D01*
X1432Y1836D02*
X1444Y1836D01*
X1466Y1836D02*
X1473Y1836D01*
X1475Y1836D02*
X1496Y1836D01*
X897Y1835D02*
X904Y1835D01*
X1043Y1835D02*
X1043Y1835D01*
X1057Y1835D02*
X1061Y1835D01*
X1323Y1835D02*
X1330Y1835D01*
X1353Y1835D02*
X1360Y1835D01*
X1384Y1835D02*
X1391Y1835D01*
X1409Y1835D02*
X1445Y1835D01*
X1466Y1835D02*
X1497Y1835D01*
X897Y1834D02*
X904Y1834D01*
X1041Y1834D02*
X1045Y1834D01*
X1053Y1834D02*
X1064Y1834D01*
X1323Y1834D02*
X1330Y1834D01*
X1353Y1834D02*
X1360Y1834D01*
X1384Y1834D02*
X1391Y1834D01*
X1409Y1834D02*
X1446Y1834D01*
X1466Y1834D02*
X1498Y1834D01*
X897Y1833D02*
X904Y1833D01*
X928Y1833D02*
X931Y1833D01*
X960Y1833D02*
X962Y1833D01*
X984Y1833D02*
X987Y1833D01*
X994Y1833D02*
X999Y1833D01*
X1010Y1833D02*
X1013Y1833D01*
X1040Y1833D02*
X1046Y1833D01*
X1052Y1833D02*
X1066Y1833D01*
X1323Y1833D02*
X1330Y1833D01*
X1353Y1833D02*
X1360Y1833D01*
X1384Y1833D02*
X1391Y1833D01*
X1409Y1833D02*
X1446Y1833D01*
X1466Y1833D02*
X1499Y1833D01*
X897Y1832D02*
X904Y1832D01*
X927Y1832D02*
X932Y1832D01*
X958Y1832D02*
X963Y1832D01*
X983Y1832D02*
X988Y1832D01*
X992Y1832D02*
X1001Y1832D01*
X1007Y1832D02*
X1016Y1832D01*
X1040Y1832D02*
X1046Y1832D01*
X1051Y1832D02*
X1067Y1832D01*
X1323Y1832D02*
X1330Y1832D01*
X1353Y1832D02*
X1360Y1832D01*
X1384Y1832D02*
X1391Y1832D01*
X1409Y1832D02*
X1447Y1832D01*
X1466Y1832D02*
X1481Y1832D01*
X1489Y1832D02*
X1500Y1832D01*
X897Y1831D02*
X904Y1831D01*
X927Y1831D02*
X933Y1831D01*
X958Y1831D02*
X964Y1831D01*
X983Y1831D02*
X1002Y1831D01*
X1006Y1831D02*
X1017Y1831D01*
X1040Y1831D02*
X1047Y1831D01*
X1049Y1831D02*
X1068Y1831D01*
X1323Y1831D02*
X1330Y1831D01*
X1353Y1831D02*
X1360Y1831D01*
X1384Y1831D02*
X1391Y1831D01*
X1409Y1831D02*
X1421Y1831D01*
X1424Y1831D02*
X1437Y1831D01*
X1439Y1831D02*
X1447Y1831D01*
X1466Y1831D02*
X1480Y1831D01*
X1490Y1831D02*
X1501Y1831D01*
X897Y1830D02*
X904Y1830D01*
X926Y1830D02*
X933Y1830D01*
X958Y1830D02*
X964Y1830D01*
X982Y1830D02*
X1003Y1830D01*
X1005Y1830D02*
X1018Y1830D01*
X1040Y1830D02*
X1070Y1830D01*
X1323Y1830D02*
X1330Y1830D01*
X1353Y1830D02*
X1360Y1830D01*
X1384Y1830D02*
X1391Y1830D01*
X1409Y1830D02*
X1420Y1830D01*
X1425Y1830D02*
X1436Y1830D01*
X1440Y1830D02*
X1447Y1830D01*
X1466Y1830D02*
X1479Y1830D01*
X1491Y1830D02*
X1502Y1830D01*
X897Y1829D02*
X904Y1829D01*
X926Y1829D02*
X933Y1829D01*
X958Y1829D02*
X964Y1829D01*
X982Y1829D02*
X1019Y1829D01*
X1040Y1829D02*
X1071Y1829D01*
X1323Y1829D02*
X1330Y1829D01*
X1353Y1829D02*
X1360Y1829D01*
X1384Y1829D02*
X1391Y1829D01*
X1409Y1829D02*
X1419Y1829D01*
X1425Y1829D02*
X1435Y1829D01*
X1440Y1829D02*
X1447Y1829D01*
X1466Y1829D02*
X1478Y1829D01*
X1492Y1829D02*
X1503Y1829D01*
X897Y1828D02*
X904Y1828D01*
X926Y1828D02*
X933Y1828D01*
X958Y1828D02*
X964Y1828D01*
X982Y1828D02*
X1020Y1828D01*
X1040Y1828D02*
X1072Y1828D01*
X1323Y1828D02*
X1330Y1828D01*
X1353Y1828D02*
X1360Y1828D01*
X1384Y1828D02*
X1391Y1828D01*
X1409Y1828D02*
X1418Y1828D01*
X1425Y1828D02*
X1433Y1828D01*
X1440Y1828D02*
X1447Y1828D01*
X1466Y1828D02*
X1477Y1828D01*
X1494Y1828D02*
X1503Y1828D01*
X897Y1827D02*
X904Y1827D01*
X926Y1827D02*
X933Y1827D01*
X958Y1827D02*
X964Y1827D01*
X982Y1827D02*
X1020Y1827D01*
X1040Y1827D02*
X1056Y1827D01*
X1061Y1827D02*
X1073Y1827D01*
X1323Y1827D02*
X1330Y1827D01*
X1353Y1827D02*
X1360Y1827D01*
X1384Y1827D02*
X1391Y1827D01*
X1409Y1827D02*
X1417Y1827D01*
X1425Y1827D02*
X1432Y1827D01*
X1440Y1827D02*
X1447Y1827D01*
X1466Y1827D02*
X1476Y1827D01*
X1495Y1827D02*
X1504Y1827D01*
X897Y1826D02*
X904Y1826D01*
X926Y1826D02*
X933Y1826D01*
X958Y1826D02*
X964Y1826D01*
X982Y1826D02*
X1020Y1826D01*
X1040Y1826D02*
X1055Y1826D01*
X1063Y1826D02*
X1074Y1826D01*
X1323Y1826D02*
X1330Y1826D01*
X1353Y1826D02*
X1360Y1826D01*
X1384Y1826D02*
X1391Y1826D01*
X1409Y1826D02*
X1416Y1826D01*
X1425Y1826D02*
X1432Y1826D01*
X1440Y1826D02*
X1447Y1826D01*
X1466Y1826D02*
X1475Y1826D01*
X1496Y1826D02*
X1504Y1826D01*
X897Y1825D02*
X904Y1825D01*
X926Y1825D02*
X933Y1825D01*
X958Y1825D02*
X964Y1825D01*
X982Y1825D02*
X995Y1825D01*
X998Y1825D02*
X1010Y1825D01*
X1013Y1825D02*
X1020Y1825D01*
X1040Y1825D02*
X1054Y1825D01*
X1064Y1825D02*
X1075Y1825D01*
X1323Y1825D02*
X1330Y1825D01*
X1353Y1825D02*
X1360Y1825D01*
X1384Y1825D02*
X1391Y1825D01*
X1409Y1825D02*
X1416Y1825D01*
X1425Y1825D02*
X1432Y1825D01*
X1440Y1825D02*
X1447Y1825D01*
X1466Y1825D02*
X1474Y1825D01*
X1497Y1825D02*
X1504Y1825D01*
X897Y1824D02*
X904Y1824D01*
X926Y1824D02*
X933Y1824D01*
X958Y1824D02*
X964Y1824D01*
X982Y1824D02*
X993Y1824D01*
X998Y1824D02*
X1009Y1824D01*
X1014Y1824D02*
X1021Y1824D01*
X1040Y1824D02*
X1053Y1824D01*
X1065Y1824D02*
X1076Y1824D01*
X1323Y1824D02*
X1330Y1824D01*
X1353Y1824D02*
X1360Y1824D01*
X1384Y1824D02*
X1391Y1824D01*
X1409Y1824D02*
X1416Y1824D01*
X1425Y1824D02*
X1432Y1824D01*
X1440Y1824D02*
X1447Y1824D01*
X1466Y1824D02*
X1474Y1824D01*
X1497Y1824D02*
X1504Y1824D01*
X897Y1823D02*
X904Y1823D01*
X926Y1823D02*
X933Y1823D01*
X958Y1823D02*
X964Y1823D01*
X982Y1823D02*
X992Y1823D01*
X999Y1823D02*
X1008Y1823D01*
X1014Y1823D02*
X1021Y1823D01*
X1040Y1823D02*
X1052Y1823D01*
X1066Y1823D02*
X1076Y1823D01*
X1323Y1823D02*
X1330Y1823D01*
X1353Y1823D02*
X1360Y1823D01*
X1384Y1823D02*
X1391Y1823D01*
X1409Y1823D02*
X1416Y1823D01*
X1425Y1823D02*
X1432Y1823D01*
X1440Y1823D02*
X1447Y1823D01*
X1466Y1823D02*
X1473Y1823D01*
X1497Y1823D02*
X1504Y1823D01*
X897Y1822D02*
X904Y1822D01*
X927Y1822D02*
X933Y1822D01*
X958Y1822D02*
X964Y1822D01*
X982Y1822D02*
X991Y1822D01*
X999Y1822D02*
X1007Y1822D01*
X1014Y1822D02*
X1021Y1822D01*
X1040Y1822D02*
X1051Y1822D01*
X1068Y1822D02*
X1077Y1822D01*
X1302Y1822D02*
X1305Y1822D01*
X1323Y1822D02*
X1330Y1822D01*
X1353Y1822D02*
X1360Y1822D01*
X1384Y1822D02*
X1391Y1822D01*
X1409Y1822D02*
X1416Y1822D01*
X1425Y1822D02*
X1432Y1822D01*
X1440Y1822D02*
X1447Y1822D01*
X1466Y1822D02*
X1473Y1822D01*
X1497Y1822D02*
X1504Y1822D01*
X897Y1821D02*
X904Y1821D01*
X927Y1821D02*
X933Y1821D01*
X958Y1821D02*
X964Y1821D01*
X982Y1821D02*
X990Y1821D01*
X999Y1821D02*
X1006Y1821D01*
X1014Y1821D02*
X1021Y1821D01*
X1040Y1821D02*
X1050Y1821D01*
X1069Y1821D02*
X1077Y1821D01*
X1301Y1821D02*
X1306Y1821D01*
X1323Y1821D02*
X1330Y1821D01*
X1353Y1821D02*
X1360Y1821D01*
X1384Y1821D02*
X1391Y1821D01*
X1409Y1821D02*
X1416Y1821D01*
X1425Y1821D02*
X1432Y1821D01*
X1440Y1821D02*
X1447Y1821D01*
X1466Y1821D02*
X1473Y1821D01*
X1497Y1821D02*
X1504Y1821D01*
X897Y1820D02*
X904Y1820D01*
X927Y1820D02*
X933Y1820D01*
X958Y1820D02*
X964Y1820D01*
X982Y1820D02*
X989Y1820D01*
X999Y1820D02*
X1005Y1820D01*
X1014Y1820D02*
X1021Y1820D01*
X1040Y1820D02*
X1049Y1820D01*
X1070Y1820D02*
X1078Y1820D01*
X1300Y1820D02*
X1306Y1820D01*
X1323Y1820D02*
X1330Y1820D01*
X1353Y1820D02*
X1360Y1820D01*
X1384Y1820D02*
X1391Y1820D01*
X1409Y1820D02*
X1416Y1820D01*
X1425Y1820D02*
X1432Y1820D01*
X1440Y1820D02*
X1447Y1820D01*
X1466Y1820D02*
X1473Y1820D01*
X1497Y1820D02*
X1504Y1820D01*
X897Y1819D02*
X904Y1819D01*
X927Y1819D02*
X934Y1819D01*
X958Y1819D02*
X964Y1819D01*
X982Y1819D02*
X989Y1819D01*
X999Y1819D02*
X1005Y1819D01*
X1014Y1819D02*
X1021Y1819D01*
X1040Y1819D02*
X1048Y1819D01*
X1071Y1819D02*
X1078Y1819D01*
X1300Y1819D02*
X1307Y1819D01*
X1323Y1819D02*
X1330Y1819D01*
X1353Y1819D02*
X1360Y1819D01*
X1384Y1819D02*
X1391Y1819D01*
X1409Y1819D02*
X1416Y1819D01*
X1425Y1819D02*
X1432Y1819D01*
X1440Y1819D02*
X1447Y1819D01*
X1466Y1819D02*
X1473Y1819D01*
X1497Y1819D02*
X1504Y1819D01*
X897Y1818D02*
X904Y1818D01*
X927Y1818D02*
X934Y1818D01*
X958Y1818D02*
X964Y1818D01*
X982Y1818D02*
X989Y1818D01*
X999Y1818D02*
X1005Y1818D01*
X1014Y1818D02*
X1021Y1818D01*
X1040Y1818D02*
X1047Y1818D01*
X1071Y1818D02*
X1078Y1818D01*
X1300Y1818D02*
X1307Y1818D01*
X1323Y1818D02*
X1330Y1818D01*
X1353Y1818D02*
X1360Y1818D01*
X1384Y1818D02*
X1391Y1818D01*
X1409Y1818D02*
X1416Y1818D01*
X1425Y1818D02*
X1432Y1818D01*
X1440Y1818D02*
X1447Y1818D01*
X1466Y1818D02*
X1473Y1818D01*
X1497Y1818D02*
X1504Y1818D01*
X897Y1817D02*
X904Y1817D01*
X927Y1817D02*
X934Y1817D01*
X958Y1817D02*
X964Y1817D01*
X982Y1817D02*
X989Y1817D01*
X999Y1817D02*
X1005Y1817D01*
X1014Y1817D02*
X1021Y1817D01*
X1040Y1817D02*
X1047Y1817D01*
X1071Y1817D02*
X1078Y1817D01*
X1300Y1817D02*
X1307Y1817D01*
X1323Y1817D02*
X1330Y1817D01*
X1353Y1817D02*
X1360Y1817D01*
X1384Y1817D02*
X1391Y1817D01*
X1409Y1817D02*
X1416Y1817D01*
X1425Y1817D02*
X1432Y1817D01*
X1440Y1817D02*
X1447Y1817D01*
X1466Y1817D02*
X1473Y1817D01*
X1497Y1817D02*
X1504Y1817D01*
X875Y1816D02*
X879Y1816D01*
X897Y1816D02*
X904Y1816D01*
X927Y1816D02*
X934Y1816D01*
X958Y1816D02*
X964Y1816D01*
X982Y1816D02*
X989Y1816D01*
X999Y1816D02*
X1005Y1816D01*
X1014Y1816D02*
X1021Y1816D01*
X1040Y1816D02*
X1047Y1816D01*
X1071Y1816D02*
X1078Y1816D01*
X1300Y1816D02*
X1307Y1816D01*
X1323Y1816D02*
X1330Y1816D01*
X1353Y1816D02*
X1360Y1816D01*
X1384Y1816D02*
X1391Y1816D01*
X1409Y1816D02*
X1416Y1816D01*
X1425Y1816D02*
X1432Y1816D01*
X1440Y1816D02*
X1447Y1816D01*
X1466Y1816D02*
X1473Y1816D01*
X1497Y1816D02*
X1504Y1816D01*
X874Y1815D02*
X880Y1815D01*
X897Y1815D02*
X904Y1815D01*
X927Y1815D02*
X934Y1815D01*
X958Y1815D02*
X964Y1815D01*
X982Y1815D02*
X989Y1815D01*
X999Y1815D02*
X1005Y1815D01*
X1014Y1815D02*
X1021Y1815D01*
X1040Y1815D02*
X1047Y1815D01*
X1071Y1815D02*
X1078Y1815D01*
X1300Y1815D02*
X1307Y1815D01*
X1323Y1815D02*
X1330Y1815D01*
X1353Y1815D02*
X1360Y1815D01*
X1384Y1815D02*
X1391Y1815D01*
X1409Y1815D02*
X1416Y1815D01*
X1425Y1815D02*
X1432Y1815D01*
X1441Y1815D02*
X1447Y1815D01*
X1466Y1815D02*
X1473Y1815D01*
X1497Y1815D02*
X1504Y1815D01*
X874Y1814D02*
X880Y1814D01*
X897Y1814D02*
X904Y1814D01*
X927Y1814D02*
X934Y1814D01*
X958Y1814D02*
X964Y1814D01*
X982Y1814D02*
X989Y1814D01*
X999Y1814D02*
X1005Y1814D01*
X1014Y1814D02*
X1021Y1814D01*
X1040Y1814D02*
X1047Y1814D01*
X1071Y1814D02*
X1078Y1814D01*
X1300Y1814D02*
X1307Y1814D01*
X1323Y1814D02*
X1330Y1814D01*
X1353Y1814D02*
X1360Y1814D01*
X1384Y1814D02*
X1391Y1814D01*
X1409Y1814D02*
X1416Y1814D01*
X1425Y1814D02*
X1432Y1814D01*
X1441Y1814D02*
X1447Y1814D01*
X1466Y1814D02*
X1473Y1814D01*
X1497Y1814D02*
X1504Y1814D01*
X873Y1813D02*
X880Y1813D01*
X897Y1813D02*
X904Y1813D01*
X927Y1813D02*
X934Y1813D01*
X958Y1813D02*
X964Y1813D01*
X982Y1813D02*
X989Y1813D01*
X999Y1813D02*
X1005Y1813D01*
X1014Y1813D02*
X1021Y1813D01*
X1040Y1813D02*
X1047Y1813D01*
X1071Y1813D02*
X1078Y1813D01*
X1300Y1813D02*
X1307Y1813D01*
X1323Y1813D02*
X1330Y1813D01*
X1353Y1813D02*
X1360Y1813D01*
X1384Y1813D02*
X1391Y1813D01*
X1409Y1813D02*
X1416Y1813D01*
X1425Y1813D02*
X1432Y1813D01*
X1441Y1813D02*
X1448Y1813D01*
X1466Y1813D02*
X1473Y1813D01*
X1497Y1813D02*
X1504Y1813D01*
X873Y1812D02*
X880Y1812D01*
X897Y1812D02*
X904Y1812D01*
X927Y1812D02*
X934Y1812D01*
X958Y1812D02*
X964Y1812D01*
X982Y1812D02*
X989Y1812D01*
X999Y1812D02*
X1005Y1812D01*
X1014Y1812D02*
X1021Y1812D01*
X1040Y1812D02*
X1047Y1812D01*
X1071Y1812D02*
X1078Y1812D01*
X1300Y1812D02*
X1307Y1812D01*
X1323Y1812D02*
X1330Y1812D01*
X1353Y1812D02*
X1360Y1812D01*
X1384Y1812D02*
X1391Y1812D01*
X1409Y1812D02*
X1416Y1812D01*
X1425Y1812D02*
X1432Y1812D01*
X1441Y1812D02*
X1448Y1812D01*
X1466Y1812D02*
X1473Y1812D01*
X1497Y1812D02*
X1504Y1812D01*
X873Y1811D02*
X880Y1811D01*
X897Y1811D02*
X904Y1811D01*
X927Y1811D02*
X934Y1811D01*
X958Y1811D02*
X964Y1811D01*
X982Y1811D02*
X989Y1811D01*
X999Y1811D02*
X1005Y1811D01*
X1014Y1811D02*
X1021Y1811D01*
X1040Y1811D02*
X1047Y1811D01*
X1071Y1811D02*
X1078Y1811D01*
X1300Y1811D02*
X1307Y1811D01*
X1323Y1811D02*
X1330Y1811D01*
X1353Y1811D02*
X1360Y1811D01*
X1384Y1811D02*
X1391Y1811D01*
X1409Y1811D02*
X1416Y1811D01*
X1425Y1811D02*
X1432Y1811D01*
X1441Y1811D02*
X1448Y1811D01*
X1466Y1811D02*
X1473Y1811D01*
X1497Y1811D02*
X1504Y1811D01*
X873Y1810D02*
X880Y1810D01*
X897Y1810D02*
X904Y1810D01*
X927Y1810D02*
X934Y1810D01*
X958Y1810D02*
X964Y1810D01*
X982Y1810D02*
X989Y1810D01*
X999Y1810D02*
X1005Y1810D01*
X1014Y1810D02*
X1021Y1810D01*
X1040Y1810D02*
X1047Y1810D01*
X1071Y1810D02*
X1078Y1810D01*
X1300Y1810D02*
X1307Y1810D01*
X1323Y1810D02*
X1330Y1810D01*
X1353Y1810D02*
X1360Y1810D01*
X1383Y1810D02*
X1391Y1810D01*
X1409Y1810D02*
X1416Y1810D01*
X1425Y1810D02*
X1432Y1810D01*
X1441Y1810D02*
X1448Y1810D01*
X1466Y1810D02*
X1473Y1810D01*
X1497Y1810D02*
X1504Y1810D01*
X873Y1809D02*
X880Y1809D01*
X897Y1809D02*
X904Y1809D01*
X927Y1809D02*
X934Y1809D01*
X958Y1809D02*
X964Y1809D01*
X982Y1809D02*
X989Y1809D01*
X999Y1809D02*
X1005Y1809D01*
X1014Y1809D02*
X1021Y1809D01*
X1040Y1809D02*
X1047Y1809D01*
X1071Y1809D02*
X1078Y1809D01*
X1300Y1809D02*
X1307Y1809D01*
X1323Y1809D02*
X1330Y1809D01*
X1353Y1809D02*
X1360Y1809D01*
X1381Y1809D02*
X1391Y1809D01*
X1409Y1809D02*
X1416Y1809D01*
X1425Y1809D02*
X1432Y1809D01*
X1441Y1809D02*
X1448Y1809D01*
X1466Y1809D02*
X1474Y1809D01*
X1497Y1809D02*
X1504Y1809D01*
X873Y1808D02*
X880Y1808D01*
X897Y1808D02*
X904Y1808D01*
X927Y1808D02*
X934Y1808D01*
X958Y1808D02*
X964Y1808D01*
X982Y1808D02*
X989Y1808D01*
X999Y1808D02*
X1005Y1808D01*
X1014Y1808D02*
X1021Y1808D01*
X1040Y1808D02*
X1047Y1808D01*
X1071Y1808D02*
X1078Y1808D01*
X1300Y1808D02*
X1307Y1808D01*
X1323Y1808D02*
X1330Y1808D01*
X1354Y1808D02*
X1360Y1808D01*
X1380Y1808D02*
X1391Y1808D01*
X1409Y1808D02*
X1416Y1808D01*
X1425Y1808D02*
X1432Y1808D01*
X1441Y1808D02*
X1448Y1808D01*
X1466Y1808D02*
X1475Y1808D01*
X1496Y1808D02*
X1504Y1808D01*
X873Y1807D02*
X880Y1807D01*
X897Y1807D02*
X904Y1807D01*
X927Y1807D02*
X934Y1807D01*
X958Y1807D02*
X964Y1807D01*
X982Y1807D02*
X989Y1807D01*
X999Y1807D02*
X1005Y1807D01*
X1014Y1807D02*
X1021Y1807D01*
X1040Y1807D02*
X1047Y1807D01*
X1071Y1807D02*
X1078Y1807D01*
X1300Y1807D02*
X1307Y1807D01*
X1323Y1807D02*
X1330Y1807D01*
X1354Y1807D02*
X1361Y1807D01*
X1378Y1807D02*
X1391Y1807D01*
X1409Y1807D02*
X1416Y1807D01*
X1425Y1807D02*
X1432Y1807D01*
X1441Y1807D02*
X1448Y1807D01*
X1466Y1807D02*
X1476Y1807D01*
X1495Y1807D02*
X1504Y1807D01*
X873Y1806D02*
X880Y1806D01*
X897Y1806D02*
X904Y1806D01*
X927Y1806D02*
X934Y1806D01*
X958Y1806D02*
X964Y1806D01*
X982Y1806D02*
X989Y1806D01*
X999Y1806D02*
X1005Y1806D01*
X1014Y1806D02*
X1021Y1806D01*
X1040Y1806D02*
X1047Y1806D01*
X1071Y1806D02*
X1078Y1806D01*
X1300Y1806D02*
X1307Y1806D01*
X1323Y1806D02*
X1330Y1806D01*
X1354Y1806D02*
X1361Y1806D01*
X1377Y1806D02*
X1391Y1806D01*
X1409Y1806D02*
X1416Y1806D01*
X1425Y1806D02*
X1432Y1806D01*
X1441Y1806D02*
X1448Y1806D01*
X1466Y1806D02*
X1477Y1806D01*
X1494Y1806D02*
X1503Y1806D01*
X873Y1805D02*
X880Y1805D01*
X897Y1805D02*
X904Y1805D01*
X927Y1805D02*
X934Y1805D01*
X957Y1805D02*
X964Y1805D01*
X982Y1805D02*
X989Y1805D01*
X999Y1805D02*
X1005Y1805D01*
X1014Y1805D02*
X1021Y1805D01*
X1040Y1805D02*
X1047Y1805D01*
X1071Y1805D02*
X1078Y1805D01*
X1300Y1805D02*
X1307Y1805D01*
X1323Y1805D02*
X1330Y1805D01*
X1354Y1805D02*
X1361Y1805D01*
X1375Y1805D02*
X1391Y1805D01*
X1409Y1805D02*
X1416Y1805D01*
X1425Y1805D02*
X1432Y1805D01*
X1441Y1805D02*
X1448Y1805D01*
X1466Y1805D02*
X1478Y1805D01*
X1493Y1805D02*
X1503Y1805D01*
X873Y1804D02*
X880Y1804D01*
X897Y1804D02*
X904Y1804D01*
X927Y1804D02*
X934Y1804D01*
X956Y1804D02*
X964Y1804D01*
X982Y1804D02*
X989Y1804D01*
X999Y1804D02*
X1005Y1804D01*
X1014Y1804D02*
X1021Y1804D01*
X1040Y1804D02*
X1047Y1804D01*
X1071Y1804D02*
X1078Y1804D01*
X1300Y1804D02*
X1308Y1804D01*
X1322Y1804D02*
X1330Y1804D01*
X1354Y1804D02*
X1361Y1804D01*
X1374Y1804D02*
X1391Y1804D01*
X1409Y1804D02*
X1416Y1804D01*
X1425Y1804D02*
X1432Y1804D01*
X1441Y1804D02*
X1448Y1804D01*
X1466Y1804D02*
X1479Y1804D01*
X1492Y1804D02*
X1502Y1804D01*
X873Y1803D02*
X880Y1803D01*
X897Y1803D02*
X904Y1803D01*
X927Y1803D02*
X934Y1803D01*
X955Y1803D02*
X964Y1803D01*
X982Y1803D02*
X989Y1803D01*
X999Y1803D02*
X1005Y1803D01*
X1014Y1803D02*
X1021Y1803D01*
X1040Y1803D02*
X1048Y1803D01*
X1070Y1803D02*
X1078Y1803D01*
X1300Y1803D02*
X1309Y1803D01*
X1321Y1803D02*
X1330Y1803D01*
X1354Y1803D02*
X1362Y1803D01*
X1372Y1803D02*
X1391Y1803D01*
X1409Y1803D02*
X1416Y1803D01*
X1425Y1803D02*
X1432Y1803D01*
X1441Y1803D02*
X1448Y1803D01*
X1466Y1803D02*
X1480Y1803D01*
X1491Y1803D02*
X1502Y1803D01*
X873Y1802D02*
X880Y1802D01*
X897Y1802D02*
X904Y1802D01*
X927Y1802D02*
X934Y1802D01*
X953Y1802D02*
X964Y1802D01*
X982Y1802D02*
X989Y1802D01*
X999Y1802D02*
X1005Y1802D01*
X1014Y1802D02*
X1021Y1802D01*
X1040Y1802D02*
X1049Y1802D01*
X1070Y1802D02*
X1078Y1802D01*
X1301Y1802D02*
X1329Y1802D01*
X1354Y1802D02*
X1391Y1802D01*
X1409Y1802D02*
X1416Y1802D01*
X1425Y1802D02*
X1432Y1802D01*
X1441Y1802D02*
X1448Y1802D01*
X1466Y1802D02*
X1481Y1802D01*
X1489Y1802D02*
X1501Y1802D01*
X873Y1801D02*
X880Y1801D01*
X897Y1801D02*
X904Y1801D01*
X927Y1801D02*
X934Y1801D01*
X951Y1801D02*
X964Y1801D01*
X982Y1801D02*
X989Y1801D01*
X999Y1801D02*
X1005Y1801D01*
X1014Y1801D02*
X1021Y1801D01*
X1040Y1801D02*
X1050Y1801D01*
X1069Y1801D02*
X1077Y1801D01*
X1301Y1801D02*
X1329Y1801D01*
X1355Y1801D02*
X1391Y1801D01*
X1409Y1801D02*
X1416Y1801D01*
X1425Y1801D02*
X1432Y1801D01*
X1441Y1801D02*
X1448Y1801D01*
X1466Y1801D02*
X1482Y1801D01*
X1488Y1801D02*
X1499Y1801D01*
X873Y1800D02*
X880Y1800D01*
X897Y1800D02*
X904Y1800D01*
X927Y1800D02*
X934Y1800D01*
X950Y1800D02*
X964Y1800D01*
X982Y1800D02*
X989Y1800D01*
X999Y1800D02*
X1005Y1800D01*
X1014Y1800D02*
X1021Y1800D01*
X1040Y1800D02*
X1051Y1800D01*
X1067Y1800D02*
X1077Y1800D01*
X1302Y1800D02*
X1328Y1800D01*
X1355Y1800D02*
X1381Y1800D01*
X1384Y1800D02*
X1391Y1800D01*
X1409Y1800D02*
X1416Y1800D01*
X1425Y1800D02*
X1432Y1800D01*
X1441Y1800D02*
X1448Y1800D01*
X1466Y1800D02*
X1498Y1800D01*
X874Y1799D02*
X881Y1799D01*
X897Y1799D02*
X904Y1799D01*
X927Y1799D02*
X935Y1799D01*
X948Y1799D02*
X964Y1799D01*
X982Y1799D02*
X989Y1799D01*
X999Y1799D02*
X1005Y1799D01*
X1015Y1799D02*
X1021Y1799D01*
X1040Y1799D02*
X1052Y1799D01*
X1066Y1799D02*
X1076Y1799D01*
X1302Y1799D02*
X1328Y1799D01*
X1356Y1799D02*
X1379Y1799D01*
X1384Y1799D02*
X1391Y1799D01*
X1409Y1799D02*
X1416Y1799D01*
X1425Y1799D02*
X1432Y1799D01*
X1441Y1799D02*
X1448Y1799D01*
X1466Y1799D02*
X1497Y1799D01*
X874Y1798D02*
X881Y1798D01*
X896Y1798D02*
X904Y1798D01*
X927Y1798D02*
X935Y1798D01*
X947Y1798D02*
X964Y1798D01*
X982Y1798D02*
X989Y1798D01*
X999Y1798D02*
X1005Y1798D01*
X1015Y1798D02*
X1021Y1798D01*
X1040Y1798D02*
X1053Y1798D01*
X1065Y1798D02*
X1076Y1798D01*
X1303Y1798D02*
X1327Y1798D01*
X1357Y1798D02*
X1378Y1798D01*
X1384Y1798D02*
X1391Y1798D01*
X1409Y1798D02*
X1416Y1798D01*
X1425Y1798D02*
X1432Y1798D01*
X1441Y1798D02*
X1448Y1798D01*
X1466Y1798D02*
X1473Y1798D01*
X1475Y1798D02*
X1496Y1798D01*
X874Y1797D02*
X883Y1797D01*
X894Y1797D02*
X903Y1797D01*
X928Y1797D02*
X936Y1797D01*
X945Y1797D02*
X964Y1797D01*
X982Y1797D02*
X989Y1797D01*
X999Y1797D02*
X1005Y1797D01*
X1015Y1797D02*
X1022Y1797D01*
X1040Y1797D02*
X1054Y1797D01*
X1064Y1797D02*
X1075Y1797D01*
X1304Y1797D02*
X1326Y1797D01*
X1358Y1797D02*
X1376Y1797D01*
X1384Y1797D02*
X1391Y1797D01*
X1409Y1797D02*
X1415Y1797D01*
X1425Y1797D02*
X1432Y1797D01*
X1441Y1797D02*
X1448Y1797D01*
X1466Y1797D02*
X1473Y1797D01*
X1476Y1797D02*
X1495Y1797D01*
X874Y1796D02*
X903Y1796D01*
X928Y1796D02*
X964Y1796D01*
X982Y1796D02*
X989Y1796D01*
X999Y1796D02*
X1005Y1796D01*
X1015Y1796D02*
X1022Y1796D01*
X1040Y1796D02*
X1055Y1796D01*
X1063Y1796D02*
X1074Y1796D01*
X1306Y1796D02*
X1324Y1796D01*
X1360Y1796D02*
X1375Y1796D01*
X1385Y1796D02*
X1390Y1796D01*
X1410Y1796D02*
X1415Y1796D01*
X1426Y1796D02*
X1431Y1796D01*
X1442Y1796D02*
X1447Y1796D01*
X1466Y1796D02*
X1473Y1796D01*
X1477Y1796D02*
X1494Y1796D01*
X875Y1795D02*
X902Y1795D01*
X929Y1795D02*
X964Y1795D01*
X982Y1795D02*
X989Y1795D01*
X999Y1795D02*
X1005Y1795D01*
X1015Y1795D02*
X1022Y1795D01*
X1040Y1795D02*
X1073Y1795D01*
X1308Y1795D02*
X1322Y1795D01*
X1362Y1795D02*
X1372Y1795D01*
X1386Y1795D02*
X1389Y1795D01*
X1411Y1795D02*
X1414Y1795D01*
X1427Y1795D02*
X1430Y1795D01*
X1443Y1795D02*
X1446Y1795D01*
X1466Y1795D02*
X1473Y1795D01*
X1478Y1795D02*
X1492Y1795D01*
X875Y1794D02*
X902Y1794D01*
X929Y1794D02*
X954Y1794D01*
X958Y1794D02*
X964Y1794D01*
X982Y1794D02*
X989Y1794D01*
X999Y1794D02*
X1005Y1794D01*
X1015Y1794D02*
X1022Y1794D01*
X1040Y1794D02*
X1072Y1794D01*
X1466Y1794D02*
X1473Y1794D01*
X1480Y1794D02*
X1491Y1794D01*
X876Y1793D02*
X901Y1793D01*
X930Y1793D02*
X953Y1793D01*
X958Y1793D02*
X964Y1793D01*
X982Y1793D02*
X989Y1793D01*
X999Y1793D02*
X1005Y1793D01*
X1015Y1793D02*
X1022Y1793D01*
X1040Y1793D02*
X1070Y1793D01*
X1466Y1793D02*
X1473Y1793D01*
X1483Y1793D02*
X1488Y1793D01*
X877Y1792D02*
X900Y1792D01*
X931Y1792D02*
X951Y1792D01*
X958Y1792D02*
X964Y1792D01*
X982Y1792D02*
X989Y1792D01*
X999Y1792D02*
X1005Y1792D01*
X1015Y1792D02*
X1022Y1792D01*
X1040Y1792D02*
X1069Y1792D01*
X1466Y1792D02*
X1473Y1792D01*
X878Y1791D02*
X899Y1791D01*
X932Y1791D02*
X950Y1791D01*
X958Y1791D02*
X964Y1791D01*
X983Y1791D02*
X989Y1791D01*
X999Y1791D02*
X1005Y1791D01*
X1015Y1791D02*
X1021Y1791D01*
X1040Y1791D02*
X1047Y1791D01*
X1049Y1791D02*
X1068Y1791D01*
X1466Y1791D02*
X1473Y1791D01*
X880Y1790D02*
X897Y1790D01*
X934Y1790D02*
X948Y1790D01*
X959Y1790D02*
X963Y1790D01*
X983Y1790D02*
X988Y1790D01*
X1000Y1790D02*
X1004Y1790D01*
X1016Y1790D02*
X1021Y1790D01*
X1040Y1790D02*
X1047Y1790D01*
X1051Y1790D02*
X1067Y1790D01*
X1466Y1790D02*
X1473Y1790D01*
X883Y1789D02*
X895Y1789D01*
X936Y1789D02*
X945Y1789D01*
X960Y1789D02*
X962Y1789D01*
X985Y1789D02*
X987Y1789D01*
X1001Y1789D02*
X1003Y1789D01*
X1017Y1789D02*
X1019Y1789D01*
X1040Y1789D02*
X1047Y1789D01*
X1052Y1789D02*
X1066Y1789D01*
X1466Y1789D02*
X1473Y1789D01*
X1040Y1788D02*
X1047Y1788D01*
X1054Y1788D02*
X1064Y1788D01*
X1466Y1788D02*
X1473Y1788D01*
X1040Y1787D02*
X1047Y1787D01*
X1466Y1787D02*
X1473Y1787D01*
X1040Y1786D02*
X1047Y1786D01*
X1466Y1786D02*
X1473Y1786D01*
X1040Y1785D02*
X1047Y1785D01*
X1466Y1785D02*
X1473Y1785D01*
X1040Y1784D02*
X1047Y1784D01*
X1466Y1784D02*
X1473Y1784D01*
X1040Y1783D02*
X1047Y1783D01*
X1466Y1783D02*
X1473Y1783D01*
X1040Y1782D02*
X1047Y1782D01*
X1466Y1782D02*
X1473Y1782D01*
X1040Y1781D02*
X1047Y1781D01*
X1466Y1781D02*
X1473Y1781D01*
X1040Y1780D02*
X1047Y1780D01*
X1466Y1780D02*
X1473Y1780D01*
X1040Y1779D02*
X1047Y1779D01*
X1467Y1779D02*
X1472Y1779D01*
X1040Y1778D02*
X1047Y1778D01*
X1469Y1778D02*
X1470Y1778D01*
X1040Y1777D02*
X1047Y1777D01*
X1040Y1776D02*
X1047Y1776D01*
X1040Y1775D02*
X1046Y1775D01*
X1040Y1774D02*
X1046Y1774D01*
X1041Y1773D02*
X1045Y1773D01*
X771Y1066D02*
X775Y1066D01*
X811Y1066D02*
X814Y1066D01*
X843Y1066D02*
X882Y1066D01*
X770Y1065D02*
X776Y1065D01*
X810Y1065D02*
X816Y1065D01*
X842Y1065D02*
X884Y1065D01*
X769Y1064D02*
X777Y1064D01*
X809Y1064D02*
X817Y1064D01*
X841Y1064D02*
X886Y1064D01*
X1762Y1064D02*
X1767Y1064D01*
X1802Y1064D02*
X1806Y1064D01*
X567Y1063D02*
X568Y1063D01*
X607Y1063D02*
X608Y1063D01*
X639Y1063D02*
X664Y1063D01*
X769Y1063D02*
X777Y1063D01*
X808Y1063D02*
X817Y1063D01*
X841Y1063D02*
X887Y1063D01*
X1761Y1063D02*
X1768Y1063D01*
X1801Y1063D02*
X1807Y1063D01*
X565Y1062D02*
X570Y1062D01*
X605Y1062D02*
X610Y1062D01*
X637Y1062D02*
X664Y1062D01*
X768Y1062D02*
X778Y1062D01*
X808Y1062D02*
X817Y1062D01*
X840Y1062D02*
X887Y1062D01*
X1761Y1062D02*
X1768Y1062D01*
X1800Y1062D02*
X1808Y1062D01*
X564Y1061D02*
X571Y1061D01*
X604Y1061D02*
X611Y1061D01*
X636Y1061D02*
X664Y1061D01*
X768Y1061D02*
X778Y1061D01*
X808Y1061D02*
X817Y1061D01*
X840Y1061D02*
X888Y1061D01*
X1760Y1061D02*
X1769Y1061D01*
X1800Y1061D02*
X1809Y1061D01*
X564Y1060D02*
X572Y1060D01*
X603Y1060D02*
X612Y1060D01*
X636Y1060D02*
X664Y1060D01*
X768Y1060D02*
X778Y1060D01*
X808Y1060D02*
X817Y1060D01*
X841Y1060D02*
X889Y1060D01*
X1760Y1060D02*
X1769Y1060D01*
X1800Y1060D02*
X1809Y1060D01*
X563Y1059D02*
X572Y1059D01*
X603Y1059D02*
X612Y1059D01*
X635Y1059D02*
X664Y1059D01*
X768Y1059D02*
X778Y1059D01*
X808Y1059D02*
X817Y1059D01*
X841Y1059D02*
X889Y1059D01*
X1760Y1059D02*
X1769Y1059D01*
X1800Y1059D02*
X1809Y1059D01*
X563Y1058D02*
X572Y1058D01*
X603Y1058D02*
X612Y1058D01*
X635Y1058D02*
X664Y1058D01*
X768Y1058D02*
X778Y1058D01*
X808Y1058D02*
X817Y1058D01*
X842Y1058D02*
X889Y1058D01*
X1760Y1058D02*
X1769Y1058D01*
X1800Y1058D02*
X1809Y1058D01*
X563Y1057D02*
X572Y1057D01*
X603Y1057D02*
X612Y1057D01*
X635Y1057D02*
X664Y1057D01*
X768Y1057D02*
X778Y1057D01*
X808Y1057D02*
X817Y1057D01*
X843Y1057D02*
X889Y1057D01*
X1760Y1057D02*
X1769Y1057D01*
X1800Y1057D02*
X1809Y1057D01*
X563Y1056D02*
X572Y1056D01*
X603Y1056D02*
X612Y1056D01*
X636Y1056D02*
X664Y1056D01*
X768Y1056D02*
X778Y1056D01*
X808Y1056D02*
X817Y1056D01*
X880Y1056D02*
X889Y1056D01*
X1561Y1056D02*
X1564Y1056D01*
X1601Y1056D02*
X1604Y1056D01*
X1760Y1056D02*
X1769Y1056D01*
X1800Y1056D02*
X1809Y1056D01*
X563Y1055D02*
X572Y1055D01*
X603Y1055D02*
X612Y1055D01*
X636Y1055D02*
X664Y1055D01*
X768Y1055D02*
X778Y1055D01*
X808Y1055D02*
X817Y1055D01*
X880Y1055D02*
X889Y1055D01*
X1560Y1055D02*
X1566Y1055D01*
X1600Y1055D02*
X1605Y1055D01*
X1760Y1055D02*
X1769Y1055D01*
X1800Y1055D02*
X1809Y1055D01*
X563Y1054D02*
X572Y1054D01*
X603Y1054D02*
X612Y1054D01*
X637Y1054D02*
X664Y1054D01*
X768Y1054D02*
X778Y1054D01*
X808Y1054D02*
X817Y1054D01*
X880Y1054D02*
X889Y1054D01*
X1559Y1054D02*
X1567Y1054D01*
X1599Y1054D02*
X1606Y1054D01*
X1760Y1054D02*
X1769Y1054D01*
X1800Y1054D02*
X1809Y1054D01*
X563Y1053D02*
X572Y1053D01*
X603Y1053D02*
X612Y1053D01*
X640Y1053D02*
X664Y1053D01*
X768Y1053D02*
X778Y1053D01*
X808Y1053D02*
X817Y1053D01*
X880Y1053D02*
X889Y1053D01*
X1559Y1053D02*
X1567Y1053D01*
X1598Y1053D02*
X1607Y1053D01*
X1760Y1053D02*
X1769Y1053D01*
X1800Y1053D02*
X1809Y1053D01*
X563Y1052D02*
X572Y1052D01*
X603Y1052D02*
X612Y1052D01*
X655Y1052D02*
X664Y1052D01*
X768Y1052D02*
X778Y1052D01*
X808Y1052D02*
X817Y1052D01*
X880Y1052D02*
X889Y1052D01*
X1558Y1052D02*
X1567Y1052D01*
X1598Y1052D02*
X1607Y1052D01*
X1760Y1052D02*
X1769Y1052D01*
X1800Y1052D02*
X1809Y1052D01*
X563Y1051D02*
X572Y1051D01*
X603Y1051D02*
X612Y1051D01*
X655Y1051D02*
X664Y1051D01*
X768Y1051D02*
X778Y1051D01*
X808Y1051D02*
X817Y1051D01*
X880Y1051D02*
X889Y1051D01*
X1558Y1051D02*
X1567Y1051D01*
X1598Y1051D02*
X1607Y1051D01*
X1760Y1051D02*
X1769Y1051D01*
X1800Y1051D02*
X1809Y1051D01*
X563Y1050D02*
X572Y1050D01*
X603Y1050D02*
X612Y1050D01*
X655Y1050D02*
X664Y1050D01*
X768Y1050D02*
X778Y1050D01*
X808Y1050D02*
X817Y1050D01*
X880Y1050D02*
X889Y1050D01*
X1558Y1050D02*
X1567Y1050D01*
X1598Y1050D02*
X1607Y1050D01*
X1760Y1050D02*
X1769Y1050D01*
X1800Y1050D02*
X1809Y1050D01*
X563Y1049D02*
X572Y1049D01*
X603Y1049D02*
X612Y1049D01*
X655Y1049D02*
X664Y1049D01*
X768Y1049D02*
X778Y1049D01*
X808Y1049D02*
X817Y1049D01*
X880Y1049D02*
X889Y1049D01*
X1558Y1049D02*
X1567Y1049D01*
X1598Y1049D02*
X1607Y1049D01*
X1760Y1049D02*
X1769Y1049D01*
X1800Y1049D02*
X1809Y1049D01*
X563Y1048D02*
X572Y1048D01*
X603Y1048D02*
X612Y1048D01*
X655Y1048D02*
X664Y1048D01*
X768Y1048D02*
X778Y1048D01*
X808Y1048D02*
X817Y1048D01*
X880Y1048D02*
X889Y1048D01*
X1558Y1048D02*
X1567Y1048D01*
X1598Y1048D02*
X1607Y1048D01*
X1760Y1048D02*
X1769Y1048D01*
X1800Y1048D02*
X1809Y1048D01*
X563Y1047D02*
X572Y1047D01*
X603Y1047D02*
X612Y1047D01*
X655Y1047D02*
X664Y1047D01*
X768Y1047D02*
X778Y1047D01*
X808Y1047D02*
X817Y1047D01*
X880Y1047D02*
X889Y1047D01*
X1558Y1047D02*
X1567Y1047D01*
X1598Y1047D02*
X1607Y1047D01*
X1760Y1047D02*
X1769Y1047D01*
X1800Y1047D02*
X1809Y1047D01*
X563Y1046D02*
X572Y1046D01*
X603Y1046D02*
X612Y1046D01*
X655Y1046D02*
X664Y1046D01*
X768Y1046D02*
X778Y1046D01*
X808Y1046D02*
X817Y1046D01*
X880Y1046D02*
X889Y1046D01*
X1558Y1046D02*
X1567Y1046D01*
X1598Y1046D02*
X1607Y1046D01*
X1760Y1046D02*
X1769Y1046D01*
X1800Y1046D02*
X1809Y1046D01*
X563Y1045D02*
X572Y1045D01*
X603Y1045D02*
X612Y1045D01*
X655Y1045D02*
X664Y1045D01*
X768Y1045D02*
X778Y1045D01*
X808Y1045D02*
X817Y1045D01*
X880Y1045D02*
X889Y1045D01*
X1558Y1045D02*
X1567Y1045D01*
X1598Y1045D02*
X1607Y1045D01*
X1760Y1045D02*
X1769Y1045D01*
X1800Y1045D02*
X1809Y1045D01*
X563Y1044D02*
X572Y1044D01*
X603Y1044D02*
X612Y1044D01*
X655Y1044D02*
X664Y1044D01*
X768Y1044D02*
X778Y1044D01*
X808Y1044D02*
X817Y1044D01*
X880Y1044D02*
X889Y1044D01*
X1558Y1044D02*
X1567Y1044D01*
X1598Y1044D02*
X1607Y1044D01*
X1760Y1044D02*
X1769Y1044D01*
X1800Y1044D02*
X1809Y1044D01*
X563Y1043D02*
X572Y1043D01*
X603Y1043D02*
X612Y1043D01*
X655Y1043D02*
X664Y1043D01*
X768Y1043D02*
X778Y1043D01*
X808Y1043D02*
X817Y1043D01*
X880Y1043D02*
X889Y1043D01*
X1558Y1043D02*
X1567Y1043D01*
X1598Y1043D02*
X1607Y1043D01*
X1760Y1043D02*
X1769Y1043D01*
X1799Y1043D02*
X1809Y1043D01*
X563Y1042D02*
X572Y1042D01*
X603Y1042D02*
X612Y1042D01*
X655Y1042D02*
X664Y1042D01*
X768Y1042D02*
X778Y1042D01*
X808Y1042D02*
X817Y1042D01*
X880Y1042D02*
X889Y1042D01*
X1558Y1042D02*
X1567Y1042D01*
X1598Y1042D02*
X1607Y1042D01*
X1654Y1042D02*
X1656Y1042D01*
X1760Y1042D02*
X1770Y1042D01*
X1799Y1042D02*
X1809Y1042D01*
X563Y1041D02*
X572Y1041D01*
X603Y1041D02*
X612Y1041D01*
X655Y1041D02*
X664Y1041D01*
X768Y1041D02*
X778Y1041D01*
X808Y1041D02*
X817Y1041D01*
X880Y1041D02*
X889Y1041D01*
X1558Y1041D02*
X1567Y1041D01*
X1598Y1041D02*
X1607Y1041D01*
X1652Y1041D02*
X1657Y1041D01*
X1760Y1041D02*
X1770Y1041D01*
X1799Y1041D02*
X1808Y1041D01*
X563Y1040D02*
X572Y1040D01*
X603Y1040D02*
X612Y1040D01*
X655Y1040D02*
X664Y1040D01*
X768Y1040D02*
X778Y1040D01*
X790Y1040D02*
X795Y1040D01*
X808Y1040D02*
X817Y1040D01*
X880Y1040D02*
X889Y1040D01*
X1558Y1040D02*
X1567Y1040D01*
X1598Y1040D02*
X1607Y1040D01*
X1651Y1040D02*
X1658Y1040D01*
X1761Y1040D02*
X1770Y1040D01*
X1798Y1040D02*
X1808Y1040D01*
X563Y1039D02*
X572Y1039D01*
X603Y1039D02*
X612Y1039D01*
X655Y1039D02*
X664Y1039D01*
X768Y1039D02*
X778Y1039D01*
X789Y1039D02*
X796Y1039D01*
X808Y1039D02*
X817Y1039D01*
X880Y1039D02*
X889Y1039D01*
X1558Y1039D02*
X1567Y1039D01*
X1598Y1039D02*
X1607Y1039D01*
X1650Y1039D02*
X1659Y1039D01*
X1761Y1039D02*
X1771Y1039D01*
X1798Y1039D02*
X1808Y1039D01*
X563Y1038D02*
X572Y1038D01*
X603Y1038D02*
X612Y1038D01*
X655Y1038D02*
X664Y1038D01*
X768Y1038D02*
X778Y1038D01*
X789Y1038D02*
X797Y1038D01*
X808Y1038D02*
X817Y1038D01*
X880Y1038D02*
X889Y1038D01*
X1558Y1038D02*
X1567Y1038D01*
X1598Y1038D02*
X1607Y1038D01*
X1650Y1038D02*
X1659Y1038D01*
X1761Y1038D02*
X1771Y1038D01*
X1797Y1038D02*
X1807Y1038D01*
X563Y1037D02*
X572Y1037D01*
X586Y1037D02*
X590Y1037D01*
X603Y1037D02*
X612Y1037D01*
X655Y1037D02*
X664Y1037D01*
X768Y1037D02*
X778Y1037D01*
X788Y1037D02*
X797Y1037D01*
X808Y1037D02*
X817Y1037D01*
X880Y1037D02*
X889Y1037D01*
X1558Y1037D02*
X1567Y1037D01*
X1598Y1037D02*
X1607Y1037D01*
X1650Y1037D02*
X1659Y1037D01*
X1762Y1037D02*
X1772Y1037D01*
X1797Y1037D02*
X1807Y1037D01*
X563Y1036D02*
X572Y1036D01*
X585Y1036D02*
X591Y1036D01*
X603Y1036D02*
X612Y1036D01*
X655Y1036D02*
X664Y1036D01*
X768Y1036D02*
X778Y1036D01*
X788Y1036D02*
X797Y1036D01*
X808Y1036D02*
X817Y1036D01*
X880Y1036D02*
X889Y1036D01*
X1558Y1036D02*
X1567Y1036D01*
X1598Y1036D02*
X1607Y1036D01*
X1650Y1036D02*
X1659Y1036D01*
X1762Y1036D02*
X1772Y1036D01*
X1797Y1036D02*
X1807Y1036D01*
X563Y1035D02*
X572Y1035D01*
X584Y1035D02*
X592Y1035D01*
X603Y1035D02*
X612Y1035D01*
X655Y1035D02*
X664Y1035D01*
X768Y1035D02*
X778Y1035D01*
X788Y1035D02*
X797Y1035D01*
X808Y1035D02*
X817Y1035D01*
X880Y1035D02*
X889Y1035D01*
X1558Y1035D02*
X1567Y1035D01*
X1598Y1035D02*
X1607Y1035D01*
X1650Y1035D02*
X1659Y1035D01*
X1763Y1035D02*
X1772Y1035D01*
X1796Y1035D02*
X1806Y1035D01*
X563Y1034D02*
X572Y1034D01*
X583Y1034D02*
X592Y1034D01*
X603Y1034D02*
X612Y1034D01*
X655Y1034D02*
X664Y1034D01*
X768Y1034D02*
X778Y1034D01*
X788Y1034D02*
X797Y1034D01*
X808Y1034D02*
X817Y1034D01*
X880Y1034D02*
X889Y1034D01*
X1558Y1034D02*
X1568Y1034D01*
X1597Y1034D02*
X1607Y1034D01*
X1650Y1034D02*
X1659Y1034D01*
X1763Y1034D02*
X1773Y1034D01*
X1796Y1034D02*
X1806Y1034D01*
X563Y1033D02*
X572Y1033D01*
X583Y1033D02*
X592Y1033D01*
X603Y1033D02*
X612Y1033D01*
X655Y1033D02*
X664Y1033D01*
X768Y1033D02*
X778Y1033D01*
X788Y1033D02*
X797Y1033D01*
X808Y1033D02*
X817Y1033D01*
X880Y1033D02*
X889Y1033D01*
X1558Y1033D02*
X1568Y1033D01*
X1597Y1033D02*
X1607Y1033D01*
X1650Y1033D02*
X1659Y1033D01*
X1763Y1033D02*
X1773Y1033D01*
X1795Y1033D02*
X1805Y1033D01*
X563Y1032D02*
X572Y1032D01*
X583Y1032D02*
X592Y1032D01*
X603Y1032D02*
X612Y1032D01*
X655Y1032D02*
X664Y1032D01*
X768Y1032D02*
X778Y1032D01*
X788Y1032D02*
X797Y1032D01*
X808Y1032D02*
X817Y1032D01*
X848Y1032D02*
X889Y1032D01*
X1559Y1032D02*
X1569Y1032D01*
X1597Y1032D02*
X1607Y1032D01*
X1650Y1032D02*
X1659Y1032D01*
X1764Y1032D02*
X1774Y1032D01*
X1795Y1032D02*
X1805Y1032D01*
X563Y1031D02*
X572Y1031D01*
X583Y1031D02*
X592Y1031D01*
X603Y1031D02*
X612Y1031D01*
X655Y1031D02*
X664Y1031D01*
X768Y1031D02*
X778Y1031D01*
X788Y1031D02*
X797Y1031D01*
X808Y1031D02*
X817Y1031D01*
X845Y1031D02*
X889Y1031D01*
X1559Y1031D02*
X1569Y1031D01*
X1596Y1031D02*
X1606Y1031D01*
X1650Y1031D02*
X1659Y1031D01*
X1764Y1031D02*
X1774Y1031D01*
X1795Y1031D02*
X1805Y1031D01*
X563Y1030D02*
X572Y1030D01*
X583Y1030D02*
X592Y1030D01*
X603Y1030D02*
X612Y1030D01*
X655Y1030D02*
X664Y1030D01*
X768Y1030D02*
X778Y1030D01*
X788Y1030D02*
X797Y1030D01*
X808Y1030D02*
X817Y1030D01*
X844Y1030D02*
X889Y1030D01*
X1560Y1030D02*
X1569Y1030D01*
X1596Y1030D02*
X1606Y1030D01*
X1650Y1030D02*
X1659Y1030D01*
X1764Y1030D02*
X1774Y1030D01*
X1794Y1030D02*
X1804Y1030D01*
X1834Y1030D02*
X1878Y1030D01*
X563Y1029D02*
X572Y1029D01*
X583Y1029D02*
X592Y1029D01*
X603Y1029D02*
X612Y1029D01*
X655Y1029D02*
X664Y1029D01*
X768Y1029D02*
X778Y1029D01*
X788Y1029D02*
X797Y1029D01*
X808Y1029D02*
X817Y1029D01*
X843Y1029D02*
X889Y1029D01*
X1560Y1029D02*
X1570Y1029D01*
X1596Y1029D02*
X1605Y1029D01*
X1650Y1029D02*
X1659Y1029D01*
X1765Y1029D02*
X1775Y1029D01*
X1794Y1029D02*
X1804Y1029D01*
X1833Y1029D02*
X1880Y1029D01*
X563Y1028D02*
X572Y1028D01*
X583Y1028D02*
X592Y1028D01*
X603Y1028D02*
X612Y1028D01*
X655Y1028D02*
X664Y1028D01*
X768Y1028D02*
X778Y1028D01*
X788Y1028D02*
X797Y1028D01*
X808Y1028D02*
X817Y1028D01*
X842Y1028D02*
X888Y1028D01*
X1560Y1028D02*
X1570Y1028D01*
X1595Y1028D02*
X1605Y1028D01*
X1650Y1028D02*
X1659Y1028D01*
X1765Y1028D02*
X1775Y1028D01*
X1794Y1028D02*
X1803Y1028D01*
X1832Y1028D02*
X1880Y1028D01*
X563Y1027D02*
X572Y1027D01*
X583Y1027D02*
X592Y1027D01*
X603Y1027D02*
X612Y1027D01*
X655Y1027D02*
X664Y1027D01*
X768Y1027D02*
X778Y1027D01*
X788Y1027D02*
X797Y1027D01*
X808Y1027D02*
X817Y1027D01*
X842Y1027D02*
X888Y1027D01*
X1561Y1027D02*
X1571Y1027D01*
X1595Y1027D02*
X1605Y1027D01*
X1650Y1027D02*
X1659Y1027D01*
X1766Y1027D02*
X1776Y1027D01*
X1793Y1027D02*
X1803Y1027D01*
X1832Y1027D02*
X1881Y1027D01*
X563Y1026D02*
X572Y1026D01*
X583Y1026D02*
X592Y1026D01*
X603Y1026D02*
X612Y1026D01*
X655Y1026D02*
X664Y1026D01*
X768Y1026D02*
X778Y1026D01*
X788Y1026D02*
X797Y1026D01*
X808Y1026D02*
X817Y1026D01*
X841Y1026D02*
X887Y1026D01*
X1561Y1026D02*
X1571Y1026D01*
X1594Y1026D02*
X1604Y1026D01*
X1650Y1026D02*
X1659Y1026D01*
X1766Y1026D02*
X1776Y1026D01*
X1793Y1026D02*
X1803Y1026D01*
X1832Y1026D02*
X1881Y1026D01*
X563Y1025D02*
X572Y1025D01*
X583Y1025D02*
X592Y1025D01*
X603Y1025D02*
X612Y1025D01*
X655Y1025D02*
X664Y1025D01*
X768Y1025D02*
X778Y1025D01*
X788Y1025D02*
X797Y1025D01*
X808Y1025D02*
X817Y1025D01*
X841Y1025D02*
X886Y1025D01*
X1561Y1025D02*
X1571Y1025D01*
X1594Y1025D02*
X1604Y1025D01*
X1650Y1025D02*
X1659Y1025D01*
X1766Y1025D02*
X1776Y1025D01*
X1792Y1025D02*
X1802Y1025D01*
X1832Y1025D02*
X1881Y1025D01*
X563Y1024D02*
X572Y1024D01*
X583Y1024D02*
X592Y1024D01*
X603Y1024D02*
X612Y1024D01*
X655Y1024D02*
X664Y1024D01*
X768Y1024D02*
X778Y1024D01*
X788Y1024D02*
X797Y1024D01*
X808Y1024D02*
X817Y1024D01*
X841Y1024D02*
X884Y1024D01*
X1562Y1024D02*
X1572Y1024D01*
X1594Y1024D02*
X1603Y1024D01*
X1650Y1024D02*
X1659Y1024D01*
X1767Y1024D02*
X1777Y1024D01*
X1792Y1024D02*
X1802Y1024D01*
X1832Y1024D02*
X1881Y1024D01*
X563Y1023D02*
X572Y1023D01*
X583Y1023D02*
X592Y1023D01*
X603Y1023D02*
X612Y1023D01*
X655Y1023D02*
X664Y1023D01*
X768Y1023D02*
X778Y1023D01*
X788Y1023D02*
X797Y1023D01*
X808Y1023D02*
X817Y1023D01*
X840Y1023D02*
X883Y1023D01*
X1562Y1023D02*
X1572Y1023D01*
X1593Y1023D02*
X1603Y1023D01*
X1650Y1023D02*
X1659Y1023D01*
X1767Y1023D02*
X1777Y1023D01*
X1792Y1023D02*
X1801Y1023D01*
X1832Y1023D02*
X1881Y1023D01*
X563Y1022D02*
X572Y1022D01*
X583Y1022D02*
X592Y1022D01*
X603Y1022D02*
X612Y1022D01*
X655Y1022D02*
X664Y1022D01*
X768Y1022D02*
X778Y1022D01*
X788Y1022D02*
X797Y1022D01*
X808Y1022D02*
X817Y1022D01*
X840Y1022D02*
X850Y1022D01*
X1563Y1022D02*
X1573Y1022D01*
X1593Y1022D02*
X1603Y1022D01*
X1633Y1022D02*
X1676Y1022D01*
X1768Y1022D02*
X1778Y1022D01*
X1791Y1022D02*
X1801Y1022D01*
X1832Y1022D02*
X1881Y1022D01*
X563Y1021D02*
X572Y1021D01*
X583Y1021D02*
X592Y1021D01*
X603Y1021D02*
X612Y1021D01*
X655Y1021D02*
X664Y1021D01*
X768Y1021D02*
X778Y1021D01*
X788Y1021D02*
X797Y1021D01*
X808Y1021D02*
X817Y1021D01*
X840Y1021D02*
X850Y1021D01*
X1563Y1021D02*
X1573Y1021D01*
X1592Y1021D02*
X1602Y1021D01*
X1632Y1021D02*
X1677Y1021D01*
X1768Y1021D02*
X1778Y1021D01*
X1791Y1021D02*
X1801Y1021D01*
X1832Y1021D02*
X1881Y1021D01*
X563Y1020D02*
X572Y1020D01*
X583Y1020D02*
X592Y1020D01*
X603Y1020D02*
X612Y1020D01*
X655Y1020D02*
X664Y1020D01*
X677Y1020D02*
X681Y1020D01*
X768Y1020D02*
X778Y1020D01*
X788Y1020D02*
X797Y1020D01*
X808Y1020D02*
X817Y1020D01*
X840Y1020D02*
X850Y1020D01*
X1563Y1020D02*
X1573Y1020D01*
X1592Y1020D02*
X1602Y1020D01*
X1631Y1020D02*
X1678Y1020D01*
X1768Y1020D02*
X1778Y1020D01*
X1790Y1020D02*
X1800Y1020D01*
X1832Y1020D02*
X1880Y1020D01*
X563Y1019D02*
X572Y1019D01*
X583Y1019D02*
X592Y1019D01*
X603Y1019D02*
X612Y1019D01*
X655Y1019D02*
X664Y1019D01*
X676Y1019D02*
X683Y1019D01*
X768Y1019D02*
X778Y1019D01*
X788Y1019D02*
X797Y1019D01*
X808Y1019D02*
X817Y1019D01*
X840Y1019D02*
X850Y1019D01*
X1564Y1019D02*
X1574Y1019D01*
X1592Y1019D02*
X1601Y1019D01*
X1631Y1019D02*
X1679Y1019D01*
X1769Y1019D02*
X1779Y1019D01*
X1790Y1019D02*
X1800Y1019D01*
X1833Y1019D02*
X1880Y1019D01*
X563Y1018D02*
X572Y1018D01*
X583Y1018D02*
X592Y1018D01*
X603Y1018D02*
X612Y1018D01*
X655Y1018D02*
X664Y1018D01*
X676Y1018D02*
X683Y1018D01*
X768Y1018D02*
X778Y1018D01*
X788Y1018D02*
X797Y1018D01*
X808Y1018D02*
X817Y1018D01*
X840Y1018D02*
X850Y1018D01*
X1564Y1018D02*
X1574Y1018D01*
X1591Y1018D02*
X1601Y1018D01*
X1630Y1018D02*
X1679Y1018D01*
X1769Y1018D02*
X1779Y1018D01*
X1790Y1018D02*
X1800Y1018D01*
X1833Y1018D02*
X1879Y1018D01*
X563Y1017D02*
X572Y1017D01*
X583Y1017D02*
X592Y1017D01*
X603Y1017D02*
X612Y1017D01*
X655Y1017D02*
X664Y1017D01*
X675Y1017D02*
X684Y1017D01*
X768Y1017D02*
X778Y1017D01*
X788Y1017D02*
X797Y1017D01*
X808Y1017D02*
X817Y1017D01*
X840Y1017D02*
X850Y1017D01*
X1565Y1017D02*
X1575Y1017D01*
X1591Y1017D02*
X1601Y1017D01*
X1630Y1017D02*
X1679Y1017D01*
X1770Y1017D02*
X1779Y1017D01*
X1789Y1017D02*
X1799Y1017D01*
X1835Y1017D02*
X1878Y1017D01*
X563Y1016D02*
X572Y1016D01*
X583Y1016D02*
X592Y1016D01*
X603Y1016D02*
X612Y1016D01*
X655Y1016D02*
X664Y1016D01*
X675Y1016D02*
X684Y1016D01*
X768Y1016D02*
X778Y1016D01*
X788Y1016D02*
X797Y1016D01*
X808Y1016D02*
X817Y1016D01*
X840Y1016D02*
X850Y1016D01*
X1565Y1016D02*
X1575Y1016D01*
X1590Y1016D02*
X1600Y1016D01*
X1630Y1016D02*
X1679Y1016D01*
X1770Y1016D02*
X1780Y1016D01*
X1789Y1016D02*
X1799Y1016D01*
X563Y1015D02*
X572Y1015D01*
X583Y1015D02*
X592Y1015D01*
X603Y1015D02*
X612Y1015D01*
X655Y1015D02*
X664Y1015D01*
X675Y1015D02*
X684Y1015D01*
X768Y1015D02*
X778Y1015D01*
X788Y1015D02*
X797Y1015D01*
X808Y1015D02*
X817Y1015D01*
X840Y1015D02*
X850Y1015D01*
X1565Y1015D02*
X1575Y1015D01*
X1590Y1015D02*
X1600Y1015D01*
X1631Y1015D02*
X1678Y1015D01*
X1770Y1015D02*
X1780Y1015D01*
X1788Y1015D02*
X1798Y1015D01*
X563Y1014D02*
X572Y1014D01*
X583Y1014D02*
X592Y1014D01*
X603Y1014D02*
X612Y1014D01*
X655Y1014D02*
X664Y1014D01*
X675Y1014D02*
X684Y1014D01*
X768Y1014D02*
X778Y1014D01*
X788Y1014D02*
X797Y1014D01*
X808Y1014D02*
X817Y1014D01*
X840Y1014D02*
X850Y1014D01*
X1566Y1014D02*
X1576Y1014D01*
X1590Y1014D02*
X1600Y1014D01*
X1632Y1014D02*
X1678Y1014D01*
X1771Y1014D02*
X1781Y1014D01*
X1788Y1014D02*
X1798Y1014D01*
X563Y1013D02*
X572Y1013D01*
X583Y1013D02*
X592Y1013D01*
X603Y1013D02*
X612Y1013D01*
X655Y1013D02*
X664Y1013D01*
X675Y1013D02*
X684Y1013D01*
X768Y1013D02*
X778Y1013D01*
X788Y1013D02*
X797Y1013D01*
X808Y1013D02*
X817Y1013D01*
X840Y1013D02*
X850Y1013D01*
X1566Y1013D02*
X1576Y1013D01*
X1589Y1013D02*
X1599Y1013D01*
X1633Y1013D02*
X1676Y1013D01*
X1771Y1013D02*
X1781Y1013D01*
X1788Y1013D02*
X1798Y1013D01*
X563Y1012D02*
X572Y1012D01*
X583Y1012D02*
X592Y1012D01*
X603Y1012D02*
X612Y1012D01*
X655Y1012D02*
X664Y1012D01*
X675Y1012D02*
X684Y1012D01*
X768Y1012D02*
X778Y1012D01*
X788Y1012D02*
X797Y1012D01*
X808Y1012D02*
X817Y1012D01*
X840Y1012D02*
X850Y1012D01*
X1567Y1012D02*
X1576Y1012D01*
X1589Y1012D02*
X1599Y1012D01*
X1650Y1012D02*
X1659Y1012D01*
X1771Y1012D02*
X1781Y1012D01*
X1787Y1012D02*
X1797Y1012D01*
X563Y1011D02*
X572Y1011D01*
X583Y1011D02*
X592Y1011D01*
X603Y1011D02*
X612Y1011D01*
X655Y1011D02*
X664Y1011D01*
X675Y1011D02*
X684Y1011D01*
X768Y1011D02*
X778Y1011D01*
X788Y1011D02*
X797Y1011D01*
X808Y1011D02*
X817Y1011D01*
X840Y1011D02*
X850Y1011D01*
X1567Y1011D02*
X1577Y1011D01*
X1588Y1011D02*
X1598Y1011D01*
X1650Y1011D02*
X1659Y1011D01*
X1772Y1011D02*
X1782Y1011D01*
X1787Y1011D02*
X1797Y1011D01*
X563Y1010D02*
X572Y1010D01*
X583Y1010D02*
X592Y1010D01*
X603Y1010D02*
X612Y1010D01*
X655Y1010D02*
X664Y1010D01*
X675Y1010D02*
X684Y1010D01*
X768Y1010D02*
X778Y1010D01*
X788Y1010D02*
X797Y1010D01*
X808Y1010D02*
X817Y1010D01*
X840Y1010D02*
X850Y1010D01*
X1567Y1010D02*
X1577Y1010D01*
X1588Y1010D02*
X1598Y1010D01*
X1650Y1010D02*
X1659Y1010D01*
X1772Y1010D02*
X1782Y1010D01*
X1786Y1010D02*
X1796Y1010D01*
X563Y1009D02*
X572Y1009D01*
X583Y1009D02*
X592Y1009D01*
X603Y1009D02*
X612Y1009D01*
X655Y1009D02*
X664Y1009D01*
X675Y1009D02*
X684Y1009D01*
X768Y1009D02*
X778Y1009D01*
X788Y1009D02*
X797Y1009D01*
X808Y1009D02*
X817Y1009D01*
X840Y1009D02*
X850Y1009D01*
X1568Y1009D02*
X1578Y1009D01*
X1588Y1009D02*
X1598Y1009D01*
X1650Y1009D02*
X1659Y1009D01*
X1773Y1009D02*
X1783Y1009D01*
X1786Y1009D02*
X1796Y1009D01*
X563Y1008D02*
X572Y1008D01*
X583Y1008D02*
X592Y1008D01*
X603Y1008D02*
X612Y1008D01*
X655Y1008D02*
X664Y1008D01*
X675Y1008D02*
X684Y1008D01*
X768Y1008D02*
X778Y1008D01*
X788Y1008D02*
X797Y1008D01*
X808Y1008D02*
X817Y1008D01*
X840Y1008D02*
X850Y1008D01*
X1568Y1008D02*
X1578Y1008D01*
X1587Y1008D02*
X1597Y1008D01*
X1650Y1008D02*
X1659Y1008D01*
X1773Y1008D02*
X1783Y1008D01*
X1786Y1008D02*
X1796Y1008D01*
X563Y1007D02*
X572Y1007D01*
X583Y1007D02*
X592Y1007D01*
X603Y1007D02*
X612Y1007D01*
X655Y1007D02*
X664Y1007D01*
X675Y1007D02*
X684Y1007D01*
X768Y1007D02*
X778Y1007D01*
X788Y1007D02*
X797Y1007D01*
X808Y1007D02*
X817Y1007D01*
X840Y1007D02*
X850Y1007D01*
X1568Y1007D02*
X1578Y1007D01*
X1587Y1007D02*
X1597Y1007D01*
X1650Y1007D02*
X1659Y1007D01*
X1773Y1007D02*
X1783Y1007D01*
X1785Y1007D02*
X1795Y1007D01*
X563Y1006D02*
X572Y1006D01*
X583Y1006D02*
X592Y1006D01*
X603Y1006D02*
X612Y1006D01*
X655Y1006D02*
X664Y1006D01*
X675Y1006D02*
X684Y1006D01*
X768Y1006D02*
X778Y1006D01*
X788Y1006D02*
X797Y1006D01*
X808Y1006D02*
X817Y1006D01*
X840Y1006D02*
X850Y1006D01*
X1569Y1006D02*
X1579Y1006D01*
X1587Y1006D02*
X1596Y1006D01*
X1650Y1006D02*
X1659Y1006D01*
X1774Y1006D02*
X1795Y1006D01*
X563Y1005D02*
X572Y1005D01*
X583Y1005D02*
X592Y1005D01*
X603Y1005D02*
X612Y1005D01*
X655Y1005D02*
X664Y1005D01*
X675Y1005D02*
X684Y1005D01*
X768Y1005D02*
X778Y1005D01*
X788Y1005D02*
X797Y1005D01*
X808Y1005D02*
X817Y1005D01*
X840Y1005D02*
X850Y1005D01*
X1569Y1005D02*
X1579Y1005D01*
X1586Y1005D02*
X1596Y1005D01*
X1650Y1005D02*
X1659Y1005D01*
X1774Y1005D02*
X1794Y1005D01*
X563Y1004D02*
X572Y1004D01*
X583Y1004D02*
X592Y1004D01*
X603Y1004D02*
X612Y1004D01*
X655Y1004D02*
X664Y1004D01*
X675Y1004D02*
X684Y1004D01*
X768Y1004D02*
X778Y1004D01*
X788Y1004D02*
X797Y1004D01*
X808Y1004D02*
X817Y1004D01*
X840Y1004D02*
X850Y1004D01*
X1570Y1004D02*
X1580Y1004D01*
X1586Y1004D02*
X1596Y1004D01*
X1650Y1004D02*
X1659Y1004D01*
X1775Y1004D02*
X1794Y1004D01*
X563Y1003D02*
X572Y1003D01*
X583Y1003D02*
X592Y1003D01*
X603Y1003D02*
X612Y1003D01*
X655Y1003D02*
X664Y1003D01*
X675Y1003D02*
X684Y1003D01*
X768Y1003D02*
X778Y1003D01*
X788Y1003D02*
X798Y1003D01*
X808Y1003D02*
X817Y1003D01*
X840Y1003D02*
X850Y1003D01*
X1570Y1003D02*
X1580Y1003D01*
X1585Y1003D02*
X1595Y1003D01*
X1650Y1003D02*
X1659Y1003D01*
X1775Y1003D02*
X1794Y1003D01*
X563Y1002D02*
X572Y1002D01*
X583Y1002D02*
X592Y1002D01*
X603Y1002D02*
X612Y1002D01*
X655Y1002D02*
X664Y1002D01*
X675Y1002D02*
X684Y1002D01*
X768Y1002D02*
X778Y1002D01*
X787Y1002D02*
X798Y1002D01*
X807Y1002D02*
X817Y1002D01*
X840Y1002D02*
X850Y1002D01*
X1570Y1002D02*
X1580Y1002D01*
X1585Y1002D02*
X1595Y1002D01*
X1650Y1002D02*
X1659Y1002D01*
X1775Y1002D02*
X1793Y1002D01*
X563Y1001D02*
X572Y1001D01*
X583Y1001D02*
X592Y1001D01*
X603Y1001D02*
X612Y1001D01*
X655Y1001D02*
X664Y1001D01*
X675Y1001D02*
X684Y1001D01*
X768Y1001D02*
X779Y1001D01*
X787Y1001D02*
X799Y1001D01*
X807Y1001D02*
X817Y1001D01*
X840Y1001D02*
X850Y1001D01*
X1571Y1001D02*
X1581Y1001D01*
X1585Y1001D02*
X1594Y1001D01*
X1650Y1001D02*
X1659Y1001D01*
X1776Y1001D02*
X1793Y1001D01*
X563Y1000D02*
X572Y1000D01*
X583Y1000D02*
X592Y1000D01*
X603Y1000D02*
X612Y1000D01*
X655Y1000D02*
X664Y1000D01*
X675Y1000D02*
X684Y1000D01*
X769Y1000D02*
X780Y1000D01*
X786Y1000D02*
X799Y1000D01*
X806Y1000D02*
X817Y1000D01*
X840Y1000D02*
X850Y1000D01*
X1571Y1000D02*
X1581Y1000D01*
X1584Y1000D02*
X1594Y1000D01*
X1650Y1000D02*
X1659Y1000D01*
X1776Y1000D02*
X1792Y1000D01*
X563Y999D02*
X573Y999D01*
X582Y999D02*
X593Y999D01*
X602Y999D02*
X612Y999D01*
X655Y999D02*
X664Y999D01*
X675Y999D02*
X684Y999D01*
X769Y999D02*
X780Y999D01*
X786Y999D02*
X800Y999D01*
X806Y999D02*
X816Y999D01*
X840Y999D02*
X850Y999D01*
X1572Y999D02*
X1582Y999D01*
X1584Y999D02*
X1594Y999D01*
X1650Y999D02*
X1659Y999D01*
X1777Y999D02*
X1792Y999D01*
X563Y998D02*
X574Y998D01*
X582Y998D02*
X593Y998D01*
X602Y998D02*
X612Y998D01*
X655Y998D02*
X664Y998D01*
X675Y998D02*
X684Y998D01*
X770Y998D02*
X816Y998D01*
X840Y998D02*
X886Y998D01*
X1572Y998D02*
X1593Y998D01*
X1650Y998D02*
X1659Y998D01*
X1777Y998D02*
X1792Y998D01*
X563Y997D02*
X574Y997D01*
X581Y997D02*
X594Y997D01*
X601Y997D02*
X612Y997D01*
X655Y997D02*
X664Y997D01*
X675Y997D02*
X684Y997D01*
X771Y997D02*
X815Y997D01*
X840Y997D02*
X888Y997D01*
X1572Y997D02*
X1593Y997D01*
X1650Y997D02*
X1659Y997D01*
X1777Y997D02*
X1791Y997D01*
X564Y996D02*
X575Y996D01*
X581Y996D02*
X595Y996D01*
X601Y996D02*
X611Y996D01*
X655Y996D02*
X664Y996D01*
X675Y996D02*
X684Y996D01*
X771Y996D02*
X815Y996D01*
X840Y996D02*
X889Y996D01*
X1573Y996D02*
X1593Y996D01*
X1650Y996D02*
X1659Y996D01*
X1778Y996D02*
X1791Y996D01*
X565Y995D02*
X611Y995D01*
X639Y995D02*
X684Y995D01*
X772Y995D02*
X814Y995D01*
X840Y995D02*
X889Y995D01*
X1573Y995D02*
X1592Y995D01*
X1651Y995D02*
X1658Y995D01*
X1778Y995D02*
X1791Y995D01*
X565Y994D02*
X610Y994D01*
X637Y994D02*
X684Y994D01*
X772Y994D02*
X813Y994D01*
X840Y994D02*
X889Y994D01*
X1574Y994D02*
X1592Y994D01*
X1651Y994D02*
X1658Y994D01*
X1778Y994D02*
X1790Y994D01*
X566Y993D02*
X610Y993D01*
X636Y993D02*
X684Y993D01*
X773Y993D02*
X813Y993D01*
X840Y993D02*
X889Y993D01*
X1574Y993D02*
X1591Y993D01*
X1653Y993D02*
X1656Y993D01*
X1779Y993D02*
X1790Y993D01*
X566Y992D02*
X609Y992D01*
X636Y992D02*
X684Y992D01*
X773Y992D02*
X812Y992D01*
X840Y992D02*
X889Y992D01*
X1574Y992D02*
X1591Y992D01*
X1779Y992D02*
X1789Y992D01*
X567Y991D02*
X608Y991D01*
X635Y991D02*
X684Y991D01*
X774Y991D02*
X792Y991D01*
X794Y991D02*
X812Y991D01*
X840Y991D02*
X889Y991D01*
X1575Y991D02*
X1591Y991D01*
X1780Y991D02*
X1789Y991D01*
X568Y990D02*
X608Y990D01*
X635Y990D02*
X684Y990D01*
X775Y990D02*
X791Y990D01*
X795Y990D02*
X811Y990D01*
X840Y990D02*
X888Y990D01*
X1575Y990D02*
X1590Y990D01*
X1780Y990D02*
X1789Y990D01*
X568Y989D02*
X607Y989D01*
X635Y989D02*
X684Y989D01*
X776Y989D02*
X790Y989D01*
X796Y989D02*
X810Y989D01*
X840Y989D02*
X886Y989D01*
X1575Y989D02*
X1590Y989D01*
X1781Y989D02*
X1788Y989D01*
X569Y988D02*
X587Y988D01*
X589Y988D02*
X607Y988D01*
X636Y988D02*
X684Y988D01*
X1576Y988D02*
X1589Y988D01*
X1781Y988D02*
X1787Y988D01*
X569Y987D02*
X586Y987D01*
X589Y987D02*
X606Y987D01*
X636Y987D02*
X683Y987D01*
X1576Y987D02*
X1589Y987D01*
X1783Y987D02*
X1786Y987D01*
X570Y986D02*
X585Y986D01*
X590Y986D02*
X605Y986D01*
X637Y986D02*
X682Y986D01*
X1577Y986D02*
X1589Y986D01*
X1577Y985D02*
X1588Y985D01*
X1577Y984D02*
X1588Y984D01*
X1578Y983D02*
X1587Y983D01*
X1578Y982D02*
X1587Y982D01*
X1579Y981D02*
X1587Y981D01*
X1579Y980D02*
X1586Y980D01*
X1580Y979D02*
X1585Y979D01*
X1325Y755D02*
X1329Y755D01*
X1324Y754D02*
X1330Y754D01*
X1323Y753D02*
X1330Y753D01*
X1323Y752D02*
X1330Y752D01*
X1323Y751D02*
X1330Y751D01*
X900Y750D02*
X901Y750D01*
X1323Y750D02*
X1330Y750D01*
X898Y749D02*
X903Y749D01*
X1323Y749D02*
X1330Y749D01*
X897Y748D02*
X903Y748D01*
X1323Y748D02*
X1330Y748D01*
X897Y747D02*
X904Y747D01*
X1323Y747D02*
X1330Y747D01*
X897Y746D02*
X904Y746D01*
X1323Y746D02*
X1330Y746D01*
X897Y745D02*
X904Y745D01*
X1323Y745D02*
X1330Y745D01*
X897Y744D02*
X904Y744D01*
X1323Y744D02*
X1330Y744D01*
X897Y743D02*
X904Y743D01*
X1323Y743D02*
X1330Y743D01*
X897Y742D02*
X904Y742D01*
X1323Y742D02*
X1330Y742D01*
X897Y741D02*
X904Y741D01*
X1323Y741D02*
X1330Y741D01*
X897Y740D02*
X904Y740D01*
X1323Y740D02*
X1330Y740D01*
X1468Y740D02*
X1471Y740D01*
X1480Y740D02*
X1490Y740D01*
X897Y739D02*
X904Y739D01*
X1323Y739D02*
X1330Y739D01*
X1355Y739D02*
X1357Y739D01*
X1387Y739D02*
X1388Y739D01*
X1411Y739D02*
X1413Y739D01*
X1421Y739D02*
X1424Y739D01*
X1467Y739D02*
X1472Y739D01*
X1479Y739D02*
X1492Y739D01*
X897Y738D02*
X904Y738D01*
X1323Y738D02*
X1330Y738D01*
X1354Y738D02*
X1358Y738D01*
X1385Y738D02*
X1390Y738D01*
X1410Y738D02*
X1414Y738D01*
X1419Y738D02*
X1427Y738D01*
X1434Y738D02*
X1442Y738D01*
X1466Y738D02*
X1473Y738D01*
X1477Y738D02*
X1493Y738D01*
X897Y737D02*
X904Y737D01*
X1323Y737D02*
X1330Y737D01*
X1353Y737D02*
X1359Y737D01*
X1384Y737D02*
X1390Y737D01*
X1409Y737D02*
X1415Y737D01*
X1417Y737D02*
X1428Y737D01*
X1433Y737D02*
X1443Y737D01*
X1466Y737D02*
X1473Y737D01*
X1476Y737D02*
X1495Y737D01*
X897Y736D02*
X904Y736D01*
X1323Y736D02*
X1330Y736D01*
X1353Y736D02*
X1359Y736D01*
X1384Y736D02*
X1391Y736D01*
X1409Y736D02*
X1429Y736D01*
X1432Y736D02*
X1444Y736D01*
X1466Y736D02*
X1473Y736D01*
X1475Y736D02*
X1496Y736D01*
X897Y735D02*
X904Y735D01*
X1043Y735D02*
X1043Y735D01*
X1057Y735D02*
X1060Y735D01*
X1323Y735D02*
X1330Y735D01*
X1353Y735D02*
X1360Y735D01*
X1384Y735D02*
X1391Y735D01*
X1409Y735D02*
X1445Y735D01*
X1466Y735D02*
X1497Y735D01*
X897Y734D02*
X904Y734D01*
X1041Y734D02*
X1045Y734D01*
X1053Y734D02*
X1064Y734D01*
X1323Y734D02*
X1330Y734D01*
X1353Y734D02*
X1360Y734D01*
X1384Y734D02*
X1391Y734D01*
X1409Y734D02*
X1446Y734D01*
X1466Y734D02*
X1498Y734D01*
X897Y733D02*
X904Y733D01*
X928Y733D02*
X931Y733D01*
X960Y733D02*
X962Y733D01*
X984Y733D02*
X987Y733D01*
X994Y733D02*
X999Y733D01*
X1010Y733D02*
X1013Y733D01*
X1040Y733D02*
X1046Y733D01*
X1052Y733D02*
X1066Y733D01*
X1323Y733D02*
X1330Y733D01*
X1353Y733D02*
X1360Y733D01*
X1384Y733D02*
X1391Y733D01*
X1409Y733D02*
X1446Y733D01*
X1466Y733D02*
X1499Y733D01*
X897Y732D02*
X904Y732D01*
X927Y732D02*
X932Y732D01*
X958Y732D02*
X964Y732D01*
X983Y732D02*
X988Y732D01*
X992Y732D02*
X1001Y732D01*
X1008Y732D02*
X1016Y732D01*
X1040Y732D02*
X1046Y732D01*
X1051Y732D02*
X1067Y732D01*
X1323Y732D02*
X1330Y732D01*
X1353Y732D02*
X1360Y732D01*
X1384Y732D02*
X1391Y732D01*
X1409Y732D02*
X1447Y732D01*
X1466Y732D02*
X1481Y732D01*
X1489Y732D02*
X1500Y732D01*
X897Y731D02*
X904Y731D01*
X927Y731D02*
X933Y731D01*
X958Y731D02*
X964Y731D01*
X983Y731D02*
X1002Y731D01*
X1006Y731D02*
X1017Y731D01*
X1040Y731D02*
X1047Y731D01*
X1050Y731D02*
X1068Y731D01*
X1323Y731D02*
X1330Y731D01*
X1353Y731D02*
X1360Y731D01*
X1384Y731D02*
X1391Y731D01*
X1409Y731D02*
X1421Y731D01*
X1424Y731D02*
X1437Y731D01*
X1439Y731D02*
X1447Y731D01*
X1466Y731D02*
X1480Y731D01*
X1490Y731D02*
X1501Y731D01*
X897Y730D02*
X904Y730D01*
X926Y730D02*
X933Y730D01*
X958Y730D02*
X964Y730D01*
X982Y730D02*
X1003Y730D01*
X1005Y730D02*
X1018Y730D01*
X1040Y730D02*
X1047Y730D01*
X1049Y730D02*
X1070Y730D01*
X1323Y730D02*
X1330Y730D01*
X1353Y730D02*
X1360Y730D01*
X1384Y730D02*
X1391Y730D01*
X1409Y730D02*
X1420Y730D01*
X1425Y730D02*
X1436Y730D01*
X1440Y730D02*
X1447Y730D01*
X1466Y730D02*
X1479Y730D01*
X1491Y730D02*
X1502Y730D01*
X897Y729D02*
X904Y729D01*
X926Y729D02*
X933Y729D01*
X958Y729D02*
X964Y729D01*
X982Y729D02*
X1019Y729D01*
X1040Y729D02*
X1071Y729D01*
X1323Y729D02*
X1330Y729D01*
X1353Y729D02*
X1360Y729D01*
X1384Y729D02*
X1391Y729D01*
X1409Y729D02*
X1419Y729D01*
X1425Y729D02*
X1435Y729D01*
X1440Y729D02*
X1447Y729D01*
X1466Y729D02*
X1478Y729D01*
X1492Y729D02*
X1503Y729D01*
X897Y728D02*
X904Y728D01*
X926Y728D02*
X933Y728D01*
X958Y728D02*
X964Y728D01*
X982Y728D02*
X1020Y728D01*
X1040Y728D02*
X1072Y728D01*
X1323Y728D02*
X1330Y728D01*
X1353Y728D02*
X1360Y728D01*
X1384Y728D02*
X1391Y728D01*
X1409Y728D02*
X1418Y728D01*
X1425Y728D02*
X1433Y728D01*
X1440Y728D02*
X1447Y728D01*
X1466Y728D02*
X1477Y728D01*
X1494Y728D02*
X1503Y728D01*
X897Y727D02*
X904Y727D01*
X926Y727D02*
X933Y727D01*
X958Y727D02*
X964Y727D01*
X982Y727D02*
X1020Y727D01*
X1040Y727D02*
X1056Y727D01*
X1061Y727D02*
X1073Y727D01*
X1323Y727D02*
X1330Y727D01*
X1353Y727D02*
X1360Y727D01*
X1384Y727D02*
X1391Y727D01*
X1409Y727D02*
X1417Y727D01*
X1425Y727D02*
X1432Y727D01*
X1440Y727D02*
X1447Y727D01*
X1466Y727D02*
X1476Y727D01*
X1495Y727D02*
X1504Y727D01*
X897Y726D02*
X904Y726D01*
X926Y726D02*
X933Y726D01*
X958Y726D02*
X964Y726D01*
X982Y726D02*
X1020Y726D01*
X1040Y726D02*
X1055Y726D01*
X1063Y726D02*
X1074Y726D01*
X1323Y726D02*
X1330Y726D01*
X1353Y726D02*
X1360Y726D01*
X1384Y726D02*
X1391Y726D01*
X1409Y726D02*
X1416Y726D01*
X1425Y726D02*
X1432Y726D01*
X1440Y726D02*
X1447Y726D01*
X1466Y726D02*
X1475Y726D01*
X1496Y726D02*
X1504Y726D01*
X897Y725D02*
X904Y725D01*
X926Y725D02*
X933Y725D01*
X958Y725D02*
X964Y725D01*
X982Y725D02*
X995Y725D01*
X998Y725D02*
X1010Y725D01*
X1013Y725D02*
X1020Y725D01*
X1040Y725D02*
X1054Y725D01*
X1064Y725D02*
X1075Y725D01*
X1323Y725D02*
X1330Y725D01*
X1353Y725D02*
X1360Y725D01*
X1384Y725D02*
X1391Y725D01*
X1409Y725D02*
X1416Y725D01*
X1425Y725D02*
X1432Y725D01*
X1440Y725D02*
X1447Y725D01*
X1466Y725D02*
X1474Y725D01*
X1497Y725D02*
X1504Y725D01*
X897Y724D02*
X904Y724D01*
X926Y724D02*
X933Y724D01*
X958Y724D02*
X964Y724D01*
X982Y724D02*
X993Y724D01*
X998Y724D02*
X1009Y724D01*
X1014Y724D02*
X1021Y724D01*
X1040Y724D02*
X1053Y724D01*
X1065Y724D02*
X1076Y724D01*
X1323Y724D02*
X1330Y724D01*
X1353Y724D02*
X1360Y724D01*
X1384Y724D02*
X1391Y724D01*
X1409Y724D02*
X1416Y724D01*
X1425Y724D02*
X1432Y724D01*
X1440Y724D02*
X1447Y724D01*
X1466Y724D02*
X1474Y724D01*
X1497Y724D02*
X1504Y724D01*
X897Y723D02*
X904Y723D01*
X926Y723D02*
X933Y723D01*
X958Y723D02*
X964Y723D01*
X982Y723D02*
X992Y723D01*
X999Y723D02*
X1008Y723D01*
X1014Y723D02*
X1021Y723D01*
X1040Y723D02*
X1052Y723D01*
X1066Y723D02*
X1076Y723D01*
X1323Y723D02*
X1330Y723D01*
X1353Y723D02*
X1360Y723D01*
X1384Y723D02*
X1391Y723D01*
X1409Y723D02*
X1416Y723D01*
X1425Y723D02*
X1432Y723D01*
X1440Y723D02*
X1447Y723D01*
X1466Y723D02*
X1473Y723D01*
X1497Y723D02*
X1504Y723D01*
X897Y722D02*
X904Y722D01*
X927Y722D02*
X933Y722D01*
X958Y722D02*
X964Y722D01*
X982Y722D02*
X991Y722D01*
X999Y722D02*
X1007Y722D01*
X1014Y722D02*
X1021Y722D01*
X1040Y722D02*
X1051Y722D01*
X1068Y722D02*
X1077Y722D01*
X1302Y722D02*
X1305Y722D01*
X1323Y722D02*
X1330Y722D01*
X1353Y722D02*
X1360Y722D01*
X1384Y722D02*
X1391Y722D01*
X1409Y722D02*
X1416Y722D01*
X1425Y722D02*
X1432Y722D01*
X1440Y722D02*
X1447Y722D01*
X1466Y722D02*
X1473Y722D01*
X1497Y722D02*
X1504Y722D01*
X897Y721D02*
X904Y721D01*
X927Y721D02*
X933Y721D01*
X958Y721D02*
X964Y721D01*
X982Y721D02*
X990Y721D01*
X999Y721D02*
X1006Y721D01*
X1014Y721D02*
X1021Y721D01*
X1040Y721D02*
X1050Y721D01*
X1069Y721D02*
X1077Y721D01*
X1301Y721D02*
X1306Y721D01*
X1323Y721D02*
X1330Y721D01*
X1353Y721D02*
X1360Y721D01*
X1384Y721D02*
X1391Y721D01*
X1409Y721D02*
X1416Y721D01*
X1425Y721D02*
X1432Y721D01*
X1440Y721D02*
X1447Y721D01*
X1466Y721D02*
X1473Y721D01*
X1497Y721D02*
X1504Y721D01*
X897Y720D02*
X904Y720D01*
X927Y720D02*
X933Y720D01*
X958Y720D02*
X964Y720D01*
X982Y720D02*
X989Y720D01*
X999Y720D02*
X1005Y720D01*
X1014Y720D02*
X1021Y720D01*
X1040Y720D02*
X1049Y720D01*
X1070Y720D02*
X1078Y720D01*
X1300Y720D02*
X1306Y720D01*
X1323Y720D02*
X1330Y720D01*
X1353Y720D02*
X1360Y720D01*
X1384Y720D02*
X1391Y720D01*
X1409Y720D02*
X1416Y720D01*
X1425Y720D02*
X1432Y720D01*
X1440Y720D02*
X1447Y720D01*
X1466Y720D02*
X1473Y720D01*
X1497Y720D02*
X1504Y720D01*
X897Y719D02*
X904Y719D01*
X927Y719D02*
X934Y719D01*
X958Y719D02*
X964Y719D01*
X982Y719D02*
X989Y719D01*
X999Y719D02*
X1005Y719D01*
X1014Y719D02*
X1021Y719D01*
X1040Y719D02*
X1048Y719D01*
X1071Y719D02*
X1078Y719D01*
X1300Y719D02*
X1307Y719D01*
X1323Y719D02*
X1330Y719D01*
X1353Y719D02*
X1360Y719D01*
X1384Y719D02*
X1391Y719D01*
X1409Y719D02*
X1416Y719D01*
X1425Y719D02*
X1432Y719D01*
X1440Y719D02*
X1447Y719D01*
X1466Y719D02*
X1473Y719D01*
X1497Y719D02*
X1504Y719D01*
X897Y718D02*
X904Y718D01*
X927Y718D02*
X934Y718D01*
X958Y718D02*
X964Y718D01*
X982Y718D02*
X989Y718D01*
X999Y718D02*
X1005Y718D01*
X1014Y718D02*
X1021Y718D01*
X1040Y718D02*
X1047Y718D01*
X1071Y718D02*
X1078Y718D01*
X1300Y718D02*
X1307Y718D01*
X1323Y718D02*
X1330Y718D01*
X1353Y718D02*
X1360Y718D01*
X1384Y718D02*
X1391Y718D01*
X1409Y718D02*
X1416Y718D01*
X1425Y718D02*
X1432Y718D01*
X1440Y718D02*
X1447Y718D01*
X1466Y718D02*
X1473Y718D01*
X1497Y718D02*
X1504Y718D01*
X897Y717D02*
X904Y717D01*
X927Y717D02*
X934Y717D01*
X958Y717D02*
X964Y717D01*
X982Y717D02*
X989Y717D01*
X999Y717D02*
X1005Y717D01*
X1014Y717D02*
X1021Y717D01*
X1040Y717D02*
X1047Y717D01*
X1071Y717D02*
X1078Y717D01*
X1300Y717D02*
X1307Y717D01*
X1323Y717D02*
X1330Y717D01*
X1353Y717D02*
X1360Y717D01*
X1384Y717D02*
X1391Y717D01*
X1409Y717D02*
X1416Y717D01*
X1425Y717D02*
X1432Y717D01*
X1440Y717D02*
X1447Y717D01*
X1466Y717D02*
X1473Y717D01*
X1497Y717D02*
X1504Y717D01*
X875Y716D02*
X879Y716D01*
X897Y716D02*
X904Y716D01*
X927Y716D02*
X934Y716D01*
X958Y716D02*
X964Y716D01*
X982Y716D02*
X989Y716D01*
X999Y716D02*
X1005Y716D01*
X1014Y716D02*
X1021Y716D01*
X1040Y716D02*
X1047Y716D01*
X1071Y716D02*
X1078Y716D01*
X1300Y716D02*
X1307Y716D01*
X1323Y716D02*
X1330Y716D01*
X1353Y716D02*
X1360Y716D01*
X1384Y716D02*
X1391Y716D01*
X1409Y716D02*
X1416Y716D01*
X1425Y716D02*
X1432Y716D01*
X1440Y716D02*
X1447Y716D01*
X1466Y716D02*
X1473Y716D01*
X1497Y716D02*
X1504Y716D01*
X874Y715D02*
X880Y715D01*
X897Y715D02*
X904Y715D01*
X927Y715D02*
X934Y715D01*
X958Y715D02*
X964Y715D01*
X982Y715D02*
X989Y715D01*
X999Y715D02*
X1005Y715D01*
X1014Y715D02*
X1021Y715D01*
X1040Y715D02*
X1047Y715D01*
X1071Y715D02*
X1078Y715D01*
X1300Y715D02*
X1307Y715D01*
X1323Y715D02*
X1330Y715D01*
X1353Y715D02*
X1360Y715D01*
X1384Y715D02*
X1391Y715D01*
X1409Y715D02*
X1416Y715D01*
X1425Y715D02*
X1432Y715D01*
X1441Y715D02*
X1447Y715D01*
X1466Y715D02*
X1473Y715D01*
X1497Y715D02*
X1504Y715D01*
X874Y714D02*
X880Y714D01*
X897Y714D02*
X904Y714D01*
X927Y714D02*
X934Y714D01*
X958Y714D02*
X964Y714D01*
X982Y714D02*
X989Y714D01*
X999Y714D02*
X1005Y714D01*
X1014Y714D02*
X1021Y714D01*
X1040Y714D02*
X1047Y714D01*
X1071Y714D02*
X1078Y714D01*
X1300Y714D02*
X1307Y714D01*
X1323Y714D02*
X1330Y714D01*
X1353Y714D02*
X1360Y714D01*
X1384Y714D02*
X1391Y714D01*
X1409Y714D02*
X1416Y714D01*
X1425Y714D02*
X1432Y714D01*
X1441Y714D02*
X1447Y714D01*
X1466Y714D02*
X1473Y714D01*
X1497Y714D02*
X1504Y714D01*
X873Y713D02*
X880Y713D01*
X897Y713D02*
X904Y713D01*
X927Y713D02*
X934Y713D01*
X958Y713D02*
X964Y713D01*
X982Y713D02*
X989Y713D01*
X999Y713D02*
X1005Y713D01*
X1014Y713D02*
X1021Y713D01*
X1040Y713D02*
X1047Y713D01*
X1071Y713D02*
X1078Y713D01*
X1300Y713D02*
X1307Y713D01*
X1323Y713D02*
X1330Y713D01*
X1353Y713D02*
X1360Y713D01*
X1384Y713D02*
X1391Y713D01*
X1409Y713D02*
X1416Y713D01*
X1425Y713D02*
X1432Y713D01*
X1441Y713D02*
X1448Y713D01*
X1466Y713D02*
X1473Y713D01*
X1497Y713D02*
X1504Y713D01*
X873Y712D02*
X880Y712D01*
X897Y712D02*
X904Y712D01*
X927Y712D02*
X934Y712D01*
X958Y712D02*
X964Y712D01*
X982Y712D02*
X989Y712D01*
X999Y712D02*
X1005Y712D01*
X1014Y712D02*
X1021Y712D01*
X1040Y712D02*
X1047Y712D01*
X1071Y712D02*
X1078Y712D01*
X1300Y712D02*
X1307Y712D01*
X1323Y712D02*
X1330Y712D01*
X1353Y712D02*
X1360Y712D01*
X1384Y712D02*
X1391Y712D01*
X1409Y712D02*
X1416Y712D01*
X1425Y712D02*
X1432Y712D01*
X1441Y712D02*
X1448Y712D01*
X1466Y712D02*
X1473Y712D01*
X1497Y712D02*
X1504Y712D01*
X873Y711D02*
X880Y711D01*
X897Y711D02*
X904Y711D01*
X927Y711D02*
X934Y711D01*
X958Y711D02*
X964Y711D01*
X982Y711D02*
X989Y711D01*
X999Y711D02*
X1005Y711D01*
X1014Y711D02*
X1021Y711D01*
X1040Y711D02*
X1047Y711D01*
X1071Y711D02*
X1078Y711D01*
X1300Y711D02*
X1307Y711D01*
X1323Y711D02*
X1330Y711D01*
X1353Y711D02*
X1360Y711D01*
X1384Y711D02*
X1391Y711D01*
X1409Y711D02*
X1416Y711D01*
X1425Y711D02*
X1432Y711D01*
X1441Y711D02*
X1448Y711D01*
X1466Y711D02*
X1473Y711D01*
X1497Y711D02*
X1504Y711D01*
X873Y710D02*
X880Y710D01*
X897Y710D02*
X904Y710D01*
X927Y710D02*
X934Y710D01*
X958Y710D02*
X964Y710D01*
X982Y710D02*
X989Y710D01*
X999Y710D02*
X1005Y710D01*
X1014Y710D02*
X1021Y710D01*
X1040Y710D02*
X1047Y710D01*
X1071Y710D02*
X1078Y710D01*
X1300Y710D02*
X1307Y710D01*
X1323Y710D02*
X1330Y710D01*
X1353Y710D02*
X1360Y710D01*
X1383Y710D02*
X1391Y710D01*
X1409Y710D02*
X1416Y710D01*
X1425Y710D02*
X1432Y710D01*
X1441Y710D02*
X1448Y710D01*
X1466Y710D02*
X1473Y710D01*
X1497Y710D02*
X1504Y710D01*
X873Y709D02*
X880Y709D01*
X897Y709D02*
X904Y709D01*
X927Y709D02*
X934Y709D01*
X958Y709D02*
X964Y709D01*
X982Y709D02*
X989Y709D01*
X999Y709D02*
X1005Y709D01*
X1014Y709D02*
X1021Y709D01*
X1040Y709D02*
X1047Y709D01*
X1071Y709D02*
X1078Y709D01*
X1300Y709D02*
X1307Y709D01*
X1323Y709D02*
X1330Y709D01*
X1353Y709D02*
X1360Y709D01*
X1381Y709D02*
X1391Y709D01*
X1409Y709D02*
X1416Y709D01*
X1425Y709D02*
X1432Y709D01*
X1441Y709D02*
X1448Y709D01*
X1466Y709D02*
X1474Y709D01*
X1497Y709D02*
X1504Y709D01*
X873Y708D02*
X880Y708D01*
X897Y708D02*
X904Y708D01*
X927Y708D02*
X934Y708D01*
X958Y708D02*
X964Y708D01*
X982Y708D02*
X989Y708D01*
X999Y708D02*
X1005Y708D01*
X1014Y708D02*
X1021Y708D01*
X1040Y708D02*
X1047Y708D01*
X1071Y708D02*
X1078Y708D01*
X1300Y708D02*
X1307Y708D01*
X1323Y708D02*
X1330Y708D01*
X1354Y708D02*
X1360Y708D01*
X1380Y708D02*
X1391Y708D01*
X1409Y708D02*
X1416Y708D01*
X1425Y708D02*
X1432Y708D01*
X1441Y708D02*
X1448Y708D01*
X1466Y708D02*
X1475Y708D01*
X1496Y708D02*
X1504Y708D01*
X873Y707D02*
X880Y707D01*
X897Y707D02*
X904Y707D01*
X927Y707D02*
X934Y707D01*
X958Y707D02*
X964Y707D01*
X982Y707D02*
X989Y707D01*
X999Y707D02*
X1005Y707D01*
X1014Y707D02*
X1021Y707D01*
X1040Y707D02*
X1047Y707D01*
X1071Y707D02*
X1078Y707D01*
X1300Y707D02*
X1307Y707D01*
X1323Y707D02*
X1330Y707D01*
X1354Y707D02*
X1361Y707D01*
X1378Y707D02*
X1391Y707D01*
X1409Y707D02*
X1416Y707D01*
X1425Y707D02*
X1432Y707D01*
X1441Y707D02*
X1448Y707D01*
X1466Y707D02*
X1476Y707D01*
X1495Y707D02*
X1504Y707D01*
X873Y706D02*
X880Y706D01*
X897Y706D02*
X904Y706D01*
X927Y706D02*
X934Y706D01*
X958Y706D02*
X964Y706D01*
X982Y706D02*
X989Y706D01*
X999Y706D02*
X1005Y706D01*
X1014Y706D02*
X1021Y706D01*
X1040Y706D02*
X1047Y706D01*
X1071Y706D02*
X1078Y706D01*
X1300Y706D02*
X1307Y706D01*
X1323Y706D02*
X1330Y706D01*
X1354Y706D02*
X1361Y706D01*
X1377Y706D02*
X1391Y706D01*
X1409Y706D02*
X1416Y706D01*
X1425Y706D02*
X1432Y706D01*
X1441Y706D02*
X1448Y706D01*
X1466Y706D02*
X1477Y706D01*
X1494Y706D02*
X1503Y706D01*
X873Y705D02*
X880Y705D01*
X897Y705D02*
X904Y705D01*
X927Y705D02*
X934Y705D01*
X957Y705D02*
X964Y705D01*
X982Y705D02*
X989Y705D01*
X999Y705D02*
X1005Y705D01*
X1014Y705D02*
X1021Y705D01*
X1040Y705D02*
X1047Y705D01*
X1071Y705D02*
X1078Y705D01*
X1300Y705D02*
X1307Y705D01*
X1323Y705D02*
X1330Y705D01*
X1354Y705D02*
X1361Y705D01*
X1375Y705D02*
X1391Y705D01*
X1409Y705D02*
X1416Y705D01*
X1425Y705D02*
X1432Y705D01*
X1441Y705D02*
X1448Y705D01*
X1466Y705D02*
X1478Y705D01*
X1493Y705D02*
X1503Y705D01*
X873Y704D02*
X880Y704D01*
X897Y704D02*
X904Y704D01*
X927Y704D02*
X934Y704D01*
X956Y704D02*
X964Y704D01*
X982Y704D02*
X989Y704D01*
X999Y704D02*
X1005Y704D01*
X1014Y704D02*
X1021Y704D01*
X1040Y704D02*
X1047Y704D01*
X1071Y704D02*
X1078Y704D01*
X1300Y704D02*
X1308Y704D01*
X1322Y704D02*
X1330Y704D01*
X1354Y704D02*
X1361Y704D01*
X1374Y704D02*
X1391Y704D01*
X1409Y704D02*
X1416Y704D01*
X1425Y704D02*
X1432Y704D01*
X1441Y704D02*
X1448Y704D01*
X1466Y704D02*
X1479Y704D01*
X1492Y704D02*
X1502Y704D01*
X873Y703D02*
X880Y703D01*
X897Y703D02*
X904Y703D01*
X927Y703D02*
X934Y703D01*
X955Y703D02*
X964Y703D01*
X982Y703D02*
X989Y703D01*
X999Y703D02*
X1005Y703D01*
X1014Y703D02*
X1021Y703D01*
X1040Y703D02*
X1048Y703D01*
X1071Y703D02*
X1078Y703D01*
X1300Y703D02*
X1309Y703D01*
X1321Y703D02*
X1330Y703D01*
X1354Y703D02*
X1362Y703D01*
X1372Y703D02*
X1391Y703D01*
X1409Y703D02*
X1416Y703D01*
X1425Y703D02*
X1432Y703D01*
X1441Y703D02*
X1448Y703D01*
X1466Y703D02*
X1480Y703D01*
X1491Y703D02*
X1502Y703D01*
X873Y702D02*
X880Y702D01*
X897Y702D02*
X904Y702D01*
X927Y702D02*
X934Y702D01*
X953Y702D02*
X964Y702D01*
X982Y702D02*
X989Y702D01*
X999Y702D02*
X1005Y702D01*
X1014Y702D02*
X1021Y702D01*
X1040Y702D02*
X1049Y702D01*
X1070Y702D02*
X1078Y702D01*
X1301Y702D02*
X1329Y702D01*
X1354Y702D02*
X1391Y702D01*
X1409Y702D02*
X1416Y702D01*
X1425Y702D02*
X1432Y702D01*
X1441Y702D02*
X1448Y702D01*
X1466Y702D02*
X1481Y702D01*
X1489Y702D02*
X1501Y702D01*
X873Y701D02*
X880Y701D01*
X897Y701D02*
X904Y701D01*
X927Y701D02*
X934Y701D01*
X951Y701D02*
X964Y701D01*
X982Y701D02*
X989Y701D01*
X999Y701D02*
X1005Y701D01*
X1014Y701D02*
X1021Y701D01*
X1040Y701D02*
X1050Y701D01*
X1069Y701D02*
X1077Y701D01*
X1301Y701D02*
X1329Y701D01*
X1355Y701D02*
X1391Y701D01*
X1409Y701D02*
X1416Y701D01*
X1425Y701D02*
X1432Y701D01*
X1441Y701D02*
X1448Y701D01*
X1466Y701D02*
X1482Y701D01*
X1488Y701D02*
X1499Y701D01*
X873Y700D02*
X880Y700D01*
X897Y700D02*
X904Y700D01*
X927Y700D02*
X934Y700D01*
X950Y700D02*
X964Y700D01*
X982Y700D02*
X989Y700D01*
X999Y700D02*
X1005Y700D01*
X1014Y700D02*
X1021Y700D01*
X1040Y700D02*
X1051Y700D01*
X1067Y700D02*
X1077Y700D01*
X1302Y700D02*
X1328Y700D01*
X1355Y700D02*
X1381Y700D01*
X1384Y700D02*
X1391Y700D01*
X1409Y700D02*
X1416Y700D01*
X1425Y700D02*
X1432Y700D01*
X1441Y700D02*
X1448Y700D01*
X1466Y700D02*
X1498Y700D01*
X874Y699D02*
X881Y699D01*
X897Y699D02*
X904Y699D01*
X927Y699D02*
X935Y699D01*
X948Y699D02*
X964Y699D01*
X982Y699D02*
X989Y699D01*
X999Y699D02*
X1005Y699D01*
X1015Y699D02*
X1021Y699D01*
X1040Y699D02*
X1052Y699D01*
X1066Y699D02*
X1076Y699D01*
X1302Y699D02*
X1328Y699D01*
X1356Y699D02*
X1379Y699D01*
X1384Y699D02*
X1391Y699D01*
X1409Y699D02*
X1416Y699D01*
X1425Y699D02*
X1432Y699D01*
X1441Y699D02*
X1448Y699D01*
X1466Y699D02*
X1497Y699D01*
X874Y698D02*
X881Y698D01*
X896Y698D02*
X904Y698D01*
X927Y698D02*
X935Y698D01*
X947Y698D02*
X964Y698D01*
X982Y698D02*
X989Y698D01*
X999Y698D02*
X1005Y698D01*
X1015Y698D02*
X1022Y698D01*
X1040Y698D02*
X1053Y698D01*
X1065Y698D02*
X1076Y698D01*
X1303Y698D02*
X1327Y698D01*
X1357Y698D02*
X1378Y698D01*
X1384Y698D02*
X1391Y698D01*
X1409Y698D02*
X1416Y698D01*
X1425Y698D02*
X1432Y698D01*
X1441Y698D02*
X1448Y698D01*
X1466Y698D02*
X1473Y698D01*
X1475Y698D02*
X1496Y698D01*
X874Y697D02*
X883Y697D01*
X894Y697D02*
X903Y697D01*
X928Y697D02*
X936Y697D01*
X945Y697D02*
X964Y697D01*
X982Y697D02*
X989Y697D01*
X999Y697D02*
X1005Y697D01*
X1015Y697D02*
X1022Y697D01*
X1040Y697D02*
X1054Y697D01*
X1064Y697D02*
X1075Y697D01*
X1304Y697D02*
X1326Y697D01*
X1358Y697D02*
X1376Y697D01*
X1384Y697D02*
X1391Y697D01*
X1409Y697D02*
X1415Y697D01*
X1425Y697D02*
X1432Y697D01*
X1441Y697D02*
X1448Y697D01*
X1466Y697D02*
X1473Y697D01*
X1476Y697D02*
X1495Y697D01*
X874Y696D02*
X903Y696D01*
X928Y696D02*
X964Y696D01*
X982Y696D02*
X989Y696D01*
X999Y696D02*
X1005Y696D01*
X1015Y696D02*
X1022Y696D01*
X1040Y696D02*
X1055Y696D01*
X1063Y696D02*
X1074Y696D01*
X1306Y696D02*
X1324Y696D01*
X1360Y696D02*
X1375Y696D01*
X1385Y696D02*
X1390Y696D01*
X1410Y696D02*
X1415Y696D01*
X1426Y696D02*
X1431Y696D01*
X1442Y696D02*
X1447Y696D01*
X1466Y696D02*
X1473Y696D01*
X1477Y696D02*
X1494Y696D01*
X875Y695D02*
X902Y695D01*
X929Y695D02*
X964Y695D01*
X982Y695D02*
X989Y695D01*
X999Y695D02*
X1005Y695D01*
X1015Y695D02*
X1022Y695D01*
X1040Y695D02*
X1073Y695D01*
X1308Y695D02*
X1322Y695D01*
X1362Y695D02*
X1372Y695D01*
X1386Y695D02*
X1389Y695D01*
X1411Y695D02*
X1414Y695D01*
X1427Y695D02*
X1430Y695D01*
X1443Y695D02*
X1446Y695D01*
X1466Y695D02*
X1473Y695D01*
X1478Y695D02*
X1492Y695D01*
X875Y694D02*
X902Y694D01*
X929Y694D02*
X954Y694D01*
X958Y694D02*
X964Y694D01*
X982Y694D02*
X989Y694D01*
X999Y694D02*
X1005Y694D01*
X1015Y694D02*
X1022Y694D01*
X1040Y694D02*
X1072Y694D01*
X1466Y694D02*
X1473Y694D01*
X1480Y694D02*
X1491Y694D01*
X876Y693D02*
X901Y693D01*
X930Y693D02*
X953Y693D01*
X958Y693D02*
X964Y693D01*
X982Y693D02*
X989Y693D01*
X999Y693D02*
X1005Y693D01*
X1015Y693D02*
X1022Y693D01*
X1040Y693D02*
X1071Y693D01*
X1466Y693D02*
X1473Y693D01*
X1483Y693D02*
X1488Y693D01*
X877Y692D02*
X900Y692D01*
X931Y692D02*
X951Y692D01*
X958Y692D02*
X964Y692D01*
X982Y692D02*
X989Y692D01*
X999Y692D02*
X1005Y692D01*
X1015Y692D02*
X1022Y692D01*
X1040Y692D02*
X1069Y692D01*
X1466Y692D02*
X1473Y692D01*
X878Y691D02*
X899Y691D01*
X932Y691D02*
X950Y691D01*
X958Y691D02*
X964Y691D01*
X983Y691D02*
X989Y691D01*
X999Y691D02*
X1005Y691D01*
X1015Y691D02*
X1021Y691D01*
X1040Y691D02*
X1047Y691D01*
X1049Y691D02*
X1068Y691D01*
X1466Y691D02*
X1473Y691D01*
X880Y690D02*
X897Y690D01*
X934Y690D02*
X948Y690D01*
X959Y690D02*
X963Y690D01*
X983Y690D02*
X988Y690D01*
X1000Y690D02*
X1004Y690D01*
X1016Y690D02*
X1021Y690D01*
X1040Y690D02*
X1047Y690D01*
X1051Y690D02*
X1067Y690D01*
X1466Y690D02*
X1473Y690D01*
X883Y689D02*
X895Y689D01*
X936Y689D02*
X945Y689D01*
X960Y689D02*
X962Y689D01*
X985Y689D02*
X987Y689D01*
X1001Y689D02*
X1003Y689D01*
X1017Y689D02*
X1019Y689D01*
X1040Y689D02*
X1047Y689D01*
X1052Y689D02*
X1066Y689D01*
X1466Y689D02*
X1473Y689D01*
X1040Y688D02*
X1047Y688D01*
X1054Y688D02*
X1064Y688D01*
X1466Y688D02*
X1473Y688D01*
X1040Y687D02*
X1047Y687D01*
X1466Y687D02*
X1473Y687D01*
X1040Y686D02*
X1047Y686D01*
X1466Y686D02*
X1473Y686D01*
X1040Y685D02*
X1047Y685D01*
X1466Y685D02*
X1473Y685D01*
X1040Y684D02*
X1047Y684D01*
X1466Y684D02*
X1473Y684D01*
X1040Y683D02*
X1047Y683D01*
X1466Y683D02*
X1473Y683D01*
X1040Y682D02*
X1047Y682D01*
X1466Y682D02*
X1473Y682D01*
X1040Y681D02*
X1047Y681D01*
X1466Y681D02*
X1473Y681D01*
X1040Y680D02*
X1047Y680D01*
X1466Y680D02*
X1473Y680D01*
X1040Y679D02*
X1047Y679D01*
X1467Y679D02*
X1472Y679D01*
X1040Y678D02*
X1047Y678D01*
X1469Y678D02*
X1470Y678D01*
X1040Y677D02*
X1047Y677D01*
X1040Y676D02*
X1047Y676D01*
X1040Y675D02*
X1046Y675D01*
X1040Y674D02*
X1046Y674D01*
X1041Y673D02*
X1045Y673D01*
D02*
G04 End of Silk1*
M02*