G04 MADE WITH FRITZING*
G04 WWW.FRITZING.ORG*
G04 DOUBLE SIDED*
G04 HOLES PLATED*
G04 CONTOUR ON CENTER OF CONTOUR VECTOR*
%ASAXBY*%
%FSLAX23Y23*%
%MOIN*%
%OFA0B0*%
%SFA1.0B1.0*%
%ADD10C,0.078000*%
%ADD11C,0.075433*%
%ADD12C,0.048000*%
%LNCOPPER1*%
G90*
G70*
G54D10*
X324Y850D03*
X424Y850D03*
X524Y850D03*
X1324Y850D03*
X1424Y850D03*
X1524Y850D03*
X1324Y650D03*
X1424Y650D03*
X1524Y650D03*
X324Y650D03*
X424Y650D03*
X524Y650D03*
G54D11*
X124Y750D03*
G54D10*
X1624Y450D03*
X1524Y450D03*
X1424Y450D03*
X1324Y450D03*
X1224Y450D03*
X1124Y450D03*
X1024Y450D03*
X924Y450D03*
X824Y450D03*
X724Y450D03*
X624Y450D03*
X524Y450D03*
X424Y450D03*
X324Y450D03*
X224Y450D03*
X1624Y350D03*
X1524Y350D03*
X1424Y350D03*
X1324Y350D03*
X1224Y350D03*
X1124Y350D03*
X1024Y350D03*
X924Y350D03*
X824Y350D03*
X724Y350D03*
X624Y350D03*
X524Y350D03*
X424Y350D03*
X324Y350D03*
X224Y350D03*
G54D12*
X624Y308D02*
X624Y249D01*
D02*
X624Y249D02*
X124Y249D01*
D02*
X124Y249D02*
X124Y549D01*
D02*
X124Y549D02*
X523Y549D01*
D02*
X523Y549D02*
X523Y608D01*
D02*
X1324Y808D02*
X1324Y691D01*
D02*
X1424Y808D02*
X1424Y691D01*
D02*
X424Y808D02*
X424Y691D01*
D02*
X164Y749D02*
X424Y749D01*
D02*
X424Y749D02*
X424Y808D01*
D02*
X624Y491D02*
X624Y549D01*
D02*
X624Y549D02*
X624Y950D01*
D02*
X624Y950D02*
X324Y950D01*
D02*
X324Y950D02*
X324Y891D01*
D02*
X1524Y808D02*
X1524Y691D01*
G04 End of Copper1*
M02*