G04 MADE WITH FRITZING*
G04 WWW.FRITZING.ORG*
G04 DOUBLE SIDED*
G04 HOLES PLATED*
G04 CONTOUR ON CENTER OF CONTOUR VECTOR*
%ASAXBY*%
%FSLAX23Y23*%
%MOIN*%
%OFA0B0*%
%SFA1.0B1.0*%
%ADD10C,0.088000*%
%ADD11C,0.085433*%
%LNMASK1*%
G90*
G70*
G54D10*
X608Y921D03*
X708Y921D03*
X808Y921D03*
X1608Y921D03*
X1708Y921D03*
X1808Y921D03*
X1608Y721D03*
X1708Y721D03*
X1808Y721D03*
X608Y721D03*
X708Y721D03*
X808Y721D03*
G54D11*
X408Y821D03*
G54D10*
X1908Y521D03*
X1808Y521D03*
X1708Y521D03*
X1608Y521D03*
X1508Y521D03*
X1408Y521D03*
X1308Y521D03*
X1208Y521D03*
X1108Y521D03*
X1008Y521D03*
X908Y521D03*
X808Y521D03*
X708Y521D03*
X608Y521D03*
X508Y521D03*
X1908Y421D03*
X1808Y421D03*
X1708Y421D03*
X1608Y421D03*
X1508Y421D03*
X1408Y421D03*
X1308Y421D03*
X1208Y421D03*
X1108Y421D03*
X1008Y421D03*
X908Y421D03*
X808Y421D03*
X708Y421D03*
X608Y421D03*
X508Y421D03*
X608Y2021D03*
X708Y2021D03*
X808Y2021D03*
X1608Y2021D03*
X1708Y2021D03*
X1808Y2021D03*
X1608Y1821D03*
X1708Y1821D03*
X1808Y1821D03*
X608Y1821D03*
X708Y1821D03*
X808Y1821D03*
G54D11*
X408Y1921D03*
G54D10*
X1908Y1621D03*
X1808Y1621D03*
X1708Y1621D03*
X1608Y1621D03*
X1508Y1621D03*
X1408Y1621D03*
X1308Y1621D03*
X1208Y1621D03*
X1108Y1621D03*
X1008Y1621D03*
X908Y1621D03*
X808Y1621D03*
X708Y1621D03*
X608Y1621D03*
X508Y1621D03*
X1908Y1521D03*
X1808Y1521D03*
X1708Y1521D03*
X1608Y1521D03*
X1508Y1521D03*
X1408Y1521D03*
X1308Y1521D03*
X1208Y1521D03*
X1108Y1521D03*
X1008Y1521D03*
X908Y1521D03*
X808Y1521D03*
X708Y1521D03*
X608Y1521D03*
X508Y1521D03*
X608Y3121D03*
X708Y3121D03*
X808Y3121D03*
X1608Y3121D03*
X1708Y3121D03*
X1808Y3121D03*
X1608Y2921D03*
X1708Y2921D03*
X1808Y2921D03*
X608Y2921D03*
X708Y2921D03*
X808Y2921D03*
G54D11*
X408Y3021D03*
G54D10*
X1908Y2721D03*
X1808Y2721D03*
X1708Y2721D03*
X1608Y2721D03*
X1508Y2721D03*
X1408Y2721D03*
X1308Y2721D03*
X1208Y2721D03*
X1108Y2721D03*
X1008Y2721D03*
X908Y2721D03*
X808Y2721D03*
X708Y2721D03*
X608Y2721D03*
X508Y2721D03*
X1908Y2621D03*
X1808Y2621D03*
X1708Y2621D03*
X1608Y2621D03*
X1508Y2621D03*
X1408Y2621D03*
X1308Y2621D03*
X1208Y2621D03*
X1108Y2621D03*
X1008Y2621D03*
X908Y2621D03*
X808Y2621D03*
X708Y2621D03*
X608Y2621D03*
X508Y2621D03*
G04 End of Mask1*
M02*