G04 MADE WITH FRITZING*
G04 WWW.FRITZING.ORG*
G04 DOUBLE SIDED*
G04 HOLES PLATED*
G04 CONTOUR ON CENTER OF CONTOUR VECTOR*
%ASAXBY*%
%FSLAX23Y23*%
%MOIN*%
%OFA0B0*%
%SFA1.0B1.0*%
%ADD10C,0.078000*%
%ADD11C,0.075433*%
%ADD12C,0.048000*%
%LNCOPPER0*%
G90*
G70*
G54D10*
X608Y921D03*
X708Y921D03*
X808Y921D03*
X1608Y921D03*
X1708Y921D03*
X1808Y921D03*
X1608Y721D03*
X1708Y721D03*
X1808Y721D03*
X1608Y2921D03*
X1708Y2921D03*
X1808Y2921D03*
X1608Y1821D03*
X1708Y1821D03*
X1808Y1821D03*
X608Y721D03*
X708Y721D03*
X808Y721D03*
X608Y2921D03*
X708Y2921D03*
X808Y2921D03*
X608Y1821D03*
X708Y1821D03*
X808Y1821D03*
G54D11*
X408Y3021D03*
X408Y1921D03*
X408Y821D03*
G54D10*
X1908Y2721D03*
X1808Y2721D03*
X1708Y2721D03*
X1608Y2721D03*
X1508Y2721D03*
X1408Y2721D03*
X1308Y2721D03*
X1208Y2721D03*
X1108Y2721D03*
X1008Y2721D03*
X908Y2721D03*
X808Y2721D03*
X708Y2721D03*
X608Y2721D03*
X508Y2721D03*
X1908Y521D03*
X1808Y521D03*
X1708Y521D03*
X1608Y521D03*
X1508Y521D03*
X1408Y521D03*
X1308Y521D03*
X1208Y521D03*
X1108Y521D03*
X1008Y521D03*
X908Y521D03*
X808Y521D03*
X708Y521D03*
X608Y521D03*
X508Y521D03*
X1908Y1621D03*
X1808Y1621D03*
X1708Y1621D03*
X1608Y1621D03*
X1508Y1621D03*
X1408Y1621D03*
X1308Y1621D03*
X1208Y1621D03*
X1108Y1621D03*
X1008Y1621D03*
X908Y1621D03*
X808Y1621D03*
X708Y1621D03*
X608Y1621D03*
X508Y1621D03*
X1908Y2621D03*
X1808Y2621D03*
X1708Y2621D03*
X1608Y2621D03*
X1508Y2621D03*
X1408Y2621D03*
X1308Y2621D03*
X1208Y2621D03*
X1108Y2621D03*
X1008Y2621D03*
X908Y2621D03*
X808Y2621D03*
X708Y2621D03*
X608Y2621D03*
X508Y2621D03*
X1908Y1521D03*
X1808Y1521D03*
X1708Y1521D03*
X1608Y1521D03*
X1508Y1521D03*
X1408Y1521D03*
X1308Y1521D03*
X1208Y1521D03*
X1108Y1521D03*
X1008Y1521D03*
X908Y1521D03*
X808Y1521D03*
X708Y1521D03*
X608Y1521D03*
X508Y1521D03*
X1908Y421D03*
X1808Y421D03*
X1708Y421D03*
X1608Y421D03*
X1508Y421D03*
X1408Y421D03*
X1308Y421D03*
X1208Y421D03*
X1108Y421D03*
X1008Y421D03*
X908Y421D03*
X808Y421D03*
X708Y421D03*
X608Y421D03*
X508Y421D03*
X608Y2021D03*
X708Y2021D03*
X808Y2021D03*
X1608Y2021D03*
X1708Y2021D03*
X1808Y2021D03*
X608Y3121D03*
X708Y3121D03*
X808Y3121D03*
X1608Y3121D03*
X1708Y3121D03*
X1808Y3121D03*
G54D12*
X808Y1979D02*
X808Y1862D01*
D02*
X808Y3079D02*
X808Y2962D01*
D02*
X808Y879D02*
X808Y762D01*
D02*
X608Y1662D02*
X608Y1720D01*
D02*
X608Y2762D02*
X608Y2820D01*
D02*
X608Y562D02*
X608Y620D01*
D02*
X507Y1720D02*
X507Y2121D01*
D02*
X608Y2820D02*
X507Y2820D01*
D02*
X507Y2820D02*
X507Y3221D01*
D02*
X608Y620D02*
X507Y620D01*
D02*
X608Y1720D02*
X507Y1720D01*
D02*
X507Y620D02*
X507Y1021D01*
D02*
X908Y3221D02*
X910Y3205D01*
D02*
X908Y2121D02*
X910Y2105D01*
D02*
X507Y3221D02*
X908Y3221D01*
D02*
X507Y1021D02*
X908Y1021D01*
D02*
X507Y2121D02*
X908Y2121D01*
D02*
X908Y1021D02*
X910Y1005D01*
D02*
X908Y3020D02*
X1509Y3020D01*
D02*
X910Y3205D02*
X908Y3020D01*
D02*
X1509Y3020D02*
X1708Y3020D01*
D02*
X1509Y1920D02*
X1708Y1920D01*
D02*
X910Y2105D02*
X908Y1920D01*
D02*
X1509Y820D02*
X1708Y820D01*
D02*
X910Y1005D02*
X908Y820D01*
D02*
X908Y820D02*
X1509Y820D01*
D02*
X908Y1920D02*
X1509Y1920D01*
D02*
X1708Y1920D02*
X1708Y1862D01*
D02*
X1708Y3020D02*
X1708Y2962D01*
D02*
X1708Y820D02*
X1708Y762D01*
D02*
X608Y1979D02*
X608Y1862D01*
D02*
X608Y3079D02*
X608Y2962D01*
D02*
X608Y879D02*
X608Y762D01*
D02*
X808Y379D02*
X808Y320D01*
D02*
X808Y1479D02*
X808Y1420D01*
D02*
X808Y2579D02*
X808Y2520D01*
D02*
X808Y1420D02*
X2008Y1420D01*
D02*
X808Y2520D02*
X2008Y2520D01*
D02*
X808Y320D02*
X2008Y320D01*
D02*
X2008Y2520D02*
X2009Y2921D01*
D02*
X2008Y320D02*
X2009Y721D01*
D02*
X2008Y1420D02*
X2009Y1821D01*
D02*
X2009Y2921D02*
X1849Y2921D01*
D02*
X2009Y721D02*
X1849Y721D01*
D02*
X2009Y1821D02*
X1849Y1821D01*
D02*
X1308Y2679D02*
X1308Y2662D01*
D02*
X1308Y1579D02*
X1308Y1562D01*
D02*
X1308Y479D02*
X1308Y462D01*
D02*
X1608Y1579D02*
X1608Y1562D01*
D02*
X1608Y2679D02*
X1608Y2662D01*
D02*
X1608Y479D02*
X1608Y462D01*
D02*
X1808Y2679D02*
X1808Y2662D01*
D02*
X1808Y1579D02*
X1808Y1562D01*
D02*
X1808Y479D02*
X1808Y462D01*
D02*
X1708Y2679D02*
X1708Y2662D01*
D02*
X1708Y479D02*
X1708Y462D01*
D02*
X1708Y1579D02*
X1708Y1562D01*
D02*
X1408Y2679D02*
X1408Y2662D01*
D02*
X1408Y479D02*
X1408Y462D01*
D02*
X1408Y1579D02*
X1408Y1562D01*
D02*
X1908Y2679D02*
X1908Y2662D01*
D02*
X1908Y1579D02*
X1908Y1562D01*
D02*
X1908Y479D02*
X1908Y462D01*
D02*
X708Y2662D02*
X708Y2679D01*
D02*
X708Y1562D02*
X708Y1579D01*
D02*
X708Y462D02*
X708Y479D01*
D02*
X1508Y1579D02*
X1508Y1562D01*
D02*
X1508Y2679D02*
X1508Y2662D01*
D02*
X1508Y479D02*
X1508Y462D01*
D02*
X408Y2720D02*
X467Y2720D01*
D02*
X408Y2981D02*
X408Y2720D01*
D02*
X408Y1620D02*
X467Y1620D01*
D02*
X408Y781D02*
X408Y520D01*
D02*
X408Y520D02*
X467Y520D01*
D02*
X408Y1881D02*
X408Y1620D01*
D02*
X808Y2820D02*
X808Y2762D01*
D02*
X1608Y2879D02*
X1608Y2820D01*
D02*
X1608Y1779D02*
X1608Y1720D01*
D02*
X1608Y2820D02*
X808Y2820D01*
D02*
X1608Y1720D02*
X808Y1720D01*
D02*
X1608Y679D02*
X1608Y620D01*
D02*
X808Y620D02*
X808Y562D01*
D02*
X1608Y620D02*
X808Y620D01*
D02*
X808Y1720D02*
X808Y1662D01*
D02*
X649Y1521D02*
X667Y1521D01*
D02*
X649Y2621D02*
X667Y2621D01*
D02*
X649Y421D02*
X667Y421D01*
D02*
X567Y1521D02*
X549Y1521D01*
D02*
X567Y2621D02*
X549Y2621D01*
D02*
X567Y421D02*
X549Y421D01*
D02*
X1208Y451D02*
X1208Y491D01*
D02*
X1208Y1551D02*
X1208Y1591D01*
D02*
X1208Y2651D02*
X1208Y2691D01*
G04 End of Copper0*
M02*