M48
INCH
T10C0.038000
T11C0.035433
%
T10
X035530Y031678
X034530Y031678
X033530Y031678
X025530Y031678
X024530Y031678
X023530Y031678
X022530Y026678
X023530Y026678
X024530Y026678
X025530Y026678
X026530Y026678
X027530Y026678
X028530Y026678
X029530Y026678
X030530Y026678
X031530Y026678
X032530Y026678
X033530Y026678
X034530Y026678
X035530Y026678
X036530Y026678
X002530Y026678
X003530Y026678
X004530Y026678
X005530Y026678
X006530Y026678
X007530Y026678
X008530Y026678
X009530Y026678
X010530Y026678
X011530Y026678
X012530Y026678
X013530Y026678
X014530Y026678
X015530Y026678
X016530Y026678
X022530Y027678
X023530Y027678
X024530Y027678
X025530Y027678
X026530Y027678
X027530Y027678
X028530Y027678
X029530Y027678
X030530Y027678
X031530Y027678
X032530Y027678
X033530Y027678
X034530Y027678
X035530Y027678
X036530Y027678
X002530Y027678
X003530Y027678
X004530Y027678
X005530Y027678
X006530Y027678
X007530Y027678
X008530Y027678
X009530Y027678
X010530Y027678
X011530Y027678
X012530Y027678
X013530Y027678
X014530Y027678
X015530Y027678
X016530Y027678
X025530Y029678
X024530Y029678
X023530Y029678
X005530Y029678
X004530Y029678
X003530Y029678
X035530Y029678
X034530Y029678
X033530Y029678
X015530Y029678
X014530Y029678
X013530Y029678
X015530Y031678
X014530Y031678
X013530Y031678
X005530Y031678
X004530Y031678
X003530Y031678
X035530Y020678
X034530Y020678
X033530Y020678
X025530Y020678
X024530Y020678
X023530Y020678
X022530Y015678
X023530Y015678
X024530Y015678
X025530Y015678
X026530Y015678
X027530Y015678
X028530Y015678
X029530Y015678
X030530Y015678
X031530Y015678
X032530Y015678
X033530Y015678
X034530Y015678
X035530Y015678
X036530Y015678
X002530Y015678
X003530Y015678
X004530Y015678
X005530Y015678
X006530Y015678
X007530Y015678
X008530Y015678
X009530Y015678
X010530Y015678
X011530Y015678
X012530Y015678
X013530Y015678
X014530Y015678
X015530Y015678
X016530Y015678
X022530Y016678
X023530Y016678
X024530Y016678
X025530Y016678
X026530Y016678
X027530Y016678
X028530Y016678
X029530Y016678
X030530Y016678
X031530Y016678
X032530Y016678
X033530Y016678
X034530Y016678
X035530Y016678
X036530Y016678
X002530Y016678
X003530Y016678
X004530Y016678
X005530Y016678
X006530Y016678
X007530Y016678
X008530Y016678
X009530Y016678
X010530Y016678
X011530Y016678
X012530Y016678
X013530Y016678
X014530Y016678
X015530Y016678
X016530Y016678
X025530Y018678
X024530Y018678
X023530Y018678
X005530Y018678
X004530Y018678
X003530Y018678
X035530Y018678
X034530Y018678
X033530Y018678
X015530Y018678
X014530Y018678
X013530Y018678
X015530Y020678
X014530Y020678
X013530Y020678
X005530Y020678
X004530Y020678
X003530Y020678
X022530Y004678
X023530Y004678
X024530Y004678
X025530Y004678
X026530Y004678
X027530Y004678
X028530Y004678
X029530Y004678
X030530Y004678
X031530Y004678
X032530Y004678
X033530Y004678
X034530Y004678
X035530Y004678
X036530Y004678
X022530Y005678
X023530Y005678
X024530Y005678
X025530Y005678
X026530Y005678
X027530Y005678
X028530Y005678
X029530Y005678
X030530Y005678
X031530Y005678
X032530Y005678
X033530Y005678
X034530Y005678
X035530Y005678
X036530Y005678
X025530Y007678
X024530Y007678
X023530Y007678
X035530Y007678
X034530Y007678
X033530Y007678
X035530Y009678
X034530Y009678
X033530Y009678
X025530Y009678
X024530Y009678
X023530Y009678
X002530Y004678
X003530Y004678
X004530Y004678
X005530Y004678
X006530Y004678
X007530Y004678
X008530Y004678
X009530Y004678
X010530Y004678
X011530Y004678
X012530Y004678
X013530Y004678
X014530Y004678
X015530Y004678
X016530Y004678
X002530Y005678
X003530Y005678
X004530Y005678
X005530Y005678
X006530Y005678
X007530Y005678
X008530Y005678
X009530Y005678
X010530Y005678
X011530Y005678
X012530Y005678
X013530Y005678
X014530Y005678
X015530Y005678
X016530Y005678
X005530Y007678
X004530Y007678
X003530Y007678
X015530Y007678
X014530Y007678
X013530Y007678
X015530Y009678
X014530Y009678
X013530Y009678
X005530Y009678
X004530Y009678
X003530Y009678
T11
X021530Y030678
X001530Y030678
X021530Y019678
X001530Y019678
X021530Y008678
X001530Y008678
T00
M30
