G04 MADE WITH FRITZING*
G04 WWW.FRITZING.ORG*
G04 DOUBLE SIDED*
G04 HOLES PLATED*
G04 CONTOUR ON CENTER OF CONTOUR VECTOR*
%ASAXBY*%
%FSLAX23Y23*%
%MOIN*%
%OFA0B0*%
%SFA1.0B1.0*%
%ADD10C,0.078000*%
%ADD11C,0.049843*%
%LNCOPPER1*%
G90*
G70*
G54D10*
X1585Y266D03*
X1485Y266D03*
X1385Y266D03*
X1285Y266D03*
X1185Y266D03*
X1085Y266D03*
X985Y266D03*
X885Y266D03*
X785Y266D03*
X685Y266D03*
X585Y266D03*
X485Y266D03*
X385Y266D03*
X285Y266D03*
X185Y266D03*
X1585Y366D03*
X1485Y366D03*
X1385Y366D03*
X1285Y366D03*
X1185Y366D03*
X1085Y366D03*
X985Y366D03*
X885Y366D03*
X785Y366D03*
X685Y366D03*
X585Y366D03*
X485Y366D03*
X385Y366D03*
X285Y366D03*
X185Y366D03*
G54D11*
X1054Y596D03*
X915Y596D03*
X985Y496D03*
X985Y666D03*
G54D10*
X1585Y1866D03*
X1485Y1866D03*
X1385Y1866D03*
X1285Y1866D03*
X1185Y1866D03*
X1085Y1866D03*
X985Y1866D03*
X885Y1866D03*
X785Y1866D03*
X685Y1866D03*
X585Y1866D03*
X485Y1866D03*
X385Y1866D03*
X285Y1866D03*
X185Y1866D03*
X1585Y1966D03*
X1485Y1966D03*
X1385Y1966D03*
X1285Y1966D03*
X1185Y1966D03*
X1085Y1966D03*
X985Y1966D03*
X885Y1966D03*
X785Y1966D03*
X685Y1966D03*
X585Y1966D03*
X485Y1966D03*
X385Y1966D03*
X285Y1966D03*
X185Y1966D03*
G54D11*
X1054Y2196D03*
X915Y2196D03*
X985Y2096D03*
X985Y2266D03*
G54D10*
X1585Y1066D03*
X1485Y1066D03*
X1385Y1066D03*
X1285Y1066D03*
X1185Y1066D03*
X1085Y1066D03*
X985Y1066D03*
X885Y1066D03*
X785Y1066D03*
X685Y1066D03*
X585Y1066D03*
X485Y1066D03*
X385Y1066D03*
X285Y1066D03*
X185Y1066D03*
X1585Y1166D03*
X1485Y1166D03*
X1385Y1166D03*
X1285Y1166D03*
X1185Y1166D03*
X1085Y1166D03*
X985Y1166D03*
X885Y1166D03*
X785Y1166D03*
X685Y1166D03*
X585Y1166D03*
X485Y1166D03*
X385Y1166D03*
X285Y1166D03*
X185Y1166D03*
G54D11*
X1055Y1396D03*
X915Y1396D03*
X985Y1296D03*
X985Y1466D03*
G54D10*
X1585Y2666D03*
X1485Y2666D03*
X1385Y2666D03*
X1285Y2666D03*
X1185Y2666D03*
X1085Y2666D03*
X985Y2666D03*
X885Y2666D03*
X785Y2666D03*
X685Y2666D03*
X585Y2666D03*
X485Y2666D03*
X385Y2666D03*
X285Y2666D03*
X185Y2666D03*
X1585Y2766D03*
X1485Y2766D03*
X1385Y2766D03*
X1285Y2766D03*
X1185Y2766D03*
X1085Y2766D03*
X985Y2766D03*
X885Y2766D03*
X785Y2766D03*
X685Y2766D03*
X585Y2766D03*
X485Y2766D03*
X385Y2766D03*
X285Y2766D03*
X185Y2766D03*
G54D11*
X1054Y2996D03*
X915Y2996D03*
X985Y2896D03*
X985Y3066D03*
G04 End of Copper1*
M02*