M48
INCH
T10C0.038000
T11C0.009843
%
T10
X001845Y019660
X002845Y019660
X003845Y019660
X004845Y019660
X005845Y019660
X006845Y019660
X007845Y019660
X008845Y019660
X009845Y019660
X010845Y019660
X011845Y019660
X012845Y019660
X013845Y019660
X014845Y019660
X015845Y019660
X001845Y027660
X002845Y027660
X003845Y027660
X004845Y027660
X005845Y027660
X006845Y027660
X007845Y027660
X008845Y027660
X009845Y027660
X010845Y027660
X011845Y027660
X012845Y027660
X013845Y027660
X014845Y027660
X015845Y027660
X001846Y011659
X002846Y011659
X003846Y011659
X004846Y011659
X005846Y011659
X006846Y011659
X007846Y011659
X008846Y011659
X009846Y011659
X010846Y011659
X011846Y011659
X012846Y011659
X013846Y011659
X014846Y011659
X015846Y011659
X001845Y003660
X002845Y003660
X003845Y003660
X004845Y003660
X005845Y003660
X006845Y003660
X007845Y003660
X008845Y003660
X009845Y003660
X010845Y003660
X011845Y003660
X012845Y003660
X013845Y003660
X014845Y003660
X015845Y003660
X001845Y018660
X002845Y018660
X003845Y018660
X004845Y018660
X005845Y018660
X006845Y018660
X007845Y018660
X008845Y018660
X009845Y018660
X010845Y018660
X011845Y018660
X012845Y018660
X013845Y018660
X014845Y018660
X015845Y018660
X001845Y002660
X002845Y002660
X003845Y002660
X004845Y002660
X005845Y002660
X006845Y002660
X007845Y002660
X008845Y002660
X009845Y002660
X010845Y002660
X011845Y002660
X012845Y002660
X013845Y002660
X014845Y002660
X015845Y002660
X001846Y010659
X002846Y010659
X003846Y010659
X004846Y010659
X005846Y010659
X006846Y010659
X007846Y010659
X008846Y010659
X009846Y010659
X010846Y010659
X011846Y010659
X012846Y010659
X013846Y010659
X014846Y010659
X015846Y010659
X001845Y026660
X002845Y026660
X003845Y026660
X004845Y026660
X005845Y026660
X006845Y026660
X007845Y026660
X008845Y026660
X009845Y026660
X010845Y026660
X011845Y026660
X012845Y026660
X013845Y026660
X014845Y026660
X015845Y026660
T11
X009845Y006660
X009845Y022660
X009846Y014659
X009845Y030660
X009846Y012961
X009845Y020962
X009845Y028962
X009845Y004962
X009147Y005962
X009147Y021962
X009148Y013961
X009147Y029962
X010543Y005962
X010543Y021962
X010543Y029962
X010545Y013961
T00
M30
